<svg width="19" height="20" viewBox="0 0 19 20" fill="none" xmlns="http://www.w3.org/2000/svg">
<g clip-path="url(#clip0_5404_25482)">
<path d="M13.1565 0.5C13.2007 0.5 13.2449 0.5 13.2916 0.5C13.4001 1.83992 12.8886 2.84111 12.2671 3.56613C11.6572 4.28615 10.822 4.98448 9.47126 4.87852C9.38116 3.55779 9.89343 2.63086 10.5142 1.9075C11.0898 1.23337 12.1453 0.633491 13.1565 0.5Z" fill="white"/>
<path d="M17.2459 14.4469C17.2459 14.4602 17.2459 14.4719 17.2459 14.4844C16.8663 15.6341 16.3248 16.6194 15.664 17.5339C15.0608 18.364 14.3216 19.4812 13.0017 19.4812C11.8612 19.4812 11.1036 18.7478 9.93471 18.7278C8.69825 18.7078 8.01828 19.341 6.88777 19.5004C6.75845 19.5004 6.62913 19.5004 6.50231 19.5004C5.67216 19.3802 5.0022 18.7228 4.51413 18.1304C3.07492 16.38 1.96277 14.119 1.75586 11.2256C1.75586 10.9419 1.75586 10.6591 1.75586 10.3754C1.84346 8.3046 2.84965 6.62094 4.18707 5.80497C4.89291 5.37113 5.86322 5.00152 6.94367 5.16672C7.40672 5.23847 7.87978 5.39699 8.29444 5.55384C8.6874 5.70485 9.17882 5.97267 9.64437 5.95849C9.95974 5.94931 10.2734 5.78495 10.5913 5.66898C11.5224 5.33275 12.4352 4.94729 13.6383 5.12834C15.0841 5.34693 16.1104 5.98936 16.7444 6.98053C15.5213 7.75895 14.5543 8.93201 14.7195 10.9352C14.8664 12.7549 15.9243 13.8195 17.2459 14.4469Z" fill="white"/>
</g>
<defs>
<clipPath id="clip0_5404_25482">
<rect width="19" height="19" fill="white" transform="translate(0 0.5)"/>
</clipPath>
</defs>
</svg>
