<svg width="30" height="30" viewBox="0 0 30 30" fill="none" xmlns="http://www.w3.org/2000/svg">
<path d="M20 15C20 14.0111 19.7068 13.0444 19.1574 12.2222C18.6079 11.3999 17.8271 10.759 16.9134 10.3806C15.9998 10.0022 14.9945 9.90315 14.0246 10.0961C13.0546 10.289 12.1637 10.7652 11.4645 11.4645C10.7652 12.1637 10.289 13.0546 10.0961 14.0246C9.90315 14.9945 10.0022 15.9998 10.3806 16.9134C10.759 17.8271 11.3999 18.6079 12.2222 19.1574C13.0444 19.7068 14.0111 20 15 20C16.3256 19.9985 17.5965 19.4713 18.5339 18.5339C19.4713 17.5965 19.9985 16.3256 20 15ZM11.25 15C11.25 14.2583 11.4699 13.5333 11.882 12.9166C12.294 12.2999 12.8797 11.8193 13.5649 11.5355C14.2502 11.2516 15.0042 11.1774 15.7316 11.3221C16.459 11.4668 17.1272 11.8239 17.6517 12.3484C18.1761 12.8728 18.5333 13.541 18.6779 14.2684C18.8226 14.9958 18.7484 15.7498 18.4646 16.4351C18.1807 17.1203 17.7001 17.706 17.0834 18.118C16.4667 18.5301 15.7417 18.75 15 18.75C14.0057 18.749 13.0525 18.3536 12.3494 17.6506C11.6464 16.9475 11.251 15.9943 11.25 15Z" fill="#159557"/>
<path d="M27.4999 15C27.4999 14.8342 27.434 14.6753 27.3168 14.5581C27.1996 14.4408 27.0406 14.375 26.8749 14.375C26.7091 14.375 26.5501 14.4408 26.4329 14.5581C26.3157 14.6753 26.2499 14.8342 26.2499 15C26.2454 17.9342 25.0954 20.7506 23.045 22.8494C20.9945 24.9482 18.2056 26.1634 15.2724 26.2362L15.4417 26.0669C15.5556 25.949 15.6186 25.7911 15.6172 25.6272C15.6157 25.4634 15.55 25.3066 15.4341 25.1907C15.3182 25.0749 15.1615 25.0091 14.9976 25.0077C14.8337 25.0063 14.6759 25.0693 14.558 25.1831L13.308 26.4331C13.1908 26.5503 13.125 26.7093 13.125 26.875C13.125 27.0407 13.1908 27.1997 13.308 27.3169L14.558 28.5669C14.6759 28.6807 14.8337 28.7437 14.9976 28.7423C15.1615 28.7409 15.3182 28.6751 15.4341 28.5593C15.55 28.4434 15.6157 28.2866 15.6172 28.1228C15.6186 27.9589 15.5556 27.801 15.4417 27.6831L15.2461 27.4875C18.5156 27.421 21.6291 26.0767 23.9195 23.7426C26.2099 21.4085 27.4952 18.2702 27.4999 15Z" fill="#159557"/>
<path d="M14.0688 3.79763L13.9331 3.93326C13.8193 4.05113 13.7563 4.20901 13.7577 4.37288C13.7591 4.53676 13.8249 4.69351 13.9407 4.80939C14.0566 4.92527 14.2134 4.99101 14.3773 4.99243C14.5411 4.99385 14.699 4.93086 14.8169 4.81701L16.0669 3.56701C16.184 3.4498 16.2499 3.29086 16.2499 3.12513C16.2499 2.9594 16.184 2.80046 16.0669 2.68326L14.8169 1.43326C14.699 1.31941 14.5411 1.25641 14.3773 1.25784C14.2134 1.25926 14.0566 1.32499 13.9407 1.44087C13.8249 1.55675 13.7591 1.71351 13.7577 1.87738C13.7563 2.04125 13.8193 2.19913 13.9331 2.31701L14.1588 2.54263C10.9993 2.75722 8.03894 4.16237 5.87509 6.47446C3.71124 8.78656 2.50506 11.8334 2.5 15.0001C2.5 15.1659 2.56585 15.3249 2.68306 15.4421C2.80027 15.5593 2.95924 15.6251 3.125 15.6251C3.29076 15.6251 3.44973 15.5593 3.56694 15.4421C3.68415 15.3249 3.75 15.1659 3.75 15.0001C3.75424 12.1798 4.81687 9.46372 6.72766 7.38928C8.63845 5.31484 11.2582 4.0331 14.0688 3.79763Z" fill="#159557"/>
<path d="M16.0156 24.375C16.4093 24.3747 16.7868 24.2181 17.0651 23.9396C17.3434 23.6612 17.4998 23.2837 17.5 22.89C17.4984 22.8449 17.5107 22.8005 17.5352 22.7626C17.5596 22.7247 17.5951 22.6952 17.6369 22.6781C17.9536 22.5692 18.2633 22.4411 18.5644 22.2944C18.6064 22.2765 18.6529 22.2719 18.6976 22.2813C18.7423 22.2907 18.7831 22.3136 18.8144 22.3469C19.093 22.6248 19.4705 22.7809 19.8641 22.7809C20.2576 22.7809 20.6351 22.6248 20.9138 22.3469L22.3512 20.9094C22.6293 20.6309 22.7855 20.2535 22.7855 19.86C22.7855 19.4665 22.6293 19.0891 22.3512 18.8106C22.3178 18.7795 22.2947 18.7387 22.2852 18.694C22.2757 18.6493 22.2802 18.6027 22.2981 18.5606C22.445 18.2597 22.5732 17.9499 22.6819 17.6331C22.6992 17.5915 22.7288 17.5561 22.7668 17.5317C22.8048 17.5074 22.8493 17.4952 22.8944 17.4969C23.2868 17.4956 23.6627 17.3391 23.9401 17.0615C24.2175 16.784 24.3738 16.408 24.375 16.0156V13.9844C24.3747 13.5907 24.2181 13.2132 23.9396 12.9349C23.6612 12.6566 23.2837 12.5002 22.89 12.5C22.8449 12.5016 22.8005 12.4893 22.7626 12.4648C22.7247 12.4404 22.6952 12.4049 22.6781 12.3631C22.5692 12.0464 22.4411 11.7367 22.2944 11.4356C22.2762 11.3936 22.2715 11.3471 22.2809 11.3023C22.2903 11.2575 22.3134 11.2168 22.3469 11.1856C22.6251 10.9072 22.7815 10.5296 22.7815 10.1359C22.7815 9.74227 22.6251 9.36471 22.3469 9.08625L20.9094 7.64875C20.6309 7.37083 20.2535 7.21474 19.86 7.21474C19.4665 7.21474 19.0891 7.37083 18.8106 7.64875C18.7797 7.68262 18.739 7.70595 18.6942 7.71548C18.6493 7.72501 18.6026 7.72025 18.5606 7.70187C18.2597 7.55495 17.9499 7.42679 17.6331 7.31812C17.5915 7.30082 17.5561 7.27119 17.5317 7.23321C17.5074 7.19523 17.4952 7.15071 17.4969 7.10563C17.4956 6.71324 17.3391 6.33731 17.0615 6.0599C16.784 5.7825 16.408 5.62615 16.0156 5.625H13.9844C13.5907 5.62533 13.2132 5.78191 12.9349 6.06035C12.6566 6.33879 12.5002 6.71631 12.5 7.11C12.5016 7.15507 12.4893 7.19954 12.4648 7.23743C12.4404 7.27531 12.4049 7.30478 12.3631 7.32188C12.0464 7.43077 11.7367 7.55892 11.4356 7.70563C11.3935 7.72325 11.3471 7.72767 11.3025 7.71829C11.2578 7.70892 11.2171 7.68619 11.1856 7.65312C10.907 7.37516 10.5295 7.21906 10.1359 7.21906C9.74237 7.21906 9.36487 7.37516 9.08625 7.65312L7.64875 9.09063C7.37067 9.36906 7.21448 9.74649 7.21448 10.14C7.21448 10.5335 7.37067 10.9109 7.64875 11.1894C7.68222 11.2205 7.70528 11.2613 7.71479 11.306C7.72429 11.3507 7.71979 11.3973 7.70187 11.4394C7.55495 11.7403 7.42679 12.0501 7.31812 12.3669C7.30082 12.4085 7.27119 12.4439 7.23321 12.4683C7.19523 12.4926 7.15071 12.5048 7.10563 12.5031C6.71324 12.5044 6.33731 12.6609 6.0599 12.9385C5.7825 13.216 5.62615 13.592 5.625 13.9844V16.0156C5.62533 16.4093 5.78191 16.7868 6.06035 17.0651C6.33879 17.3434 6.71631 17.4998 7.11 17.5C7.15507 17.4984 7.19954 17.5107 7.23743 17.5352C7.27531 17.5596 7.30478 17.5951 7.32188 17.6369C7.43077 17.9536 7.55892 18.2633 7.70563 18.5644C7.72379 18.6064 7.7285 18.6529 7.7191 18.6977C7.7097 18.7425 7.68665 18.7832 7.65312 18.8144C7.37486 19.0928 7.21854 19.4704 7.21854 19.8641C7.21854 20.2577 7.37486 20.6353 7.65312 20.9138L9.09063 22.3512C9.36914 22.6292 9.74654 22.7853 10.14 22.7853C10.5335 22.7853 10.9109 22.6292 11.1894 22.3512C11.2205 22.3178 11.2613 22.2947 11.306 22.2852C11.3507 22.2757 11.3973 22.2802 11.4394 22.2981C11.7403 22.445 12.0501 22.5732 12.3669 22.6819C12.4085 22.6992 12.4439 22.7288 12.4683 22.7668C12.4926 22.8048 12.5048 22.8493 12.5031 22.8944C12.5044 23.2868 12.6609 23.6627 12.9385 23.9401C13.216 24.2175 13.592 24.3738 13.9844 24.375H16.0156ZM13.75 22.89C13.7522 22.5843 13.6588 22.2855 13.4829 22.0355C13.3069 21.7855 13.0573 21.5967 12.7688 21.4956C12.501 21.404 12.2392 21.2957 11.985 21.1713C11.7883 21.0757 11.5724 21.0262 11.3538 21.0262C10.9598 21.0274 10.5825 21.1848 10.3044 21.4637C10.2602 21.5075 10.2006 21.5321 10.1384 21.5321C10.0763 21.5321 10.0166 21.5075 9.9725 21.4637L8.535 20.0262C8.49103 19.9821 8.46635 19.9223 8.46635 19.86C8.46635 19.7977 8.49103 19.7379 8.535 19.6938C8.75217 19.4789 8.89694 19.2016 8.94915 18.9006C9.00135 18.5996 8.95839 18.2898 8.82625 18.0144C8.70205 17.7601 8.59372 17.4983 8.50187 17.2306C8.40068 16.9426 8.21213 16.6933 7.96252 16.5175C7.71291 16.3417 7.41467 16.2482 7.10938 16.25C7.04721 16.25 6.9876 16.2253 6.94365 16.1814C6.89969 16.1374 6.875 16.0778 6.875 16.0156V13.9844C6.87517 13.9222 6.9 13.8625 6.94405 13.8186C6.9881 13.7747 7.04778 13.75 7.11 13.75C7.41571 13.7522 7.71446 13.6588 7.96448 13.4829C8.21449 13.3069 8.40326 13.0573 8.50438 12.7688C8.596 12.501 8.70434 12.2392 8.82875 11.985C8.96101 11.7093 9.00397 11.3993 8.95165 11.098C8.89933 10.7967 8.75434 10.5193 8.53688 10.3044C8.4931 10.2602 8.46853 10.2006 8.46853 10.1384C8.46853 10.0763 8.4931 10.0166 8.53688 9.9725L9.97437 8.535C9.9962 8.51315 10.0221 8.49582 10.0506 8.484C10.0792 8.47218 10.1097 8.46609 10.1406 8.46609C10.1715 8.46609 10.2021 8.47218 10.2306 8.484C10.2591 8.49582 10.285 8.51315 10.3069 8.535C10.5217 8.75217 10.799 8.89694 11.1 8.94915C11.401 9.00135 11.7108 8.95839 11.9862 8.82625C12.2406 8.70205 12.5023 8.59372 12.77 8.50187C13.0579 8.40057 13.3071 8.21198 13.4827 7.96238C13.6584 7.71277 13.7518 7.41459 13.75 7.10938C13.75 7.04721 13.7747 6.9876 13.8186 6.94365C13.8626 6.89969 13.9222 6.875 13.9844 6.875H16.0156C16.0778 6.87517 16.1375 6.9 16.1814 6.94405C16.2253 6.9881 16.25 7.04778 16.25 7.11C16.2478 7.41571 16.3412 7.71446 16.5171 7.96448C16.6931 8.21449 16.9427 8.40326 17.2312 8.50438C17.499 8.596 17.7608 8.70434 18.015 8.82875C18.2907 8.96082 18.6007 9.00368 18.902 8.95137C19.2032 8.89906 19.4806 8.75418 19.6956 8.53688C19.7398 8.4931 19.7994 8.46853 19.8616 8.46853C19.9237 8.46853 19.9834 8.4931 20.0275 8.53688L21.465 9.97437C21.509 10.0185 21.5337 10.0783 21.5337 10.1406C21.5337 10.2029 21.509 10.2627 21.465 10.3069C21.2478 10.5217 21.1031 10.799 21.0509 11.1C20.9987 11.401 21.0416 11.7108 21.1737 11.9862C21.2979 12.2406 21.4063 12.5023 21.4981 12.77C21.5994 13.0579 21.788 13.3071 22.0376 13.4827C22.2872 13.6584 22.5854 13.7518 22.8906 13.75C22.9528 13.75 23.0124 13.7747 23.0564 13.8186C23.1003 13.8626 23.125 13.9222 23.125 13.9844V16.0156C23.1248 16.0778 23.1 16.1375 23.056 16.1814C23.0119 16.2253 22.9522 16.25 22.89 16.25C22.5843 16.2478 22.2855 16.3412 22.0355 16.5171C21.7855 16.6931 21.5967 16.9427 21.4956 17.2312C21.404 17.499 21.2957 17.7608 21.1713 18.015C21.039 18.2907 20.996 18.6007 21.0483 18.902C21.1007 19.2033 21.2457 19.4807 21.4631 19.6956C21.5069 19.7398 21.5315 19.7994 21.5315 19.8616C21.5315 19.9237 21.5069 19.9834 21.4631 20.0275L20.0256 21.465C20.0038 21.4868 19.9779 21.5042 19.9494 21.516C19.9208 21.5278 19.8903 21.5339 19.8594 21.5339C19.8285 21.5339 19.7979 21.5278 19.7694 21.516C19.7409 21.5042 19.715 21.4868 19.6931 21.465C19.4784 21.2476 19.2012 21.1026 18.9001 21.0504C18.599 20.9982 18.2891 21.0413 18.0138 21.1737C17.7594 21.2979 17.4977 21.4063 17.23 21.4981C16.9421 21.5994 16.6929 21.788 16.5173 22.0376C16.3416 22.2872 16.2482 22.5854 16.25 22.8906C16.25 22.9528 16.2253 23.0124 16.1814 23.0564C16.1374 23.1003 16.0778 23.125 16.0156 23.125H13.9844C13.9222 23.1248 13.8625 23.1 13.8186 23.056C13.7747 23.0119 13.75 22.9522 13.75 22.89Z" fill="#159557"/>
</svg>
