<svg width="25" height="28" viewBox="0 0 25 28" fill="none" xmlns="http://www.w3.org/2000/svg">
<path d="M0.312514 10.4472V24.7441C0.312512 25.1598 0.394541 25.5714 0.553901 25.9553C0.71326 26.3392 0.946817 26.6879 1.24119 26.9814C1.53555 27.2749 1.88495 27.5074 2.26934 27.6656C2.65374 27.8239 3.06558 27.9047 3.48127 27.9034H21.5281C22.3661 27.9034 23.1697 27.5706 23.7622 26.9781C24.3547 26.3856 24.6875 25.582 24.6875 24.7441V10.4472C24.6875 9.60841 24.355 8.80385 23.7627 8.20986C23.1705 7.61587 22.3669 7.28093 21.5281 7.27845H19.5219C19.7986 6.99308 20.0437 6.67877 20.2531 6.34095C20.654 5.66957 20.875 4.90616 20.8947 4.12445C20.9144 3.34275 20.7322 2.56917 20.3656 1.87845C20.0468 1.32164 19.5827 0.861842 19.023 0.548132C18.4633 0.234421 17.8289 0.0785657 17.1875 0.0971968C16.4851 0.0748073 15.7862 0.204838 15.1389 0.478343C14.4915 0.751849 13.9111 1.16234 13.4375 1.68157C13.0629 2.07817 12.7472 2.52649 12.5 3.01282C12.2673 2.52937 11.9674 2.08119 11.6094 1.68157C11.1358 1.16234 10.5554 0.751849 9.90806 0.478343C9.26071 0.204838 8.56179 0.0748073 7.85939 0.0971968C7.21774 0.0779545 6.58281 0.232448 6.02172 0.544343C5.46064 0.856238 4.99426 1.31394 4.67189 1.86907C4.30534 2.55979 4.12311 3.33337 4.14282 4.11508C4.16253 4.89679 4.3835 5.6602 4.78439 6.33157C4.99381 6.6694 5.23897 6.98371 5.51564 7.26907H3.48127C3.06435 7.26907 2.65153 7.35134 2.26647 7.51117C1.8814 7.671 1.53167 7.90525 1.2373 8.20049C0.94293 8.49573 0.709717 8.84616 0.551025 9.23169C0.392332 9.61722 0.31128 10.0303 0.312514 10.4472ZM22.8125 10.4472V24.7441C22.8125 24.9127 22.7793 25.0798 22.7148 25.2356C22.6502 25.3914 22.5556 25.533 22.4363 25.6523C22.3171 25.7715 22.1755 25.8661 22.0197 25.9307C21.8638 25.9952 21.6968 26.0284 21.5281 26.0284H13.4375L13.5031 9.15345H21.5563C21.8929 9.16321 22.2124 9.30381 22.4469 9.54538C22.6815 9.78696 22.8127 10.1105 22.8125 10.4472ZM17.1875 2.0097C17.5004 1.98861 17.8129 2.05561 18.0896 2.20308C18.3663 2.35055 18.5962 2.57261 18.7531 2.84407C18.9592 3.24882 19.0564 3.70027 19.035 4.15397C19.0136 4.60767 18.8745 5.04798 18.6313 5.43157C18.2281 6.1347 17.1688 7.30657 14.6188 7.30657H13.4375C13.4375 6.1722 13.6531 4.15657 14.7406 2.96595C15.0487 2.62842 15.4282 2.36401 15.8516 2.19207C16.2749 2.02013 16.7314 1.94501 17.1875 1.9722V2.0097ZM6.37814 5.39407C6.13492 5.01048 5.99577 4.57017 5.9744 4.11647C5.95303 3.66277 6.05017 3.21132 6.25627 2.80657C6.4125 2.53661 6.64088 2.31552 6.91577 2.16814C7.19067 2.02076 7.5012 1.9529 7.81252 1.9722C8.25663 1.94493 8.70135 2.01467 9.11579 2.17656C9.53024 2.33846 9.90448 2.58863 10.2125 2.9097C11.3094 4.12845 11.5063 6.14407 11.5625 7.27845H10.3906C7.81252 7.27845 6.78127 6.0972 6.37814 5.39407ZM2.18751 10.4472C2.18751 10.1041 2.32382 9.775 2.56645 9.53238C2.80907 9.28975 3.13814 9.15345 3.48127 9.15345H11.5625L11.4969 26.0284H3.48127C3.31181 26.0297 3.14379 25.9974 2.98688 25.9334C2.82996 25.8694 2.68727 25.775 2.56701 25.6556C2.44675 25.5362 2.3513 25.3942 2.28617 25.2378C2.22104 25.0813 2.18751 24.9135 2.18751 24.7441V10.4472Z" fill="#16BE6E"/>
</svg>
