<svg width="30" height="30" viewBox="0 0 30 30" fill="none" xmlns="http://www.w3.org/2000/svg">
<path fill-rule="evenodd" clip-rule="evenodd" d="M14.5148 3.32237C14.8087 3.12643 15.1916 3.12643 15.4856 3.32237L25.9098 10.2719C26.6302 10.7521 26.2902 11.8749 25.4244 11.8749H4.57583C3.7101 11.8749 3.37013 10.7521 4.09047 10.2719L14.5148 3.32237ZM15.0002 4.50111L5.81437 10.6249H24.1859L15.0002 4.50111ZM25.2164 11.312C25.2163 11.3118 25.2166 11.3121 25.2164 11.312V11.312Z" fill="#159557"/>
<path fill-rule="evenodd" clip-rule="evenodd" d="M22.5 21.25C22.1549 21.25 21.875 20.9701 21.875 20.625V13.75C21.875 13.4049 22.1549 13.125 22.5 13.125C22.8451 13.125 23.125 13.4049 23.125 13.75V20.625C23.125 20.9701 22.8451 21.25 22.5 21.25Z" fill="#159557"/>
<path fill-rule="evenodd" clip-rule="evenodd" d="M17.5 21.25C17.1549 21.25 16.875 20.9701 16.875 20.625V13.75C16.875 13.4049 17.1549 13.125 17.5 13.125C17.8451 13.125 18.125 13.4049 18.125 13.75V20.625C18.125 20.9701 17.8451 21.25 17.5 21.25Z" fill="#159557"/>
<path fill-rule="evenodd" clip-rule="evenodd" d="M12.5 21.25C12.1548 21.25 11.875 20.9701 11.875 20.625V13.75C11.875 13.4049 12.1548 13.125 12.5 13.125C12.8451 13.125 13.125 13.4049 13.125 13.75V20.625C13.125 20.9701 12.8451 21.25 12.5 21.25Z" fill="#159557"/>
<path fill-rule="evenodd" clip-rule="evenodd" d="M7.5 21.25C7.15483 21.25 6.875 20.9701 6.875 20.625V13.75C6.875 13.4049 7.15483 13.125 7.5 13.125C7.84518 13.125 8.125 13.4049 8.125 13.75V20.625C8.125 20.9701 7.84518 21.25 7.5 21.25Z" fill="#159557"/>
<path fill-rule="evenodd" clip-rule="evenodd" d="M4.375 24.375C4.375 23.3395 5.21446 22.5 6.25 22.5H23.75C24.7855 22.5 25.625 23.3395 25.625 24.375C25.625 25.4105 24.7855 26.25 23.75 26.25H6.25C5.21446 26.25 4.375 25.4105 4.375 24.375ZM6.25 23.75C5.90483 23.75 5.625 24.0299 5.625 24.375C5.625 24.7201 5.90483 25 6.25 25H23.75C24.0951 25 24.375 24.7201 24.375 24.375C24.375 24.0299 24.0951 23.75 23.75 23.75H6.25Z" fill="#159557"/>
</svg>
