<svg width="116" height="24" viewBox="0 0 116 24" fill="none" xmlns="http://www.w3.org/2000/svg">
<g clip-path="url(#clip0_2572_16550)">
<path d="M16.3602 4.98633C15.5246 4.99376 14.6985 5.16358 13.9277 5.48633C15.662 6.36696 16.5516 8.32191 16.0111 10.5967L13.9412 19.3197H18.5674L20.6394 10.5967C21.3737 7.49759 19.4593 4.98633 16.3602 4.98633Z" fill="#159557"/>
<path d="M9.3963 4.98633C8.56075 4.99376 7.73461 5.16358 6.96387 5.48633C8.6981 6.36696 9.58774 8.32191 9.0472 10.5967L6.98189 19.3197H11.6035L13.6756 10.5967C14.4143 7.49759 12.4954 4.98633 9.3963 4.98633Z" fill="#159557"/>
<path d="M2.43243 4.98633C1.59688 4.99376 0.770739 5.16358 0 5.48633C1.73649 6.36696 2.62387 8.33318 2.08559 10.5967L0.0135135 19.3197H4.63964L6.71171 10.5967C7.44595 7.49759 5.53153 4.98633 2.43243 4.98633Z" fill="#159557"/>
<path d="M31.7182 12.4729C31.7182 11.1125 31.5486 10.129 31.2092 9.52244C30.8669 8.91658 30.234 8.62154 29.3038 8.62154C28.9378 8.62371 28.5722 8.64854 28.2092 8.69586C27.8106 8.74541 27.511 8.78595 27.3083 8.81974V19.3197H24.2993V6.72064C25.0489 6.52055 25.8091 6.36264 26.5763 6.24766C27.5599 6.09471 28.554 6.0194 29.5493 6.02244C30.3007 5.99893 31.0496 6.11815 31.7565 6.37379C32.2908 6.58065 32.7774 6.89407 33.1867 7.29496C33.4089 7.13717 33.6423 6.99566 33.8849 6.87154C34.1899 6.71152 34.506 6.57377 34.8308 6.45938C35.193 6.33152 35.5632 6.22769 35.939 6.14857C36.3276 6.06566 36.724 6.02414 37.1214 6.02469C37.9764 5.997 38.828 6.14494 39.6236 6.45938C40.2391 6.71884 40.7724 7.14081 41.1664 7.6801C41.5583 8.24711 41.822 8.89272 41.939 9.57199C42.0849 10.3729 42.1558 11.1858 42.1507 11.9999V19.3197H39.1372V12.4729C39.1372 11.1125 38.9712 10.129 38.6394 9.52244C38.3076 8.91583 37.6687 8.61553 36.7227 8.62154C36.2566 8.61522 35.793 8.69147 35.3534 8.84676C35.013 8.95765 34.6871 9.10887 34.3827 9.29721C34.5181 9.72674 34.6095 10.169 34.6552 10.617C34.7083 11.113 34.7338 11.6115 34.7318 12.1103V19.3175H31.7182V12.4729Z" fill="#1D1D1B"/>
<path d="M56.3065 12.7971C56.3179 13.7536 56.1655 14.705 55.856 15.6101C55.5841 16.4105 55.1519 17.147 54.5857 17.7746C54.0344 18.3759 53.3599 18.8514 52.6083 19.1687C51.8009 19.5081 50.9322 19.6776 50.0565 19.6665C49.1865 19.6778 48.3237 19.5083 47.5227 19.1687C46.7754 18.8495 46.105 18.3742 45.5565 17.7746C44.9899 17.1453 44.5543 16.4095 44.2749 15.6101C43.961 14.7061 43.8086 13.7539 43.8245 12.7971C43.8078 11.8439 43.9603 10.8952 44.2749 9.99528C44.5563 9.19775 44.996 8.46535 45.5677 7.84213C46.1223 7.24617 46.7971 6.77481 47.5475 6.45924C48.3449 6.13007 49.2006 5.96536 50.0632 5.97501C50.9294 5.96648 51.7886 6.13112 52.5902 6.45924C53.3422 6.77081 54.0171 7.24275 54.5677 7.84213C55.1327 8.46874 55.5689 9.20034 55.8515 9.99528C56.1667 10.8952 56.3207 11.8437 56.3065 12.7971ZM53.2186 12.7971C53.2186 11.5028 52.9408 10.4773 52.3853 9.72051C52.1081 9.36822 51.7546 9.08344 51.3514 8.88762C50.9482 8.6918 50.5058 8.59006 50.0576 8.59006C49.6094 8.59006 49.167 8.6918 48.7637 8.88762C48.3605 9.08344 48.007 9.36822 47.7299 9.72051C47.1728 10.4713 46.8951 11.4968 46.8966 12.7971C46.8981 14.0974 47.1818 15.1342 47.7479 15.9074C48.0212 16.2655 48.3733 16.5558 48.7771 16.7556C49.1808 16.9553 49.6252 17.0593 50.0756 17.0593C50.5261 17.0593 50.9704 16.9553 51.3742 16.7556C51.7779 16.5558 52.1301 16.2655 52.4033 15.9074C52.9529 15.1432 53.2276 14.1064 53.2276 12.7971H53.2186Z" fill="#1D1D1B"/>
<path d="M65.5517 9.00889C65.2118 8.90438 64.8667 8.81718 64.5179 8.74762C64.0132 8.65157 63.5002 8.6063 62.9864 8.61249C62.6321 8.61381 62.2785 8.64698 61.9301 8.71159C61.6647 8.75269 61.4022 8.81062 61.1441 8.88501V19.3197H58.1328V6.93231C58.8436 6.67411 59.5713 6.46491 60.3107 6.30618C61.2646 6.10676 62.2372 6.01086 63.2116 6.02015C63.4098 6.02015 63.6418 6.03366 63.9076 6.05843C64.1734 6.08321 64.4391 6.11474 64.7049 6.15753C64.9707 6.20033 65.2274 6.24762 65.4774 6.30618C65.7274 6.36474 65.9279 6.41879 66.0743 6.46834L65.5517 9.00889Z" fill="#1D1D1B"/>
<path d="M66.1487 12.871C66.1306 11.8429 66.3063 10.8205 66.6668 9.85749C66.9672 9.05588 67.4269 8.32343 68.0181 7.70434C68.5677 7.14181 69.2291 6.70065 69.9595 6.40929C70.672 6.12275 71.4327 5.9752 72.2005 5.97461C73.9933 5.97461 75.392 6.53016 76.3965 7.64128C77.401 8.75239 77.9017 10.4093 77.8987 12.612C77.8987 12.7787 77.8987 12.9656 77.8875 13.1728C77.8762 13.38 77.8672 13.567 77.8492 13.7336H69.2613C69.3454 14.7847 69.7148 15.5932 70.3695 16.1593C71.0241 16.7254 71.9738 17.0121 73.2186 17.0197C73.892 17.0252 74.5641 16.958 75.2231 16.8192C75.7125 16.7222 76.192 16.5805 76.6555 16.3958L77.0541 18.8733C76.8356 18.9768 76.6098 19.0641 76.3785 19.1345C76.0511 19.234 75.7188 19.3167 75.383 19.3823C75.0091 19.4558 74.6059 19.5182 74.1735 19.5692C73.7361 19.6192 73.2962 19.644 72.8559 19.6435C71.8339 19.6702 70.8163 19.5004 69.8582 19.1435C69.0617 18.8375 68.3465 18.352 67.7681 17.7246C67.2123 17.1065 66.796 16.376 66.5474 15.5827C66.2726 14.7054 66.138 13.7903 66.1487 12.871ZM74.8875 11.5197C74.8891 11.1191 74.8307 10.7205 74.7141 10.3372C74.6076 9.9838 74.434 9.65421 74.2028 9.3665C73.98 9.09222 73.6993 8.87069 73.3807 8.71785C73.0179 8.55173 72.6219 8.47084 72.2231 8.48137C71.8021 8.47235 71.3849 8.56182 71.0046 8.74263C70.6675 8.90662 70.3665 9.13635 70.1195 9.4183C69.876 9.70578 69.6861 10.0345 69.5586 10.389C69.4266 10.7532 69.3352 11.1309 69.2861 11.5152L74.8875 11.5197Z" fill="#1D1D1B"/>
<path d="M90.5407 17.9997C90.5407 20.0732 90.0151 21.592 88.9641 22.556C87.913 23.5199 86.2989 24.0012 84.1218 23.9997C83.3411 24.0007 82.5619 23.9336 81.7929 23.7992C81.0952 23.6812 80.4082 23.5065 79.7389 23.2767L80.2907 20.7204C80.8572 20.9509 81.4448 21.1259 82.0452 21.2429C82.7463 21.3798 83.4593 21.4461 84.1736 21.4411C85.3853 21.4411 86.2486 21.1926 86.7636 20.6956C87.2787 20.1986 87.5354 19.4561 87.5339 18.4681V17.9749C87.1522 18.1559 86.7569 18.3065 86.3515 18.4253C85.8055 18.5826 85.2394 18.6585 84.6713 18.6506C83.8936 18.6573 83.1214 18.519 82.3943 18.2429C81.7265 17.9921 81.1238 17.5941 80.6308 17.0785C80.1165 16.5234 79.7257 15.8655 79.4844 15.1483C79.1973 14.2861 79.0587 13.3813 79.0745 12.4726C79.0633 11.5825 79.2089 10.6974 79.5046 9.85778C79.7752 9.0936 80.2086 8.39735 80.7749 7.81724C81.3501 7.23951 82.0409 6.78976 82.8019 6.49742C83.6685 6.16957 84.5895 6.00908 85.5159 6.02445C86.45 6.02155 87.3827 6.09689 88.3042 6.24967C89.1826 6.39982 89.9296 6.55748 90.5452 6.72264L90.5407 17.9997ZM82.1578 12.4726C82.1578 13.7489 82.4356 14.6821 82.9911 15.2722C83.2655 15.5631 83.5985 15.7925 83.9681 15.945C84.3378 16.0976 84.7356 16.17 85.1353 16.1573C85.5933 16.1596 86.049 16.092 86.4866 15.9569C86.852 15.8513 87.1997 15.6919 87.5181 15.4839V8.73841C87.2929 8.68886 87.0362 8.64381 86.7209 8.60102C86.3247 8.55515 85.926 8.53409 85.5272 8.53796C84.4326 8.53796 83.5925 8.90057 83.0136 9.62129C82.4348 10.342 82.1578 11.2947 82.1578 12.4726Z" fill="#1D1D1B"/>
<path d="M96.4462 2.48844C96.4591 2.73998 96.4168 2.99131 96.3223 3.22477C96.2277 3.45823 96.0832 3.66815 95.8989 3.83979C95.5447 4.16703 95.0769 4.34319 94.5948 4.33078C94.1102 4.338 93.6416 4.15811 93.2863 3.82853C93.1011 3.65738 92.9559 3.4476 92.861 3.21406C92.766 2.98052 92.7236 2.72895 92.7367 2.47718C92.726 2.22569 92.7696 1.97485 92.8644 1.74168C92.9592 1.50851 93.1031 1.29847 93.2863 1.12583C93.6418 0.796426 94.1101 0.615869 94.5948 0.621321C95.0785 0.613761 95.5462 0.794692 95.8989 1.12583C96.0829 1.30011 96.227 1.51211 96.3215 1.74729C96.416 1.98247 96.4585 2.23529 96.4462 2.48844ZM96.1241 19.3195H93.1106V6.30601H96.1241V19.3195Z" fill="#1D1D1B"/>
<path d="M103.964 -0.000304753C104.583 -0.00825992 105.201 0.0544579 105.806 0.186632C106.211 0.274719 106.611 0.386778 107.002 0.522218L106.43 2.9997C106.114 2.85788 105.784 2.74992 105.446 2.67762C105.049 2.59222 104.644 2.55068 104.239 2.55375C103.822 2.54218 103.407 2.61337 103.018 2.76321C102.708 2.88922 102.435 3.0905 102.223 3.34879C102.013 3.62223 101.869 3.94059 101.802 4.27897C101.716 4.65884 101.675 5.04728 101.678 5.43663V6.306H107.759V8.81276H101.678V19.3195H98.6621V5.37807C98.6621 3.7009 99.1021 2.38558 99.9819 1.43213C100.862 0.478674 102.189 0.00119675 103.964 -0.000304753Z" fill="#1D1D1B"/>
<path d="M107.176 2.86201L110.189 2.36426V6.3057H114.82V8.81246H110.189V14.1143C110.189 15.1653 110.355 15.9161 110.687 16.3665C111.019 16.817 111.583 17.0422 112.381 17.0422C112.871 17.0492 113.361 16.9901 113.835 16.8665C114.177 16.7775 114.514 16.6699 114.845 16.5444L115.342 18.9183C114.896 19.0968 114.438 19.2472 113.973 19.3688C113.322 19.5332 112.653 19.6089 111.982 19.594C111.189 19.6175 110.399 19.4907 109.653 19.2201C109.07 19.0012 108.558 18.6274 108.171 18.139C107.793 17.6362 107.53 17.0565 107.401 16.4408C107.242 15.6834 107.166 14.9107 107.176 14.1368V2.86201Z" fill="#1D1D1B"/>
</g>
<defs>
<clipPath id="clip0_2572_16550">
<rect width="115.342" height="24" fill="white"/>
</clipPath>
</defs>
</svg>
