<svg width="30" height="31" viewBox="0 0 30 31" fill="none" xmlns="http://www.w3.org/2000/svg">
<g clip-path="url(#clip0_2446_32995)">
<path d="M9.56945 23.834C7.83968 23.834 6.4375 25.2362 6.4375 26.9659C6.4375 28.6957 7.83975 30.0979 9.56945 30.0979C11.2992 30.0979 12.7014 28.6956 12.7014 26.9659C12.7015 25.2362 11.2992 23.834 9.56945 23.834ZM9.56945 28.706C8.60848 28.706 7.82949 27.927 7.82949 26.966C7.82949 26.005 8.60848 25.226 9.56945 25.226C10.5304 25.226 11.3094 26.005 11.3094 26.966C11.3095 27.927 10.5304 28.706 9.56945 28.706Z" fill="#159557"/>
<path d="M22.7941 23.834C21.0643 23.834 19.6621 25.2362 19.6621 26.9659C19.6621 28.6957 21.0644 30.0979 22.7941 30.0979C24.5238 30.0979 25.926 28.6956 25.926 26.9659C25.926 25.2362 24.5238 23.834 22.7941 23.834ZM22.7941 28.706C21.8331 28.706 21.0541 27.927 21.0541 26.966C21.0541 26.005 21.8331 25.226 22.7941 25.226C23.755 25.226 24.534 26.005 24.534 26.966C24.5341 27.927 23.755 28.706 22.7941 28.706Z" fill="#159557"/>
<path d="M29.8581 5.56458C29.7132 5.40625 29.5149 5.30714 29.3013 5.28616L6.64676 4.97296L6.02037 3.05896C5.57909 1.77947 4.38093 0.915688 3.02757 0.901367H0.695995C0.311596 0.901367 0 1.21296 0 1.59736C0 1.98176 0.311596 2.29336 0.695995 2.29336H3.02757C3.78431 2.31008 4.45067 2.79599 4.69798 3.51137L9.11755 16.8397L8.76958 17.64C8.38145 18.6409 8.49802 19.7674 9.08278 20.6676C9.66194 21.5518 10.6363 22.0974 11.6928 22.1292H25.2299C25.6143 22.1292 25.9259 21.8176 25.9259 21.4332C25.9259 21.0488 25.6143 20.7372 25.2299 20.7372H11.6927C11.0961 20.7223 10.5469 20.4084 10.2311 19.902C9.91885 19.4018 9.8547 18.7855 10.0571 18.2316L10.3356 17.6052L24.9862 16.074C26.5955 15.8967 27.9193 14.7263 28.2922 13.1508L29.9626 6.15607C30.0379 5.95464 29.9979 5.72811 29.8581 5.56458ZM26.935 12.8377C26.7091 13.8518 25.848 14.5999 24.8122 14.6821L10.3356 16.1784L7.09917 6.36495L28.4314 6.67815L26.935 12.8377Z" fill="#159557"/>
</g>
<defs>
<clipPath id="clip0_2446_32995">
<rect width="30" height="30" fill="white" transform="translate(0 0.5)"/>
</clipPath>
</defs>
</svg>
