<svg width="30" height="30" viewBox="0 0 30 30" fill="none" xmlns="http://www.w3.org/2000/svg">
<g clip-path="url(#clip0_2421_12854)">
<path d="M9.77977 14.5439C11.0772 14.5439 12.1327 13.4883 12.1327 12.1909C12.1327 10.8935 11.0771 9.83789 9.77977 9.83789C8.48227 9.83789 7.42676 10.8935 7.42676 12.1909C7.42676 13.4883 8.48227 14.5439 9.77977 14.5439ZM9.77977 10.7168C10.5926 10.7168 11.2538 11.3781 11.2538 12.1909C11.2538 13.0037 10.5926 13.665 9.77977 13.665C8.96695 13.665 8.30566 13.0037 8.30566 12.1909C8.30566 11.3781 8.96695 10.7168 9.77977 10.7168Z" fill="#159557"/>
<path d="M14.9604 12.0809C16.2263 12.0809 17.2563 11.051 17.2563 9.78508C17.2563 8.51916 16.2263 7.48926 14.9604 7.48926C13.6945 7.48926 12.6646 8.51916 12.6646 9.78508C12.6646 11.051 13.6945 12.0809 14.9604 12.0809ZM14.9604 8.36816C15.7417 8.36816 16.3773 9.00379 16.3773 9.78508C16.3773 10.5664 15.7417 11.202 14.9604 11.202C14.1791 11.202 13.5435 10.5664 13.5435 9.78508C13.5435 9.00379 14.1791 8.36816 14.9604 8.36816Z" fill="#159557"/>
<path d="M10.7246 25.6922C11.9904 25.6922 13.0204 24.6623 13.0204 23.3964C13.0204 22.1305 11.9905 21.1006 10.7246 21.1006C9.45867 21.1006 8.42871 22.1305 8.42871 23.3964C8.42871 24.6623 9.45867 25.6922 10.7246 25.6922ZM10.7246 21.9796C11.5059 21.9796 12.1415 22.6152 12.1415 23.3965C12.1415 24.1778 11.5059 24.8134 10.7246 24.8134C9.9433 24.8134 9.30762 24.1778 9.30762 23.3965C9.30762 22.6152 9.9433 21.9796 10.7246 21.9796Z" fill="#159557"/>
<path d="M16.1308 27.4266C17.3967 27.4266 18.4267 26.3967 18.4267 25.1308C18.4267 23.8649 17.3968 22.835 16.1308 22.835C14.8649 22.835 13.835 23.8649 13.835 25.1308C13.835 26.3967 14.8649 27.4266 16.1308 27.4266ZM16.1308 23.7139C16.9121 23.7139 17.5478 24.3495 17.5478 25.1308C17.5478 25.9121 16.9121 26.5477 16.1308 26.5477C15.3496 26.5477 14.7139 25.9121 14.7139 25.1308C14.7139 24.3495 15.3496 23.7139 16.1308 23.7139Z" fill="#159557"/>
<path d="M4.97754 17.9839C4.97754 19.4612 6.1794 20.663 7.65671 20.663C9.13401 20.663 10.3359 19.4612 10.3359 17.9839C10.3359 16.5065 9.13401 15.3047 7.65671 15.3047C6.1794 15.3047 4.97754 16.5065 4.97754 17.9839ZM7.65671 16.1836C8.64933 16.1836 9.45698 16.9912 9.45698 17.9839C9.45698 18.9765 8.64939 19.7841 7.65671 19.7841C6.66402 19.7841 5.85643 18.9765 5.85643 17.9839C5.85643 16.9912 6.66402 16.1836 7.65671 16.1836Z" fill="#159557"/>
<path d="M2.70361 17.523C2.70361 24.1522 8.4145 29.1911 15.0786 29.5971C15.0877 29.5976 15.0968 29.5979 15.1058 29.5979C15.3363 29.5979 15.5298 29.4183 15.544 29.1852C15.5588 28.9429 15.3743 28.7346 15.1321 28.7198C8.65567 28.3253 3.58251 23.4071 3.58251 17.523C3.58251 10.8564 9.93007 5.71232 17.1838 6.36938C17.5138 6.71326 17.9199 6.98888 18.3448 7.19062C18.3099 7.35122 18.316 7.52255 18.3582 7.67741L19.228 10.8764C19.0255 11.1131 18.9551 11.4353 19.0359 11.7319L19.2429 12.4935C19.3688 12.9574 19.8324 13.2541 20.3061 13.172L20.7166 14.9496C19.2322 15.6259 18.4206 16.5314 18.4206 17.5231C18.4206 18.5183 19.2501 19.4389 20.7564 20.1152C21.2921 20.3557 21.7556 20.6852 22.1358 21.0956C22.6192 23.2176 22.7679 23.8909 23.1222 24.9576C22.7942 26.3883 21.8134 27.4851 20.4159 27.9772C19.3497 28.3527 18.2399 28.5932 17.1176 28.6921C16.8758 28.7134 16.697 28.9267 16.7184 29.1684C16.7396 29.4102 16.9537 29.5886 17.1947 29.5676C18.3902 29.4622 19.5723 29.2061 20.7079 28.8062C22.0006 28.351 23.0213 27.4287 23.5969 26.2395C24.1846 27.6814 24.7202 28.5724 25.2182 29.4408C25.4699 29.88 25.987 30.0939 26.4756 29.9611C26.9641 29.8283 27.3016 29.382 27.2964 28.8758C27.2813 27.4037 27.3201 25.1908 26.2858 21.8937C26.2131 21.6622 25.9666 21.5333 25.735 21.606C25.5034 21.6786 25.3746 21.9252 25.4472 22.1568C26.4181 25.2515 26.4013 27.3046 26.4176 28.8848C26.4187 28.9912 26.3478 29.085 26.2451 29.113C26.1425 29.1409 26.0337 29.0959 25.9807 29.0036C24.1317 25.7791 23.8988 24.8227 22.9667 20.787C22.9667 20.787 21.1559 12.9453 21.1559 12.9452L22.4472 12.5941L23.1017 14.6803L24.8332 20.1993C24.9058 20.4309 25.1523 20.5597 25.384 20.4871C25.6156 20.4144 25.7444 20.1678 25.6717 19.9363L24.0692 14.8279C26.4904 13.8469 27.1677 10.5951 25.0948 8.78499C24.2454 8.04326 23.2932 7.41058 22.2641 6.89924L22.1922 6.63486C22.1483 6.47326 22.0672 6.32836 21.9567 6.20877C22.4003 5.55376 22.8429 4.54069 22.5206 3.35512C22.2112 2.21718 21.4505 1.77814 20.6452 1.31338C20.1567 1.03149 19.6517 0.739992 19.1644 0.255017C18.6909 -0.216013 17.9088 -0.00443308 17.7388 0.642551C17.5642 1.30752 17.2762 1.81465 16.9977 2.30507C16.5335 3.12262 15.9681 4.07405 16.567 5.44847C9.10725 5.12732 2.70361 10.538 2.70361 17.523ZM21.8111 19.6896C21.592 19.5491 21.3606 19.423 21.1164 19.3134C19.9617 18.7949 19.2994 18.1424 19.2994 17.523C19.2994 16.9335 19.8829 16.3278 20.9188 15.8253L21.8111 19.6896ZM24.5166 9.44709C26.0723 10.8056 25.5706 13.2286 23.8054 13.9874C23.3515 12.5406 23.4746 12.9329 23.2946 12.3593C23.7543 12.1834 23.9915 11.6908 23.8679 11.236L23.6609 10.4744C23.5797 10.1762 23.3546 9.93477 23.062 9.83393L22.5808 8.06424C23.2736 8.46484 23.922 8.92778 24.5166 9.44709ZM22.7404 10.6635L22.7406 10.6635C22.7688 10.6559 22.8036 10.6713 22.8127 10.705L23.0197 11.4665C23.0283 11.4979 23.0096 11.5304 22.9783 11.5389C22.3902 11.6988 20.6994 12.1584 20.1633 12.3042C20.1326 12.3128 20.0997 12.2947 20.0909 12.2628L19.8839 11.5012C19.8748 11.4676 19.8979 11.4363 19.9253 11.4288L22.7404 10.6635ZM22.1712 9.90752L20.0334 10.4887L19.2063 7.44673C19.185 7.36851 19.234 7.287 19.3096 7.26638L21.1638 6.76224C21.2358 6.7425 21.3214 6.78181 21.3441 6.86549C21.6161 7.86596 21.4253 7.16425 22.1712 9.90752ZM17.762 2.73919C18.0481 2.23552 18.3714 1.66605 18.5772 0.910497C19.1353 1.45688 19.7035 1.78476 20.2059 2.07474C20.9329 2.49433 21.4582 2.79743 21.6725 3.58586C21.9345 4.54924 21.4835 5.38923 21.1099 5.88241C21.0533 5.88751 20.9871 5.89958 20.9331 5.91423L19.0789 6.41836C19.0224 6.43371 18.9576 6.45815 18.9106 6.48035C18.1332 6.16131 17.4847 5.60263 17.2624 4.7849C17.0481 3.99648 17.3475 3.46908 17.762 2.73919Z" fill="#159557"/>
</g>
<defs>
<clipPath id="clip0_2421_12854">
<rect width="30" height="30" fill="white"/>
</clipPath>
</defs>
</svg>
