<svg width="35" height="36" viewBox="0 0 35 36" fill="none" xmlns="http://www.w3.org/2000/svg">
<path d="M33.9062 17.3896C33.9062 22.8173 29.4901 27.2334 24.0625 27.2334H5.03773L8.38791 30.2487C8.83705 30.6524 8.87337 31.344 8.46935 31.7932C8.25333 32.033 7.95506 32.1553 7.65598 32.1553C7.3951 32.1553 7.13367 32.0629 6.92459 31.8744L1.45584 26.9525C1.2254 26.7453 1.09375 26.4499 1.09375 26.1396C1.09375 25.8294 1.2254 25.534 1.45584 25.3268L6.92459 20.4049C7.3732 20.0001 8.06534 20.037 8.46935 20.4861C8.87337 20.9353 8.83705 21.6269 8.38791 22.0306L5.03773 25.0459H24.0625C28.2842 25.0459 31.7188 21.6114 31.7188 17.3896C31.7188 16.7856 32.2085 16.2959 32.8125 16.2959C33.4165 16.2959 33.9062 16.7856 33.9062 17.3896ZM2.1875 19.5771C2.79152 19.5771 3.28125 19.0874 3.28125 18.4834C3.28125 14.2617 6.71577 10.8271 10.9375 10.8271H29.9624L26.6121 13.8422C26.1629 14.2464 26.1266 14.9381 26.5309 15.3869C26.7467 15.627 27.0447 15.749 27.3443 15.749C27.6049 15.749 27.8666 15.6564 28.0754 15.4684L33.5442 10.5465C33.7749 10.339 33.9062 10.0434 33.9062 9.73339C33.9062 9.42337 33.7749 9.12777 33.5442 8.92029L28.0754 3.99842C27.6263 3.5944 26.9347 3.63098 26.5309 4.07986C26.1266 4.52873 26.1629 5.22034 26.6121 5.62462L29.9624 8.63964H10.9375C5.50961 8.63964 1.09375 13.0555 1.09375 18.4834C1.09375 19.0874 1.58348 19.5771 2.1875 19.5771Z" fill="#3B3F4A"/>
</svg>
