<svg width="30" height="31" viewBox="0 0 30 31" fill="none" xmlns="http://www.w3.org/2000/svg">
<path d="M27.8569 17.5107V19.6536C27.8569 22.0107 25.9283 23.9393 23.5712 23.9393H5.78544L8.24972 26.4036C8.67829 26.8322 8.67829 27.475 8.24972 27.9036C7.82115 28.3322 7.17829 28.3322 6.74972 27.9036L2.46401 23.6179C2.03544 23.1893 2.03544 22.5465 2.46401 22.1179L6.74972 17.8322C7.17829 17.4036 7.82115 17.4036 8.24972 17.8322C8.67829 18.2607 8.67829 18.9036 8.24972 19.3322L5.78544 21.7965H23.5712C24.7497 21.7965 25.714 20.8322 25.714 19.6536V17.5107C25.714 16.8679 26.1426 16.4393 26.7854 16.4393C27.4283 16.4393 27.8569 16.8679 27.8569 17.5107ZM3.21401 14.2965C3.85686 14.2965 4.28544 13.8679 4.28544 13.225V11.0822C4.28544 9.9036 5.24972 8.93931 6.42829 8.93931H24.214L21.7497 11.4036C21.3211 11.8322 21.3211 12.475 21.7497 12.9036C22.1783 13.3322 22.8212 13.3322 23.2497 12.9036L27.5354 8.61789C27.964 8.18931 27.964 7.54646 27.5354 7.11789L23.2497 2.83217C22.8212 2.4036 22.1783 2.4036 21.7497 2.83217C21.3211 3.26074 21.3211 3.9036 21.7497 4.33217L24.214 6.79646H6.42829C4.07115 6.79646 2.14258 8.72503 2.14258 11.0822V13.225C2.14258 13.8679 2.57115 14.2965 3.21401 14.2965Z" fill="#16BE6E"/>
</svg>
