<svg width="30" height="31" viewBox="0 0 30 31" fill="none" xmlns="http://www.w3.org/2000/svg">
<path d="M11.0932 18.765C9.89133 18.4921 9.84914 18.2081 9.85289 18.1546C9.89321 17.5612 11.1485 17.4543 11.6604 17.415C11.6604 17.8809 12.0382 18.2587 12.5041 18.2587C12.9701 18.2587 13.3479 17.8809 13.3479 17.415C13.3479 16.965 13.1623 16.5271 12.8379 16.214C12.5407 15.9262 12.1685 15.7668 11.7523 15.7556V15.6084C11.7523 15.1425 11.3745 14.7646 10.9085 14.7646C10.4426 14.7646 10.0648 15.1425 10.0648 15.6084V15.9806C8.54696 16.4268 8.21227 17.4046 8.16914 18.0393C8.08946 19.2112 8.94727 20.009 10.7191 20.4112C11.7541 20.6465 11.9745 20.9296 11.9716 21.0187C11.9557 21.644 10.3938 21.7321 10.152 21.7415C10.137 21.2887 9.76477 20.9231 9.30914 20.9231H9.30539C8.84039 20.925 8.46539 21.2981 8.46539 21.7631C8.46539 22.2178 8.64539 22.6425 8.97258 22.9593C9.26508 23.2415 9.65789 23.4037 10.0648 23.4225V23.5668C10.0648 24.0328 10.4426 24.4106 10.9085 24.4106C11.3745 24.4106 11.7523 24.0328 11.7523 23.5668V23.1965C13.4004 22.71 13.6451 21.6 13.6591 21.0628C13.6891 19.9331 12.8257 19.1587 11.0932 18.765Z" fill="#159557"/>
<path d="M28.3333 11.4117C28.3333 6.31453 24.1858 2.16797 19.0895 2.16797C14.2998 2.16797 10.412 5.72672 9.91234 10.3992C5.28391 10.8998 1.66797 14.8289 1.66797 19.5886C1.66797 24.6867 5.81547 28.8333 10.9136 28.8333C15.6733 28.8333 19.6023 25.2173 20.103 20.588C24.7745 20.0892 28.3333 16.2014 28.3333 11.4117ZM19.0886 3.85547C23.2548 3.85547 26.6448 7.24453 26.6448 11.4117C26.6448 15.2564 23.8408 18.3914 20.1227 18.8892C19.7805 14.3489 16.1514 10.7198 11.6111 10.3777C12.1089 6.65953 15.2448 3.85547 19.0886 3.85547ZM10.9127 27.1448C6.74547 27.1448 3.35453 23.7548 3.35453 19.5877C3.35453 15.4205 6.74547 12.0295 10.9127 12.0295C15.0798 12.0295 18.4698 15.4195 18.4698 19.5877C18.4698 23.7548 15.0798 27.1448 10.9127 27.1448Z" fill="#159557"/>
<path d="M2.71875 9.21262V7.93949C2.71875 6.43199 3.945 5.20574 5.4525 5.20574H6.73313L6.24563 5.69324C5.91563 6.02324 5.91563 6.55762 6.24563 6.88668C6.41063 7.05168 6.62625 7.13418 6.84188 7.13418C7.0575 7.13418 7.27313 7.05168 7.43813 6.88668L9.36656 4.95824C9.44438 4.88043 9.50625 4.78762 9.54844 4.68355C9.63375 4.4773 9.63375 4.2448 9.54844 4.03855C9.50531 3.93543 9.44438 3.84168 9.36656 3.76387L7.43906 1.83637C7.10906 1.50637 6.57563 1.50637 6.24656 1.83637C5.9175 2.16637 5.91656 2.70074 6.24656 3.0298L6.73406 3.5173H5.4525C3.01406 3.5173 1.03125 5.50105 1.03125 7.93949V9.21262C1.03125 9.67855 1.40906 10.0564 1.875 10.0564C2.34094 10.0564 2.71875 9.67855 2.71875 9.21262Z" fill="#159557"/>
<path d="M28.1251 20.9443C27.6591 20.9443 27.2813 21.3221 27.2813 21.7881V23.0612C27.2813 24.5687 26.0551 25.795 24.5485 25.795H23.267L23.7545 25.3075C24.0845 24.9775 24.0845 24.4431 23.7545 24.114C23.4245 23.785 22.8901 23.784 22.561 24.114L20.6326 26.0425C20.627 26.0481 20.626 26.0556 20.6204 26.0612C20.5501 26.1353 20.491 26.2206 20.4507 26.3171C20.3654 26.5234 20.3654 26.7568 20.4507 26.9631C20.491 27.0596 20.5501 27.144 20.6204 27.219C20.626 27.2246 20.627 27.2321 20.6326 27.2378L22.561 29.1662C22.726 29.3312 22.9416 29.4137 23.1582 29.4137C23.3748 29.4137 23.5904 29.3312 23.7554 29.1662C24.0854 28.8362 24.0854 28.3018 23.7554 27.9728L23.2679 27.4853H24.5495C26.987 27.4853 28.9707 25.5015 28.9707 23.0631V21.79C28.9688 21.3221 28.591 20.9443 28.1251 20.9443Z" fill="#159557"/>
</svg>
