<svg width="30" height="30" viewBox="0 0 30 30" fill="none" xmlns="http://www.w3.org/2000/svg">
<g clip-path="url(#clip0_4996_24816)">
<path d="M21.9976 13.2496C21.8592 13.2496 21.7237 13.2641 21.5868 13.2711C22.5066 11.9434 22.9988 10.3664 22.9973 8.75114C22.9973 4.33439 19.4168 0.753906 15.0001 0.753906C10.5833 0.753906 7.00278 4.33439 7.00278 8.75114C7.00114 10.364 7.49187 11.939 8.40931 13.2656C8.27383 13.2586 8.13888 13.2496 8.00246 13.2496C4.10134 13.2474 0.767972 16.0602 0.113939 19.9061C-0.540094 23.752 1.67621 27.5086 5.35874 28.796C9.04126 30.0835 13.1153 28.5261 15 25.1105C16.8847 28.5261 20.9588 30.0835 24.6413 28.796C28.3238 27.5086 30.5401 23.752 29.8861 19.9061C29.2321 16.0602 25.8987 13.2474 21.9976 13.2496ZM8.0024 8.75114C8.0024 4.88645 11.1353 1.75352 15 1.75352C18.8647 1.75352 21.9976 4.88645 21.9976 8.75114C21.9897 12.0491 19.6868 14.8969 16.4635 15.5948C15.5412 15.7886 14.5894 15.7953 13.6645 15.6143C12.6141 14.562 11.2938 13.82 9.84882 13.47C8.65901 12.187 7.9993 10.501 8.0024 8.75114ZM15.0025 17.3882C14.8766 17.1607 14.7421 16.9383 14.5957 16.7274C14.7306 16.7339 14.8641 16.7484 15 16.7484C15.136 16.7484 15.2749 16.7339 15.4129 16.7269C15.2651 16.9404 15.1282 17.161 15.0025 17.3882ZM8.0024 28.2444C4.48939 28.2465 1.5193 25.6437 1.06049 22.1608C0.601681 18.6779 2.79632 15.3946 6.19001 14.4869C9.58371 13.5792 13.1244 15.3284 14.4656 18.5753C13.8452 20.3025 13.8452 22.1917 14.4656 23.919C13.3765 26.5288 10.8304 28.2327 8.0024 28.2444ZM21.9976 28.2444C19.1057 28.2335 16.5148 26.4545 15.4658 23.7595C14.5054 21.2844 15.0401 18.4783 16.8434 16.5299C18.2947 16.1888 19.6197 15.4436 20.6651 14.3807C21.104 14.2938 21.5502 14.2498 21.9976 14.2493C25.8623 14.2493 28.9952 17.3822 28.9952 21.2469C28.9952 25.1116 25.8623 28.2444 21.9976 28.2444Z" fill="#159557"/>
<path d="M10.0022 19.2477C10.0022 19.5237 10.226 19.7475 10.502 19.7475C10.7781 19.7475 11.0018 19.5237 11.0018 19.2477C11.0018 18.0121 9.9187 16.9854 8.50268 16.786V15.7488C8.50268 15.4728 8.27887 15.249 8.00288 15.249C7.72682 15.249 7.50307 15.4728 7.50307 15.7488V16.786C6.08705 16.9859 5.00391 18.0121 5.00391 19.2477C5.00391 20.4832 6.08705 21.5099 7.50307 21.7093V24.6928C6.64338 24.5249 6.00358 23.943 6.00358 23.2463C6.00358 22.9703 5.77977 22.7465 5.50377 22.7465C5.22772 22.7465 5.00396 22.9703 5.00396 23.2463C5.00396 24.4819 6.08711 25.5085 7.50313 25.708V26.7451C7.50313 27.0212 7.72693 27.245 8.00293 27.245C8.27899 27.245 8.50274 27.0212 8.50274 26.7451V25.708C9.91876 25.5081 11.0019 24.4819 11.0019 23.2463C11.0019 22.0108 9.91876 20.9841 8.50274 20.7846V17.8012C9.36243 17.9691 10.0022 18.5509 10.0022 19.2477ZM6.00358 19.2477C6.00358 18.5509 6.64338 17.9691 7.50307 17.8012V20.6942C6.64338 20.5262 6.00358 19.9445 6.00358 19.2477ZM10.0022 23.2463C10.0022 23.943 9.36243 24.5249 8.50274 24.6928V21.7998C9.36243 21.9678 10.0022 22.5495 10.0022 23.2463Z" fill="#159557"/>
<path d="M22.4972 17.7477C23.4352 17.7646 24.3036 18.2459 24.8154 19.0322C24.9727 19.2592 25.2842 19.3156 25.5111 19.1582C25.738 19.0008 25.7944 18.6894 25.6371 18.4624C24.9401 17.405 23.7635 16.7626 22.4972 16.748C20.7214 16.817 19.1964 18.0317 18.7319 19.747H17.4988C17.2228 19.747 16.999 19.9708 16.999 20.2468C16.999 20.5229 17.2228 20.7466 17.4988 20.7466H18.5245C18.5085 20.911 18.4984 21.0775 18.4984 21.2464C18.4984 21.4154 18.5085 21.5818 18.5245 21.7463H17.4988C17.2228 21.7463 16.999 21.97 16.999 22.2461C16.999 22.5221 17.2228 22.7459 17.4988 22.7459H18.7319C19.1964 24.4612 20.7214 25.6759 22.4972 25.7448C23.7636 25.7303 24.9401 25.0879 25.6371 24.0304C25.7944 23.8035 25.738 23.492 25.5111 23.3347C25.2842 23.1774 24.9727 23.2337 24.8154 23.4606C24.3037 24.2469 23.4352 24.7282 22.4972 24.7452C21.272 24.693 20.2013 23.9018 19.7916 22.7459H22.4972C22.7732 22.7459 22.997 22.5221 22.997 22.2461C22.997 21.9701 22.7732 21.7463 22.4972 21.7463H19.5322C19.4868 21.4146 19.4868 21.0783 19.5322 20.7466H22.4972C22.7732 20.7466 22.997 20.5229 22.997 20.2468C22.997 19.9708 22.7732 19.747 22.4972 19.747H19.7916C20.2013 18.5911 21.272 17.8 22.4972 17.7477Z" fill="#159557"/>
<path d="M14.7661 12.75C15.8586 13.3279 17.1673 13.3231 18.2554 12.737C18.4928 12.5959 18.5709 12.2891 18.4299 12.0517C18.2888 11.8143 17.982 11.7362 17.7446 11.8773C16.9568 12.2884 16.0169 12.284 15.233 11.8658C14.4892 11.4106 13.5786 11.3186 12.7588 11.6159C12.8897 10.8339 12.9668 10.0438 12.9897 9.2512H15.9992C16.2752 9.2512 16.499 9.02739 16.499 8.75139C16.499 8.47533 16.2752 8.25158 15.9992 8.25158H13.0002V7.0575C13.0002 5.81527 14.0072 4.80827 15.2494 4.80827C16.4917 4.80827 17.4986 5.81527 17.4986 7.0575C17.4986 7.33355 17.7224 7.5573 17.9985 7.5573C18.2745 7.5573 18.4983 7.3335 18.4983 7.0575C18.4983 5.26321 17.0437 3.80859 15.2494 3.80859C13.455 3.80859 12.0005 5.26315 12.0005 7.0575V8.25158H11.0008C10.7247 8.25158 10.501 8.47539 10.501 8.75139C10.501 9.02744 10.7248 9.2512 11.0008 9.2512H11.9849C11.9499 10.4092 11.7925 11.5602 11.5151 12.685C11.478 12.8343 11.5118 12.9924 11.6066 13.1135C11.7013 13.2346 11.8466 13.3054 12.0005 13.3053C12.0198 13.3054 12.0392 13.3043 12.0584 13.3018C12.2089 13.2805 12.3441 13.1985 12.4323 13.0749C13.0462 12.3501 13.8094 12.2431 14.7661 12.75Z" fill="#159557"/>
</g>
<defs>
<clipPath id="clip0_4996_24816">
<rect width="30" height="30" fill="white"/>
</clipPath>
</defs>
</svg>
