<svg width="60" height="61" viewBox="0 0 60 61" fill="none" xmlns="http://www.w3.org/2000/svg">
<path d="M27.5166 37.0625H13.125C12.6066 37.0625 12.1875 36.6425 12.1875 36.125C12.1875 35.6075 12.6066 35.1875 13.125 35.1875H27.5166C28.035 35.1875 28.4541 35.6075 28.4541 36.125C28.4541 36.6425 28.0341 37.0625 27.5166 37.0625Z" fill="#5C6271"/>
<path d="M27.5166 25.8125H13.125C12.6066 25.8125 12.1875 25.3925 12.1875 24.875C12.1875 24.3575 12.6066 23.9375 13.125 23.9375H27.5166C28.035 23.9375 28.4541 24.3575 28.4541 24.875C28.4541 25.3925 28.0341 25.8125 27.5166 25.8125Z" fill="#5C6271"/>
<path d="M26.25 31.4375H7.5C6.98156 31.4375 6.5625 31.0175 6.5625 30.5C6.5625 29.9825 6.98156 29.5625 7.5 29.5625H26.25C26.7684 29.5625 27.1875 29.9825 27.1875 30.5C27.1875 31.0175 26.7684 31.4375 26.25 31.4375Z" fill="#5C6271"/>
<path d="M35.625 34.158C33.7622 34.158 31.875 32.9018 31.875 30.4999C31.875 28.098 33.7622 26.8418 35.625 26.8418C37.4878 26.8418 39.375 28.098 39.375 30.4999C39.375 32.9018 37.4878 34.158 35.625 34.158ZM35.625 28.7168C34.7597 28.7168 33.75 29.1837 33.75 30.4999C33.75 31.8162 34.7597 32.283 35.625 32.283C36.4903 32.283 37.5 31.8162 37.5 30.4999C37.5 29.1837 36.4903 28.7168 35.625 28.7168Z" fill="#159557"/>
<path d="M37.6134 29.4492C37.3734 29.4492 37.1334 29.3573 36.9506 29.1745C36.584 28.8079 36.584 28.2154 36.9506 27.8489L42.254 22.5454C42.6206 22.1789 43.2131 22.1789 43.5796 22.5454C43.9462 22.912 43.9462 23.5045 43.5796 23.8711L38.2762 29.1745C38.0934 29.3573 37.8534 29.4492 37.6134 29.4492Z" fill="#159557"/>
<path d="M32.3109 34.7526C32.0709 34.7526 31.8309 34.6607 31.6481 34.4779C31.2815 34.1123 31.2815 33.5188 31.6481 33.1523L32.9737 31.8257C33.3403 31.4591 33.9328 31.4591 34.2993 31.8257C34.6659 32.1913 34.6659 32.7848 34.2993 33.1513L32.9737 34.4779C32.7909 34.6607 32.5509 34.7526 32.3109 34.7526Z" fill="#159557"/>
<path d="M35.625 48.3125C35.1066 48.3125 34.6875 47.8925 34.6875 47.375V44.5625C34.6875 44.045 35.1066 43.625 35.625 43.625C36.1434 43.625 36.5625 44.045 36.5625 44.5625V47.375C36.5625 47.8925 36.1434 48.3125 35.625 48.3125Z" fill="#5C6271"/>
<path d="M47.5575 43.3705C47.3175 43.3705 47.0775 43.2786 46.8947 43.0958L44.9063 41.1064C44.5397 40.7398 44.5397 40.1464 44.9063 39.7808C45.2728 39.4142 45.8653 39.4142 46.2319 39.7808L48.2203 41.7702C48.5869 42.1367 48.5869 42.7302 48.2203 43.0958C48.0366 43.2786 47.7966 43.3705 47.5575 43.3705Z" fill="#5C6271"/>
<path d="M45.5681 21.4945C45.3281 21.4945 45.0881 21.4026 44.9053 21.2198C44.5387 20.8542 44.5387 20.2607 44.9053 19.8942L46.8937 17.9048C47.2603 17.5382 47.8528 17.5382 48.2194 17.9048C48.5859 18.2704 48.5859 18.8639 48.2194 19.2304L46.2309 21.2198C46.0481 21.4026 45.8081 21.4945 45.5681 21.4945Z" fill="#5C6271"/>
<path d="M35.625 17.375C35.1066 17.375 34.6875 16.955 34.6875 16.4375V13.625C34.6875 13.1075 35.1066 12.6875 35.625 12.6875C36.1434 12.6875 36.5625 13.1075 36.5625 13.625V16.4375C36.5625 16.955 36.1434 17.375 35.625 17.375Z" fill="#5C6271"/>
<path d="M52.5 31.4375H49.6875C49.1691 31.4375 48.75 31.0175 48.75 30.5C48.75 29.9825 49.1691 29.5625 49.6875 29.5625H52.5C53.0184 29.5625 53.4375 29.9825 53.4375 30.5C53.4375 31.0175 53.0184 31.4375 52.5 31.4375Z" fill="#5C6271"/>
<path d="M28.8647 20.1875H18.75C18.2316 20.1875 17.8125 19.7675 17.8125 19.25C17.8125 18.7325 18.2316 18.3125 18.75 18.3125H28.8647C29.3831 18.3125 29.8022 18.7325 29.8022 19.25C29.8022 19.7675 29.3831 20.1875 28.8647 20.1875Z" fill="#5C6271"/>
<path d="M28.8647 42.6875H18.75C18.2316 42.6875 17.8125 42.2675 17.8125 41.75C17.8125 41.2325 18.2316 40.8125 18.75 40.8125H28.8647C29.3831 40.8125 29.8022 41.2325 29.8022 41.75C29.8022 42.2675 29.3831 42.6875 28.8647 42.6875Z" fill="#5C6271"/>
<path d="M35.5669 48.2949C32.819 48.2949 30.0431 47.6621 27.465 46.3336C27.0047 46.0965 26.8237 45.5311 27.0609 45.0708C27.2981 44.6105 27.8644 44.4296 28.3237 44.6668C35.6775 48.4561 44.8378 45.9174 49.1784 38.8871C53.5312 31.8361 51.7097 22.4996 45.0319 17.6311C40.1953 14.1061 33.6365 13.5961 28.3237 16.3327C27.8644 16.5699 27.2981 16.3899 27.0609 15.9286C26.8237 15.4683 27.0037 14.903 27.465 14.6658C33.4022 11.6058 40.7297 12.1749 46.1362 16.1152C53.6006 21.5565 55.6378 31.9918 50.7731 39.8715C47.444 45.2658 41.5762 48.2949 35.5669 48.2949Z" fill="#159557"/>
</svg>
