<svg width="79" height="19" viewBox="0 0 79 19" fill="none" xmlns="http://www.w3.org/2000/svg">
<g clip-path="url(#clip0_5135_38079)">
<path d="M1.6279 16.9262V16.3939C2.07533 16.363 2.39933 16.2473 2.5999 16.0467C2.80048 15.8462 2.90076 15.3679 2.90076 14.6119V3.85045C2.90076 3.09445 2.78505 2.61617 2.55362 2.4156C2.33762 2.1996 1.91333 2.08388 1.28076 2.06845V1.53617H2.90076C3.74933 1.53617 4.61333 1.52074 5.49276 1.48988C6.37219 1.44359 7.28247 1.42045 8.22362 1.42045C9.98247 1.42045 11.5408 1.66731 12.8985 2.16102C14.2562 2.63931 15.3208 3.41845 16.0922 4.49845C16.8636 5.56302 17.2493 6.98245 17.2493 8.75674C17.2493 10.1762 16.9948 11.4027 16.4856 12.4365C15.9765 13.4702 15.2976 14.3187 14.449 14.9822C13.6005 15.6456 12.6593 16.1393 11.6256 16.4633C10.5919 16.7719 9.55047 16.9262 8.50133 16.9262H1.6279ZM7.99219 15.931C9.18019 15.931 10.1445 15.6379 10.885 15.0516C11.641 14.4499 12.1965 13.6322 12.5513 12.5985C12.9062 11.5647 13.0836 10.3999 13.0836 9.10388C13.0836 7.51474 12.8676 6.23417 12.4356 5.26217C12.019 4.27474 11.4482 3.55731 10.723 3.10988C9.9979 2.64702 9.16476 2.4156 8.22362 2.4156C7.60647 2.4156 7.18219 2.50817 6.95076 2.69331C6.71933 2.86302 6.60362 3.24874 6.60362 3.85045V14.6119C6.60362 15.1519 6.68847 15.5067 6.85819 15.6765C7.04333 15.8462 7.42133 15.931 7.99219 15.931ZM23.9843 14.3805C23.9843 14.9513 24.0229 15.3833 24.1 15.6765C24.1771 15.9542 24.316 16.1393 24.5166 16.2319C24.7171 16.3245 25.0026 16.3785 25.3729 16.3939V16.9262H19.4714V16.3939C19.7337 16.3785 19.942 16.3245 20.0963 16.2319C20.2506 16.1393 20.3586 15.9542 20.4203 15.6765C20.482 15.3833 20.5129 14.9513 20.5129 14.3805V9.0576C20.5129 8.82617 20.4666 8.67188 20.374 8.59474C20.2969 8.5176 20.1734 8.47902 20.0037 8.47902C19.8803 8.47902 19.7414 8.49445 19.5871 8.52531C19.4483 8.55617 19.294 8.60245 19.1243 8.66417L18.8929 8.13188L23.938 5.79445L24.0769 5.93331C24.0614 6.16474 24.0383 6.52731 24.0074 7.02102C23.992 7.49931 23.9843 8.10874 23.9843 8.84931V14.3805ZM22.3643 4.66045C21.7934 4.66045 21.3151 4.4676 20.9294 4.08188C20.5437 3.68074 20.3509 3.21017 20.3509 2.67017C20.3509 2.13017 20.5437 1.6596 20.9294 1.25845C21.3151 0.85731 21.7934 0.656738 22.3643 0.656738C22.9197 0.656738 23.3903 0.85731 23.776 1.25845C24.1617 1.6596 24.3546 2.13017 24.3546 2.67017C24.3546 3.21017 24.1617 3.68074 23.776 4.08188C23.3903 4.4676 22.9197 4.66045 22.3643 4.66045ZM34.9865 17.2733C33.5362 17.2733 32.2248 16.957 31.0522 16.3245C29.8797 15.6765 28.954 14.7662 28.2751 13.5936C27.5962 12.421 27.2568 11.0556 27.2568 9.49731C27.2568 8.15502 27.4882 6.96702 27.9511 5.93331C28.414 4.8996 29.0465 4.0356 29.8488 3.34131C30.6665 2.6316 31.6 2.09931 32.6491 1.74445C33.7137 1.37417 34.8477 1.18902 36.0511 1.18902C36.8688 1.18902 37.6942 1.27388 38.5274 1.44359C39.3605 1.61331 40.0702 1.81388 40.6565 2.04531V5.58617H40.1242C39.8157 4.69131 39.4454 4.00474 39.0134 3.52645C38.5814 3.03274 38.1031 2.6856 37.5785 2.48502C37.054 2.28445 36.4985 2.18417 35.9122 2.18417C34.3231 2.18417 33.1737 2.7396 32.464 3.85045C31.7697 4.96131 31.4225 6.55045 31.4225 8.61788C31.4225 10.1145 31.5845 11.4413 31.9085 12.5985C32.248 13.7556 32.7262 14.6582 33.3434 15.3062C33.976 15.9542 34.7397 16.2782 35.6345 16.2782C35.9894 16.2782 36.3751 16.2396 36.7917 16.1625C37.2237 16.0699 37.5554 15.8307 37.7868 15.445C37.9565 15.1673 38.0491 14.8202 38.0645 14.4036C38.0954 13.987 38.1108 13.5087 38.1108 12.9687C38.1108 12.1047 38.0645 11.4799 37.972 11.0942C37.8948 10.693 37.7328 10.4385 37.486 10.3305C37.2391 10.207 36.8688 10.1299 36.3751 10.099V9.56674H42.1608V10.099C41.9448 10.1145 41.7905 10.1993 41.6979 10.3536C41.6208 10.5079 41.5822 10.7856 41.5822 11.1867V12.529C41.5822 12.9456 41.59 13.339 41.6054 13.7093C41.6208 14.0796 41.6748 14.4653 41.7674 14.8665C41.5205 15.1133 41.0885 15.4296 40.4714 15.8153C39.8542 16.1856 39.0751 16.525 38.1339 16.8336C37.2082 17.1267 36.1591 17.2733 34.9865 17.2733ZM48.4379 14.3805C48.4379 14.9513 48.4765 15.3833 48.5536 15.6765C48.6308 15.9542 48.7696 16.1393 48.9702 16.2319C49.1708 16.3245 49.4562 16.3785 49.8265 16.3939V16.9262H43.9251V16.3939C44.1874 16.3785 44.3956 16.3245 44.5499 16.2319C44.7042 16.1393 44.8122 15.9542 44.8739 15.6765C44.9356 15.3833 44.9665 14.9513 44.9665 14.3805V9.0576C44.9665 8.82617 44.9202 8.67188 44.8276 8.59474C44.7505 8.5176 44.6271 8.47902 44.4574 8.47902C44.3339 8.47902 44.1951 8.49445 44.0408 8.52531C43.9019 8.55617 43.7476 8.60245 43.5779 8.66417L43.3465 8.13188L48.3916 5.79445L48.5305 5.93331C48.5151 6.16474 48.4919 6.52731 48.4611 7.02102C48.4456 7.49931 48.4379 8.10874 48.4379 8.84931V14.3805ZM46.8179 4.66045C46.2471 4.66045 45.7688 4.4676 45.3831 4.08188C44.9974 3.68074 44.8045 3.21017 44.8045 2.67017C44.8045 2.13017 44.9974 1.6596 45.3831 1.25845C45.7688 0.85731 46.2471 0.656738 46.8179 0.656738C47.3733 0.656738 47.8439 0.85731 48.2296 1.25845C48.6153 1.6596 48.8082 2.13017 48.8082 2.67017C48.8082 3.21017 48.6153 3.68074 48.2296 4.08188C47.8439 4.4676 47.3733 4.66045 46.8179 4.66045ZM50.2053 1.53617H63.3967V5.35474H62.8644C62.7718 4.5216 62.525 3.84274 62.1238 3.31817C61.7227 2.7936 61.0361 2.53131 60.0641 2.53131H58.6524V14.6119C58.6524 15.3679 58.7681 15.8462 58.9995 16.0467C59.231 16.2473 59.6553 16.363 60.2724 16.3939V16.9262H53.6767V16.3939C54.1241 16.363 54.4481 16.2473 54.6487 16.0467C54.8493 15.8462 54.9495 15.3679 54.9495 14.6119V2.53131H53.5147C52.5735 2.53131 51.8947 2.7936 51.4781 3.31817C51.077 3.84274 50.8301 4.5216 50.7375 5.35474H50.2053V1.53617Z" fill="black"/>
<path d="M78.0715 9.85484C78.0715 6.30444 75.1933 3.42627 71.6429 3.42627C68.0925 3.42627 65.2144 6.30444 65.2144 9.85484C65.2144 13.4052 68.0925 16.2834 71.6429 16.2834C75.1933 16.2834 78.0715 13.4052 78.0715 9.85484Z" stroke="black"/>
<path d="M71.8321 14.355C71.2937 14.355 70.8791 14.2006 70.5879 13.8917C70.2967 13.574 70.1952 13.0932 70.2834 12.4491L70.8394 8.46528L70.7071 8.33293H69.7144L69.7806 7.86968C70.407 7.75498 70.9762 7.48145 71.4879 7.0491C72.0085 6.61674 72.3835 6.05204 72.6129 5.35498H73.0761L72.7188 7.86968H74.3996L74.3334 8.33293H72.7717L72.6394 8.46528L72.0306 12.8462C72.0041 13.0226 72.0217 13.177 72.0834 13.3094C72.154 13.4329 72.2599 13.4947 72.4011 13.4947C72.5423 13.4947 72.7011 13.4241 72.8776 13.283C73.054 13.1329 73.2084 12.9432 73.3408 12.7138L73.7379 12.952C73.4996 13.4461 73.2129 13.8035 72.8776 14.024C72.5512 14.2447 72.2026 14.355 71.8321 14.355Z" fill="black"/>
</g>
<defs>
<clipPath id="clip0_5135_38079">
<rect width="78.4286" height="18" fill="white" transform="translate(0.285645 0.211914)"/>
</clipPath>
</defs>
</svg>
