<svg width="79" height="19" viewBox="0 0 79 19" fill="none" xmlns="http://www.w3.org/2000/svg">
<g clip-path="url(#clip0_5135_25051)">
<path d="M1.62839 16.9262V16.3939C2.07582 16.363 2.39982 16.2473 2.60039 16.0467C2.80096 15.8462 2.90125 15.3679 2.90125 14.6119V3.85045C2.90125 3.09445 2.78554 2.61617 2.55411 2.4156C2.33811 2.1996 1.91382 2.08388 1.28125 2.06845V1.53617H2.90125C3.74982 1.53617 4.61382 1.52074 5.49325 1.48988C6.37268 1.44359 7.28296 1.42045 8.2241 1.42045C9.98296 1.42045 11.5412 1.66731 12.899 2.16102C14.2567 2.63931 15.3212 3.41845 16.0927 4.49845C16.8641 5.56302 17.2498 6.98245 17.2498 8.75674C17.2498 10.1762 16.9952 11.4027 16.4861 12.4365C15.977 13.4702 15.2981 14.3187 14.4495 14.9822C13.601 15.6456 12.6598 16.1393 11.6261 16.4633C10.5924 16.7719 9.55096 16.9262 8.50182 16.9262H1.62839ZM7.99268 15.931C9.18068 15.931 10.145 15.6379 10.8855 15.0516C11.6415 14.4499 12.197 13.6322 12.5518 12.5985C12.9067 11.5647 13.0841 10.3999 13.0841 9.10388C13.0841 7.51474 12.8681 6.23417 12.4361 5.26217C12.0195 4.27474 11.4487 3.55731 10.7235 3.10988C9.99839 2.64702 9.16525 2.4156 8.2241 2.4156C7.60696 2.4156 7.18268 2.50817 6.95125 2.69331C6.71982 2.86302 6.60411 3.24874 6.60411 3.85045V14.6119C6.60411 15.1519 6.68896 15.5067 6.85868 15.6765C7.04382 15.8462 7.42182 15.931 7.99268 15.931ZM23.9848 14.3805C23.9848 14.9513 24.0233 15.3833 24.1005 15.6765C24.1776 15.9542 24.3165 16.1393 24.5171 16.2319C24.7176 16.3245 25.0031 16.3785 25.3733 16.3939V16.9262H19.4719V16.3939C19.7342 16.3785 19.9425 16.3245 20.0968 16.2319C20.2511 16.1393 20.3591 15.9542 20.4208 15.6765C20.4825 15.3833 20.5133 14.9513 20.5133 14.3805V9.0576C20.5133 8.82617 20.4671 8.67188 20.3745 8.59474C20.2973 8.5176 20.1739 8.47902 20.0042 8.47902C19.8808 8.47902 19.7419 8.49445 19.5876 8.52531C19.4488 8.55617 19.2945 8.60245 19.1248 8.66417L18.8933 8.13188L23.9385 5.79445L24.0773 5.93331C24.0619 6.16474 24.0388 6.52731 24.0079 7.02102C23.9925 7.49931 23.9848 8.10874 23.9848 8.84931V14.3805ZM22.3648 4.66045C21.7939 4.66045 21.3156 4.4676 20.9299 4.08188C20.5442 3.68074 20.3513 3.21017 20.3513 2.67017C20.3513 2.13017 20.5442 1.6596 20.9299 1.25845C21.3156 0.85731 21.7939 0.656738 22.3648 0.656738C22.9202 0.656738 23.3908 0.85731 23.7765 1.25845C24.1622 1.6596 24.3551 2.13017 24.3551 2.67017C24.3551 3.21017 24.1622 3.68074 23.7765 4.08188C23.3908 4.4676 22.9202 4.66045 22.3648 4.66045ZM34.987 17.2733C33.5367 17.2733 32.2253 16.957 31.0527 16.3245C29.8802 15.6765 28.9544 14.7662 28.2756 13.5936C27.5967 12.421 27.2573 11.0556 27.2573 9.49731C27.2573 8.15502 27.4887 6.96702 27.9516 5.93331C28.4144 4.8996 29.047 4.0356 29.8493 3.34131C30.667 2.6316 31.6004 2.09931 32.6496 1.74445C33.7142 1.37417 34.8482 1.18902 36.0516 1.18902C36.8693 1.18902 37.6947 1.27388 38.5279 1.44359C39.361 1.61331 40.0707 1.81388 40.657 2.04531V5.58617H40.1247C39.8162 4.69131 39.4459 4.00474 39.0139 3.52645C38.5819 3.03274 38.1036 2.6856 37.579 2.48502C37.0544 2.28445 36.499 2.18417 35.9127 2.18417C34.3236 2.18417 33.1742 2.7396 32.4644 3.85045C31.7702 4.96131 31.423 6.55045 31.423 8.61788C31.423 10.1145 31.585 11.4413 31.909 12.5985C32.2484 13.7556 32.7267 14.6582 33.3439 15.3062C33.9764 15.9542 34.7402 16.2782 35.635 16.2782C35.9899 16.2782 36.3756 16.2396 36.7922 16.1625C37.2242 16.0699 37.5559 15.8307 37.7873 15.445C37.957 15.1673 38.0496 14.8202 38.065 14.4036C38.0959 13.987 38.1113 13.5087 38.1113 12.9687C38.1113 12.1047 38.065 11.4799 37.9724 11.0942C37.8953 10.693 37.7333 10.4385 37.4864 10.3305C37.2396 10.207 36.8693 10.1299 36.3756 10.099V9.56674H42.1613V10.099C41.9453 10.1145 41.791 10.1993 41.6984 10.3536C41.6213 10.5079 41.5827 10.7856 41.5827 11.1867V12.529C41.5827 12.9456 41.5904 13.339 41.6059 13.7093C41.6213 14.0796 41.6753 14.4653 41.7679 14.8665C41.521 15.1133 41.089 15.4296 40.4719 15.8153C39.8547 16.1856 39.0756 16.525 38.1344 16.8336C37.2087 17.1267 36.1596 17.2733 34.987 17.2733ZM48.4384 14.3805C48.4384 14.9513 48.477 15.3833 48.5541 15.6765C48.6313 15.9542 48.7701 16.1393 48.9707 16.2319C49.1713 16.3245 49.4567 16.3785 49.827 16.3939V16.9262H43.9256V16.3939C44.1878 16.3785 44.3961 16.3245 44.5504 16.2319C44.7047 16.1393 44.8127 15.9542 44.8744 15.6765C44.9361 15.3833 44.967 14.9513 44.967 14.3805V9.0576C44.967 8.82617 44.9207 8.67188 44.8281 8.59474C44.751 8.5176 44.6276 8.47902 44.4578 8.47902C44.3344 8.47902 44.1956 8.49445 44.0413 8.52531C43.9024 8.55617 43.7481 8.60245 43.5784 8.66417L43.347 8.13188L48.3921 5.79445L48.531 5.93331C48.5156 6.16474 48.4924 6.52731 48.4616 7.02102C48.4461 7.49931 48.4384 8.10874 48.4384 8.84931V14.3805ZM46.8184 4.66045C46.2476 4.66045 45.7693 4.4676 45.3836 4.08188C44.9978 3.68074 44.805 3.21017 44.805 2.67017C44.805 2.13017 44.9978 1.6596 45.3836 1.25845C45.7693 0.85731 46.2476 0.656738 46.8184 0.656738C47.3738 0.656738 47.8444 0.85731 48.2301 1.25845C48.6158 1.6596 48.8087 2.13017 48.8087 2.67017C48.8087 3.21017 48.6158 3.68074 48.2301 4.08188C47.8444 4.4676 47.3738 4.66045 46.8184 4.66045ZM50.2058 1.53617H63.3972V5.35474H62.8649C62.7723 4.5216 62.5255 3.84274 62.1243 3.31817C61.7232 2.7936 61.0366 2.53131 60.0646 2.53131H58.6529V14.6119C58.6529 15.3679 58.7686 15.8462 59 16.0467C59.2315 16.2473 59.6557 16.363 60.2729 16.3939V16.9262H53.6772V16.3939C54.1246 16.363 54.4486 16.2473 54.6492 16.0467C54.8498 15.8462 54.95 15.3679 54.95 14.6119V2.53131H53.5152C52.574 2.53131 51.8952 2.7936 51.4786 3.31817C51.0775 3.84274 50.8306 4.5216 50.738 5.35474H50.2058V1.53617Z" fill="#CBD1DA"/>
<path d="M78.072 9.85484C78.072 6.30444 75.1938 3.42627 71.6434 3.42627C68.093 3.42627 65.2148 6.30444 65.2148 9.85484C65.2148 13.4052 68.093 16.2834 71.6434 16.2834C75.1938 16.2834 78.072 13.4052 78.072 9.85484Z" stroke="#CBD1DA"/>
<path d="M71.8325 14.355C71.2942 14.355 70.8796 14.2006 70.5884 13.8917C70.2971 13.574 70.1957 13.0932 70.2839 12.4491L70.8398 8.46528L70.7075 8.33293H69.7148L69.7811 7.86968C70.4075 7.75498 70.9766 7.48145 71.4884 7.0491C72.0089 6.61674 72.384 6.05204 72.6134 5.35498H73.0766L72.7193 7.86968H74.4001L74.3339 8.33293H72.7721L72.6398 8.46528L72.0311 12.8462C72.0046 13.0226 72.0222 13.177 72.0839 13.3094C72.1545 13.4329 72.2604 13.4947 72.4016 13.4947C72.5428 13.4947 72.7016 13.4241 72.8781 13.283C73.0545 13.1329 73.2089 12.9432 73.3413 12.7138L73.7384 12.952C73.5001 13.4461 73.2134 13.8035 72.8781 14.024C72.5516 14.2447 72.2031 14.355 71.8325 14.355Z" fill="#CBD1DA"/>
</g>
<defs>
<clipPath id="clip0_5135_25051">
<rect width="78.4286" height="18" fill="white" transform="translate(0.286133 0.211914)"/>
</clipPath>
</defs>
</svg>
