<svg width="26" height="25" viewBox="0 0 26 25" fill="none" xmlns="http://www.w3.org/2000/svg">
<path d="M24.5279 3.90643H22.288L17.538 1.19236C17.2918 1.05137 17.0178 0.965802 16.7351 0.941648C16.4524 0.917494 16.1679 0.955333 15.9013 1.05252L13.3134 1.99236C12.9839 2.11297 12.6928 2.31992 12.4706 2.59157C12.2484 2.86322 12.1033 3.18958 12.0505 3.53651C10.8138 2.98533 9.40247 2.91932 8.41029 3.79666C8.07519 4.07837 7.80577 4.42997 7.62094 4.82682C7.43611 5.22367 7.34033 5.65615 7.34033 6.09393C7.34033 6.53171 7.43611 6.96419 7.62094 7.36103C7.80577 7.75788 8.07519 8.10949 8.41029 8.39119L12.9415 12.4006C13.013 12.4638 13.1051 12.4988 13.2005 12.4988C13.2959 12.4988 13.3881 12.4638 13.4595 12.4006L15.1197 10.931C15.1314 10.931 18.2591 10.9361 18.2591 10.9361H20.6216C20.6822 10.9362 20.742 10.9221 20.7962 10.8951L22.2763 10.1564H24.5279C24.6315 10.1564 24.7308 10.1153 24.8041 10.042C24.8773 9.96876 24.9185 9.8694 24.9185 9.7658V4.29705C24.9185 4.19345 24.8773 4.09409 24.8041 4.02084C24.7308 3.94758 24.6315 3.90643 24.5279 3.90643ZM13.1997 11.5881L8.92826 7.8076C8.67596 7.59928 8.47282 7.33778 8.33337 7.0418C8.19392 6.74582 8.12161 6.42268 8.12161 6.09549C8.12161 5.7683 8.19392 5.44516 8.33337 5.14918C8.47282 4.8532 8.67596 4.5917 8.92826 4.38338C9.99505 3.43963 11.7919 4.01112 12.9408 5.02791C13.0122 5.09118 13.1043 5.12611 13.1997 5.12611C13.2952 5.12611 13.3873 5.09118 13.4587 5.02791C14.6076 4.01229 16.404 3.43885 17.4712 4.38338C17.8427 4.69115 18.1036 5.11179 18.2141 5.58136C18.3247 6.05094 18.2789 6.54377 18.0837 6.98494L17.3845 7.42205H15.1919L12.7513 6.93377C12.3517 6.85318 11.9364 6.92977 11.5918 7.1476C11.2472 7.36543 10.9999 7.70773 10.9012 8.10329C10.8026 8.49885 10.8603 8.9172 11.0623 9.27131C11.2643 9.62542 11.595 9.88802 11.9857 10.0045L14.2286 10.6775L13.1997 11.5881ZM24.1372 9.37518H22.1841C22.1235 9.37512 22.0637 9.38916 22.0095 9.41619L20.5294 10.1564H15.2099L12.2095 9.25799C12.0114 9.19908 11.8436 9.06603 11.7412 8.88654C11.6387 8.70705 11.6094 8.49496 11.6594 8.29441C11.7094 8.09386 11.8348 7.92032 12.0095 7.80992C12.1842 7.69953 12.3948 7.66077 12.5974 7.70174L15.0747 8.19549C15.1005 8.20071 15.1266 8.20333 15.1529 8.2033H17.4966C17.5698 8.2033 17.6416 8.18273 17.7036 8.14393L20.8286 6.1908C20.8722 6.16361 20.9101 6.12811 20.9399 6.0863C20.9698 6.0445 20.9912 5.99722 21.0028 5.94716C21.0144 5.8971 21.016 5.84525 21.0076 5.79456C20.9992 5.74387 20.9808 5.69534 20.9536 5.65174C20.9265 5.60814 20.8909 5.57032 20.8491 5.54044C20.8073 5.51056 20.7601 5.4892 20.71 5.4776C20.6599 5.46599 20.6081 5.46435 20.5574 5.47279C20.5067 5.48122 20.4582 5.49955 20.4146 5.52674L19.0474 6.38182C19.0912 5.89775 19.0181 5.41024 18.8341 4.96034C18.6502 4.51045 18.3608 4.11135 17.9904 3.79666C16.6697 2.63065 14.606 3.13338 13.1997 4.22791C13.0747 4.13065 12.9435 4.04002 12.8091 3.95447V3.8283C12.8096 3.58782 12.8838 3.35326 13.0217 3.15628C13.1597 2.9593 13.3548 2.80938 13.5806 2.72674L16.1685 1.78651C16.3284 1.72814 16.499 1.70542 16.6686 1.71993C16.8382 1.73443 17.0025 1.78582 17.1501 1.87049L21.9888 4.63611C22.0483 4.67013 22.1156 4.68791 22.1841 4.68768H24.1372V9.37518Z" fill="#159557"/>
<path d="M21.2716 13.3801C21.2001 13.3165 21.1078 13.2813 21.0122 13.2812H5.38721C5.29157 13.2813 5.19928 13.3165 5.12783 13.3801L1.61221 16.5051C1.57097 16.5417 1.53796 16.5866 1.51534 16.6369C1.49271 16.6872 1.481 16.7417 1.48096 16.7969V23.8281C1.48096 23.9317 1.52211 24.0311 1.59537 24.1043C1.66862 24.1776 1.76798 24.2188 1.87158 24.2188H24.5278C24.6314 24.2188 24.7308 24.1776 24.804 24.1043C24.8773 24.0311 24.9185 23.9317 24.9185 23.8281V16.7969C24.9184 16.7417 24.9067 16.6872 24.8841 16.6369C24.8615 16.5866 24.8284 16.5417 24.7872 16.5051L21.2716 13.3801ZM5.53564 14.0625H20.8638L23.5005 16.4062H2.89893L5.53564 14.0625ZM2.26221 23.4375V17.1875H24.1372V23.4375H2.26221Z" fill="#159557"/>
<path d="M8.90283 15.625H17.4966C17.6002 15.625 17.6995 15.5838 17.7728 15.5106C17.8461 15.4373 17.8872 15.338 17.8872 15.2344C17.8872 15.1308 17.8461 15.0314 17.7728 14.9582C17.6995 14.8849 17.6002 14.8438 17.4966 14.8438H8.90283C8.79923 14.8438 8.69987 14.8849 8.62662 14.9582C8.55336 15.0314 8.51221 15.1308 8.51221 15.2344C8.51221 15.338 8.55336 15.4373 8.62662 15.5106C8.69987 15.5838 8.79923 15.625 8.90283 15.625Z" fill="#159557"/>
<path d="M13.2112 18.4228L13.1995 18.4341L13.1878 18.4228C12.885 18.1326 12.4818 17.9706 12.0624 17.9706C11.643 17.9706 11.2398 18.1326 10.937 18.4228C10.7879 18.5664 10.6692 18.7386 10.5882 18.9291C10.5071 19.1196 10.4653 19.3245 10.4653 19.5316C10.4653 19.7386 10.5071 19.9435 10.5882 20.134C10.6692 20.3246 10.7879 20.4968 10.937 20.6404L12.9292 22.574C13.0021 22.6448 13.0998 22.6845 13.2015 22.6845C13.3031 22.6845 13.4008 22.6448 13.4737 22.574L15.464 20.6408C15.6131 20.4972 15.7318 20.325 15.8128 20.1344C15.8939 19.9439 15.9356 19.739 15.9356 19.532C15.9356 19.3249 15.8939 19.12 15.8128 18.9295C15.7318 18.739 15.6131 18.5668 15.464 18.4232C15.1612 18.1323 14.7576 17.9698 14.3377 17.9697C13.9178 17.9697 13.5141 18.132 13.2112 18.4228ZM14.9183 20.0783L13.1995 21.749L11.4808 20.0783C11.4065 20.0075 11.3474 19.9225 11.307 19.8283C11.2666 19.734 11.2458 19.6325 11.2458 19.53C11.2458 19.4275 11.2666 19.326 11.307 19.2318C11.3474 19.1375 11.4065 19.0525 11.4808 18.9818C11.6369 18.8319 11.845 18.7482 12.0614 18.7482C12.2779 18.7482 12.4859 18.8319 12.6421 18.9818L12.9265 19.2579C12.9994 19.3288 13.0971 19.3685 13.1987 19.3685C13.3004 19.3685 13.3981 19.3288 13.471 19.2579L13.7554 18.9818C13.9116 18.8319 14.1197 18.7482 14.3362 18.7482C14.5527 18.7482 14.7609 18.8319 14.9171 18.9818C14.9913 19.0525 15.0505 19.1375 15.0909 19.2318C15.1313 19.326 15.1521 19.4275 15.1521 19.53C15.1521 19.6325 15.1313 19.734 15.0909 19.8283C15.0505 19.9225 14.9913 20.0075 14.9171 20.0783H14.9183Z" fill="#159557"/>
</svg>
