<svg width="30" height="31" viewBox="0 0 30 31" fill="none" xmlns="http://www.w3.org/2000/svg">
<path d="M26.19 4.30993C25.3512 3.4712 24.2136 3 23.0275 3C21.8413 3 20.7037 3.4712 19.865 4.30993L4.92496 19.2499C4.4172 19.7577 4.06022 20.3964 3.89371 21.0949L2.52496 26.8474C2.4879 27.0032 2.49137 27.1659 2.53505 27.32C2.57873 27.4741 2.66115 27.6145 2.77447 27.7276C2.88778 27.8408 3.0282 27.9231 3.18234 27.9666C3.33647 28.0101 3.49918 28.0134 3.65496 27.9762L9.40621 26.6062C10.1052 26.4399 10.7443 26.0829 11.2525 25.5749L26.19 10.6374C27.0287 9.79868 27.4999 8.66109 27.4999 7.47493C27.4999 6.28877 27.0287 5.15118 26.19 4.31243V4.30993ZM21.19 5.63493C21.4313 5.39363 21.7177 5.20221 22.033 5.07162C22.3483 4.94103 22.6862 4.87381 23.0275 4.87381C23.3687 4.87381 23.7066 4.94103 24.0219 5.07162C24.3372 5.20221 24.6237 5.39363 24.865 5.63493C25.1063 5.87623 25.2977 6.1627 25.4283 6.47798C25.5589 6.79326 25.6261 7.13117 25.6261 7.47243C25.6261 7.81368 25.5589 8.1516 25.4283 8.46688C25.2977 8.78216 25.1063 9.06863 24.865 9.30993L23.75 10.4237L20.075 6.74993L21.19 5.63618V5.63493ZM18.75 8.07743L22.425 11.7499L9.92496 24.2499C9.66246 24.5124 9.33246 24.6962 8.97121 24.7824L4.70121 25.7999L5.71746 21.5299C5.80371 21.1674 5.98871 20.8374 6.25121 20.5749L18.75 8.07493V8.07743Z" fill="#159557"/>
</svg>
