<svg width="30" height="31" viewBox="0 0 30 31" fill="none" xmlns="http://www.w3.org/2000/svg">
<g clip-path="url(#clip0_4853_33550)">
<path d="M24.5117 10.8738C24.6134 10.9155 24.7223 10.9371 24.8322 10.9373C25.047 10.9382 25.2533 10.8536 25.4057 10.7023L29.765 6.52797C30.0793 6.19828 30.0724 5.67781 29.7495 5.35649L25.4142 1.17418C25.1754 0.939343 24.8189 0.870733 24.51 1.0001C24.201 1.12953 23.9999 1.43169 23.9998 1.76665V2.93661H3.50054C3.22439 2.93661 3.00057 3.16049 3.00057 3.43657C3.00057 3.71265 3.22445 3.93653 3.50054 3.93653H24.4997C24.7759 3.93653 24.9997 3.71265 24.9997 3.43657V2.16361L28.925 5.94844L24.9997 9.70679V8.43641C24.9997 8.16027 24.7758 7.93645 24.4997 7.93645H19.1044C16.5306 6.6032 13.4696 6.6032 10.8958 7.93645H3.50054C3.22439 7.93645 3.00057 8.16033 3.00057 8.43641C3.00057 8.7125 3.22445 8.93637 3.50054 8.93637H9.35581C7.23439 10.6406 6.00034 13.215 6.00034 15.9361C6.00034 18.6573 7.23439 21.2316 9.35581 22.9359H6.00046V21.7659C5.99987 21.4318 5.79943 21.1305 5.49153 21.0008C5.18363 20.871 4.82804 20.9381 4.58846 21.171L0.235116 25.3708C-0.0791097 25.7004 -0.0721959 26.2206 0.250643 26.5418L4.58747 30.6941C4.74191 30.8486 4.95144 30.9355 5.16992 30.9356C5.39023 30.936 5.60163 30.8487 5.75742 30.693C5.91322 30.5372 6.00063 30.3259 6.0004 30.1056V28.9357H26.4996C26.7758 28.9357 26.9996 28.7118 26.9996 28.4357C26.9996 28.1596 26.7758 27.9358 26.4996 27.9358H5.50044C5.2243 27.9358 5.00048 28.1596 5.00048 28.4357V29.7062L1.07461 25.9482L5.00048 22.1629V23.4358C5.00048 23.712 5.22436 23.9358 5.50044 23.9358H10.8957C13.4695 25.269 16.5306 25.269 19.1044 23.9358H26.4996C26.7758 23.9358 26.9996 23.7119 26.9996 23.4358C26.9996 23.1597 26.7758 22.9359 26.4996 22.9359H20.6443C22.7658 21.2317 23.9998 18.6573 23.9998 15.9361C23.9998 13.215 22.7658 10.6406 20.6443 8.93637H23.9997V10.1063C23.999 10.4423 24.2013 10.7454 24.5117 10.8738ZM22.9998 15.9361C22.9998 20.3542 19.4182 23.9358 15.0001 23.9358C10.582 23.9358 7.00038 20.3542 7.00038 15.9361C7.00038 11.518 10.582 7.93645 15 7.93645C19.416 7.94167 22.9946 11.5201 22.9998 15.9361Z" fill="#16BE6E"/>
<path d="M14.0008 12.9364C14.2769 12.9364 14.5007 12.7126 14.5007 12.4365C14.5007 12.1603 14.2769 11.9365 14.0008 11.9365H10.5009C10.2248 11.9365 10.001 12.1604 10.001 12.4365V19.4362C10.001 19.7124 10.2249 19.9362 10.5009 19.9362C10.7771 19.9362 11.0009 19.7124 11.0009 19.4362V16.4363H14.0008C14.2769 16.4363 14.5007 16.2125 14.5007 15.9364C14.5007 15.6602 14.2769 15.4364 14.0008 15.4364H11.0009V12.9364H14.0008Z" fill="#16BE6E"/>
<path d="M15.7768 19.8856C15.8954 19.945 16.0328 19.9547 16.1587 19.9127C16.2845 19.8707 16.3885 19.7804 16.4477 19.6616L17.7477 17.0562L19.0477 19.6616C19.1711 19.9088 19.4715 20.0091 19.7187 19.8856C19.9658 19.7622 20.0661 19.4618 19.9427 19.2146L18.3093 15.9357L19.9502 12.6594C20.0736 12.4122 19.9733 12.1118 19.7262 11.9884C19.479 11.8649 19.1786 11.9652 19.0552 12.2124L17.7552 14.8178L16.4552 12.2124C16.3754 12.0525 16.2163 11.9474 16.038 11.9366C15.8596 11.9258 15.689 12.011 15.5905 12.16C15.4919 12.3091 15.4805 12.4995 15.5603 12.6593L17.1913 15.9357L15.5528 19.2121C15.4927 19.331 15.4825 19.469 15.5246 19.5954C15.5666 19.722 15.6574 19.8264 15.7768 19.8856Z" fill="#16BE6E"/>
<path d="M0.000976562 5.93648C0.000976562 6.21263 0.224855 6.43645 0.500937 6.43645H6.00074C6.27688 6.43645 6.5007 6.21257 6.5007 5.93648C6.5007 5.66034 6.27682 5.43652 6.00074 5.43652H0.500937C0.224796 5.43652 0.000976562 5.66034 0.000976562 5.93648Z" fill="#16BE6E"/>
<path d="M29.4997 25.4355H24C23.7238 25.4355 23.5 25.6594 23.5 25.9355C23.5 26.2116 23.7238 26.4355 24 26.4355H29.4998C29.7759 26.4355 29.9997 26.2116 29.9997 25.9355C29.9997 25.6594 29.7758 25.4355 29.4997 25.4355Z" fill="#16BE6E"/>
</g>
<defs>
<clipPath id="clip0_4853_33550">
<rect width="30" height="30" fill="white" transform="translate(0 0.935547)"/>
</clipPath>
</defs>
</svg>
