<svg width="30" height="30" viewBox="0 0 30 30" fill="none" xmlns="http://www.w3.org/2000/svg">
<g clip-path="url(#clip0_2572_18155)">
<path d="M26.875 5H3.12498C1.40127 5 0 6.4025 0 8.12504V21.8751C0 23.5975 1.40127 25 3.12498 25H26.875C28.5987 25 29.9999 23.5975 29.9999 21.8751V8.12504C30 6.4025 28.5987 5 26.875 5ZM28.75 21.875C28.75 22.9088 27.9088 23.75 26.875 23.75H3.12498C2.09121 23.75 1.24998 22.9088 1.24998 21.875V8.12504C1.24998 7.09127 2.09121 6.25004 3.12498 6.25004H26.875C27.9087 6.25004 28.75 7.09127 28.75 8.12504V21.875H28.75Z" fill="#159557"/>
<path d="M9.375 17.5H4.37502C4.03002 17.5 3.75 17.78 3.75 18.125C3.75 18.47 4.03002 18.75 4.37502 18.75H9.375C9.72 18.75 10 18.47 10 18.125C10 17.78 9.72 17.5 9.375 17.5Z" fill="#159557"/>
<path d="M13.125 20H4.37502C4.03002 20 3.75 20.28 3.75 20.625C3.75 20.97 4.03002 21.25 4.37502 21.25H13.125C13.47 21.25 13.75 20.97 13.75 20.625C13.75 20.28 13.47 20 13.125 20Z" fill="#159557"/>
<path d="M13.8377 7.78513C13.1064 7.5664 12.2915 7.85011 11.8302 8.47138C11.4777 8.94388 11.3702 9.53263 11.5352 10.0876C12.3952 12.9801 15.1052 15.0001 18.1252 15.0001C18.4702 15.0001 18.7502 14.7201 18.7502 14.3751C18.7502 11.3551 16.7302 8.64511 13.8377 7.78513ZM12.7327 9.73138C12.6614 9.49513 12.7639 9.30886 12.8314 9.21886C12.9526 9.05638 13.1364 8.95888 13.3214 8.95888C13.3739 8.95888 13.4276 8.96761 13.4801 8.98261C15.6326 9.62263 17.1939 11.5151 17.4589 13.7101C15.2627 13.4439 13.3727 11.8826 12.7327 9.73138Z" fill="#159557"/>
<path d="M24.42 8.47123C23.9575 7.85125 23.1437 7.56625 22.4125 7.78498C19.52 8.64496 17.5 11.355 17.5 14.375C17.5 14.72 17.78 15 18.125 15C21.145 15 23.855 12.98 24.715 10.0875C24.88 9.53371 24.7725 8.94373 24.42 8.47123ZM23.5162 9.73123C22.8775 11.8837 20.9862 13.445 18.79 13.71C19.055 11.5137 20.6175 9.62248 22.7688 8.98246C22.8225 8.96746 22.8763 8.95873 22.9288 8.95873C23.1137 8.95873 23.2975 9.05623 23.4175 9.21871C23.485 9.30871 23.5875 9.49498 23.5162 9.73123Z" fill="#159557"/>
<path d="M18.125 5C17.78 5 17.5 5.28002 17.5 5.62502V24.375C17.5 24.72 17.78 25 18.125 25C18.47 25 18.75 24.72 18.75 24.375V5.62502C18.75 5.28002 18.47 5 18.125 5Z" fill="#159557"/>
<path d="M18.5661 13.9338C18.3223 13.69 17.9261 13.69 17.6823 13.9338L13.9323 17.6838C13.6886 17.9275 13.6886 18.3238 13.9323 18.5676C14.0548 18.6888 14.2148 18.7501 14.3748 18.7501C14.5348 18.7501 14.6948 18.6888 14.8161 18.5676L18.5661 14.8176C18.8098 14.5738 18.8098 14.1775 18.5661 13.9338Z" fill="#159557"/>
<path d="M22.3161 17.6838L18.5661 13.9338C18.3223 13.69 17.9261 13.69 17.6823 13.9338C17.4386 14.1775 17.4386 14.5738 17.6823 14.8176L21.4323 18.5676C21.5548 18.6888 21.7148 18.7501 21.8748 18.7501C22.0348 18.7501 22.1948 18.6888 22.3161 18.5676C22.5598 18.3237 22.5598 17.9275 22.3161 17.6838Z" fill="#159557"/>
<path d="M29.375 13.75H0.62502C0.28002 13.75 0 14.03 0 14.375C0 14.72 0.28002 15 0.62502 15H29.375C29.72 15 30.0001 14.72 30.0001 14.375C30.0001 14.03 29.72 13.75 29.375 13.75Z" fill="#159557"/>
</g>
<defs>
<clipPath id="clip0_2572_18155">
<rect width="30" height="30" fill="white"/>
</clipPath>
</defs>
</svg>
