<svg width="30" height="30" viewBox="0 0 30 30" fill="none" xmlns="http://www.w3.org/2000/svg">
<path d="M2.81251 11.4469V25.7438C2.81251 26.1595 2.89454 26.5711 3.0539 26.955C3.21326 27.3389 3.44682 27.6876 3.74119 27.9811C4.03555 28.2746 4.38495 28.5071 4.76934 28.6653C5.15374 28.8236 5.56558 28.9044 5.98127 28.9031H24.0281C24.8661 28.9031 25.6697 28.5703 26.2622 27.9778C26.8547 27.3853 27.1875 26.5817 27.1875 25.7438V11.4469C27.1875 10.6081 26.855 9.80354 26.2627 9.20955C25.6705 8.61557 24.8669 8.28062 24.0281 8.27814H22.0219C22.2986 7.99277 22.5437 7.67847 22.7531 7.34064C23.154 6.66927 23.375 5.90586 23.3947 5.12415C23.4144 4.34244 23.2322 3.56886 22.8656 2.87814C22.5468 2.32133 22.0827 1.86154 21.523 1.54783C20.9633 1.23412 20.3289 1.07826 19.6875 1.09689C18.9851 1.0745 18.2862 1.20453 17.6389 1.47804C16.9915 1.75154 16.4111 2.16203 15.9375 2.68127C15.5629 3.07787 15.2472 3.52619 15 4.01252C14.7673 3.52906 14.4674 3.08089 14.1094 2.68127C13.6358 2.16203 13.0554 1.75154 12.4081 1.47804C11.7607 1.20453 11.0618 1.0745 10.3594 1.09689C9.71774 1.07765 9.08281 1.23214 8.52172 1.54404C7.96064 1.85593 7.49426 2.31364 7.17189 2.86877C6.80534 3.55949 6.62311 4.33307 6.64282 5.11477C6.66253 5.89648 6.8835 6.65989 7.28439 7.33127C7.49381 7.66909 7.73897 7.9834 8.01564 8.26877H5.98127C5.56435 8.26876 5.15153 8.35104 4.76647 8.51087C4.3814 8.6707 4.03167 8.90494 3.7373 9.20018C3.44293 9.49542 3.20972 9.84585 3.05102 10.2314C2.89233 10.6169 2.81128 11.03 2.81251 11.4469ZM25.3125 11.4469V25.7438C25.3125 25.9124 25.2793 26.0794 25.2148 26.2353C25.1502 26.3911 25.0556 26.5327 24.9363 26.652C24.8171 26.7712 24.6755 26.8658 24.5197 26.9304C24.3638 26.9949 24.1968 27.0281 24.0281 27.0281H15.9375L16.0031 10.1531H24.0563C24.3929 10.1629 24.7124 10.3035 24.9469 10.5451C25.1815 10.7867 25.3127 11.1102 25.3125 11.4469ZM19.6875 3.00939C20.0004 2.98831 20.3129 3.0553 20.5896 3.20277C20.8663 3.35025 21.0962 3.57231 21.2531 3.84377C21.4592 4.24852 21.5564 4.69996 21.535 5.15366C21.5136 5.60736 21.3745 6.04768 21.1313 6.43127C20.7281 7.13439 19.6688 8.30627 17.1188 8.30627H15.9375C15.9375 7.17189 16.1531 5.15627 17.2406 3.96564C17.5487 3.62811 17.9282 3.36371 18.3516 3.19177C18.7749 3.01983 19.2314 2.9447 19.6875 2.97189V3.00939ZM8.87814 6.39377C8.63492 6.01018 8.49577 5.56986 8.4744 5.11616C8.45303 4.66246 8.55017 4.21102 8.75627 3.80627C8.9125 3.5363 9.14088 3.31522 9.41577 3.16783C9.69067 3.02045 10.0012 2.9526 10.3125 2.97189C10.7566 2.94463 11.2013 3.01436 11.6158 3.17626C12.0302 3.33815 12.4045 3.58832 12.7125 3.90939C13.8094 5.12814 14.0063 7.14377 14.0625 8.27814H12.8906C10.3125 8.27814 9.28127 7.09689 8.87814 6.39377ZM4.68751 11.4469C4.68751 11.1038 4.82382 10.7747 5.06645 10.5321C5.30907 10.2894 5.63814 10.1531 5.98127 10.1531H14.0625L13.9969 27.0281H5.98127C5.81181 27.0294 5.64379 26.9971 5.48688 26.9331C5.32996 26.8691 5.18727 26.7747 5.06701 26.6553C4.94675 26.5359 4.8513 26.3939 4.78617 26.2374C4.72104 26.081 4.68751 25.9132 4.68751 25.7438V11.4469Z" fill="#159557"/>
</svg>
