<svg width="19" height="23" viewBox="0 0 19 23" fill="none" xmlns="http://www.w3.org/2000/svg">
<path d="M17.7082 2.80857H15.6496V0.562476C15.6497 0.505089 15.6371 0.448386 15.6128 0.396401C15.5885 0.344415 15.5531 0.298423 15.509 0.261695C15.4659 0.224613 15.4153 0.197364 15.3607 0.181847C15.306 0.16633 15.2487 0.162919 15.1926 0.171851L0.626167 2.81638C0.626167 2.81638 0.598823 2.81638 0.583198 2.81638C0.560294 2.82182 0.538034 2.82968 0.516792 2.83982C0.494486 2.85187 0.473533 2.86628 0.454292 2.88279C0.435551 2.89633 0.418502 2.91206 0.40351 2.92966C0.387 2.9489 0.372595 2.96986 0.360542 2.99216C0.348616 3.01085 0.338167 3.03044 0.329292 3.05076C0.327085 3.07936 0.327085 3.10809 0.329292 3.13669C0.327517 3.15227 0.327517 3.168 0.329292 3.18357V22.4375C0.329292 22.5411 0.370447 22.6404 0.443703 22.7137C0.51696 22.7869 0.616317 22.8281 0.719917 22.8281H17.7082C17.8118 22.8281 17.9112 22.7869 17.9844 22.7137C18.0577 22.6404 18.0988 22.5411 18.0988 22.4375V3.19919C18.0988 3.09559 18.0577 2.99624 17.9844 2.92298C17.9112 2.84973 17.8118 2.80857 17.7082 2.80857ZM14.8684 1.03123V2.80857H5.04414L14.8684 1.03123ZM17.3176 22.0469H1.0832V3.58982H17.3176V22.0469Z" fill="#159557"/>
</svg>
