<svg width="19" height="18" viewBox="0 0 19 18" fill="none" xmlns="http://www.w3.org/2000/svg">
<path fill-rule="evenodd" clip-rule="evenodd" d="M18.4467 1.74717C18.5067 1.35217 18.3383 0.95634 18.0125 0.72384C17.6867 0.492173 17.2575 0.463006 16.9033 0.64884C14.0692 2.13717 4.15501 7.34217 1.11001 8.94051C0.73418 9.13717 0.512514 9.53884 0.545014 9.96134C0.577514 10.3838 0.857514 10.7472 1.25918 10.8847C2.44501 11.2905 3.89418 11.788 6.16668 12.5672L15.3333 3.99967L7.91501 13.1663C10.3383 13.9972 14.1275 15.2963 15.0783 15.6222C15.3758 15.7247 15.7042 15.6888 15.9733 15.5263C16.2425 15.363 16.425 15.0888 16.4725 14.7772L18.4467 1.74717Z" fill="white"/>
<path fill-rule="evenodd" clip-rule="evenodd" d="M6.85999 13.6855V16.4105C6.85999 16.8289 7.10582 17.208 7.48665 17.3789C7.86832 17.5505 8.31415 17.4822 8.62665 17.2039L10.9917 15.1022L6.85999 13.6855Z" fill="white"/>
</svg>
