<svg width="30" height="31" viewBox="0 0 30 31" fill="none" xmlns="http://www.w3.org/2000/svg">
<g clip-path="url(#clip0_4853_28407)">
<path d="M29.2207 6.451L21.5234 2.71764C20.8767 2.40662 20.1236 2.40662 19.4768 2.71764L11.7793 6.45105C11.3725 6.64811 11.0907 7.03512 11.0283 7.48277H2.50002C1.11996 7.48436 0.00164063 8.60273 0 9.98273V25.4828C0.00164063 26.8628 1.11996 27.9812 2.50002 27.9828H27.5C28.8801 27.9812 29.9984 26.8628 30.0001 25.4828V7.68199C29.9999 7.15559 29.6965 6.67635 29.2207 6.451ZM29 25.4828C28.9991 26.3108 28.328 26.9819 27.5 26.9828H2.50002C1.67197 26.9819 1.0009 26.3108 1.00002 25.4828V9.98273C1.0009 9.15469 1.67197 8.48361 2.50002 8.48273H11V12.2654C11.0553 16.6028 13.1064 20.6728 16.5599 23.2976L19.525 25.6453C20.0981 26.0926 20.902 26.0926 21.4751 25.6453L24.4395 23.2982C26.4532 21.7308 28.0248 19.6668 29 17.3087L29 25.4828ZM29 12.2655C28.9436 16.2971 27.0324 20.0777 23.8193 22.5135L20.8545 24.8612C20.6459 25.0233 20.354 25.0233 20.1455 24.8612L17.1797 22.5131C13.9672 20.0771 12.0564 16.2967 12 12.2655V7.68199C12.0021 7.53914 12.0861 7.41018 12.2158 7.35047L19.9136 3.61705C20.2842 3.43869 20.7159 3.43869 21.0867 3.61705L28.7842 7.35047C28.914 7.41012 28.998 7.53914 29 7.68199V12.2655Z" fill="#16BE6E"/>
<path d="M20.4734 7.52247C17.7256 7.52616 15.5001 9.75465 15.5 12.5024C15.5086 15.257 17.7454 17.4849 20.5 17.4824C23.2477 17.4714 25.4673 15.2369 25.4599 12.4891C25.4527 9.74141 23.2211 7.51883 20.4734 7.52247ZM20.4734 16.4825C18.2779 16.4788 16.5 14.698 16.5 12.5025C16.5082 10.3 18.2975 8.51961 20.5 8.52254C22.6955 8.53356 24.4674 10.3203 24.4601 12.5158C24.4527 14.7113 22.6689 16.4861 20.4734 16.4825Z" fill="#16BE6E"/>
<path d="M21.7829 11.129L19.6818 13.2301L19.217 12.7653C19.0216 12.5707 18.7056 12.571 18.5107 12.766C18.3157 12.9609 18.3154 13.2769 18.5099 13.4722L19.3283 14.2906C19.4221 14.3844 19.5492 14.4371 19.6818 14.4371C19.8144 14.4371 19.9415 14.3844 20.0353 14.2906L22.4899 11.836C22.6834 11.6405 22.6827 11.3253 22.4881 11.1308C22.2935 10.9362 21.9783 10.9355 21.7829 11.129Z" fill="#16BE6E"/>
<path d="M11 21.9824H3.11326C2.83711 21.9824 2.61328 22.2062 2.61328 22.4824C2.61328 22.7586 2.83711 22.9824 3.11326 22.9824H11C11.2761 22.9824 11.5 22.7586 11.5 22.4824C11.5 22.2062 11.2761 21.9824 11 21.9824Z" fill="#16BE6E"/>
<path d="M7.00002 23.9824H3.11326C2.83711 23.9824 2.61328 24.2062 2.61328 24.4824C2.61328 24.7586 2.83711 24.9824 3.11326 24.9824H6.99996C7.27611 24.9824 7.49994 24.7586 7.49994 24.4824C7.49994 24.2062 7.27617 23.9824 7.00002 23.9824Z" fill="#16BE6E"/>
<path d="M10.4151 18.2027L10.4148 18.2023L8.67777 17.3463C8.62557 17.3213 8.59193 17.2689 8.59088 17.211V16.7174C8.61385 16.6876 8.6374 16.6559 8.66166 16.6222C8.8832 16.3127 9.06338 15.9758 9.19779 15.6197C9.49932 15.4321 9.68242 15.1018 9.68189 14.7467V14.0299C9.68148 13.8223 9.61809 13.6196 9.50002 13.4488V12.6217C9.53975 12.117 9.37709 11.6171 9.04785 11.2325C8.50855 10.6938 7.75967 10.4196 7 10.4825C6.24016 10.4194 5.49109 10.6939 4.95191 11.2331C4.62285 11.6176 4.46025 12.1172 4.49998 12.6217V13.4489C4.38191 13.6197 4.31852 13.8223 4.31811 14.03V14.7468C4.31805 15.0231 4.42926 15.2878 4.62672 15.4811C4.75756 15.9204 4.96053 16.3349 5.2273 16.7077V17.1945C5.22643 17.2504 5.19496 17.3014 5.14527 17.3273L3.52322 18.1993C2.89439 18.5349 2.50117 19.1892 2.5 19.902V20.4825C2.49994 20.6151 2.55262 20.7423 2.64643 20.8361C2.74018 20.9299 2.86738 20.9825 3.00004 20.9825H11C11.1326 20.9826 11.2598 20.9299 11.3536 20.8361C11.4474 20.7424 11.5001 20.6152 11.5001 20.4825V19.9371C11.5009 19.1988 11.0794 18.525 10.4151 18.2027ZM10.5 19.9825H3.50002V19.902C3.50143 19.5574 3.69238 19.2415 3.99684 19.0802L5.61941 18.2076C5.99312 18.0076 6.22668 17.6183 6.22732 17.1944V16.5391C6.2268 16.4213 6.1852 16.3073 6.10967 16.2169C5.84893 15.8818 5.66061 15.4962 5.55666 15.0846C5.51998 14.9471 5.43537 14.8273 5.31813 14.7466L5.3323 14.0059C5.439 13.911 5.50006 13.7751 5.50006 13.6324V12.5957C5.50006 12.5735 5.49859 12.5513 5.49566 12.5293C5.48178 12.2978 5.55654 12.0696 5.70467 11.8911C6.06092 11.5808 6.53025 11.4327 7.00006 11.4824C7.466 11.4344 7.93129 11.5791 8.28789 11.8828C8.44129 12.0621 8.51893 12.2938 8.50445 12.5293C8.50152 12.5514 8.50006 12.5735 8.50006 12.5957V13.6324C8.5051 13.7838 8.57061 13.927 8.68193 14.0298L8.64924 14.7803C8.49344 14.8279 8.37057 14.9483 8.31988 15.1031C8.21207 15.4371 8.05352 15.7525 7.84967 16.0381C7.80871 16.0963 7.76471 16.1524 7.71783 16.2061C7.63603 16.2977 7.59086 16.4163 7.59086 16.5391V17.2109C7.58992 17.6505 7.8407 18.0517 8.23615 18.2436L9.97299 19.0996C10.2947 19.2545 10.4995 19.5799 10.5001 19.937V19.9825H10.5Z" fill="#16BE6E"/>
</g>
<defs>
<clipPath id="clip0_4853_28407">
<rect width="30" height="30" fill="white" transform="translate(0 0.233398)"/>
</clipPath>
</defs>
</svg>
