<svg width="17" height="20" viewBox="0 0 17 20" fill="none" xmlns="http://www.w3.org/2000/svg">
<path d="M12.1565 0.5C12.2007 0.5 12.2449 0.5 12.2916 0.5C12.4001 1.83992 11.8886 2.84111 11.2671 3.56613C10.6572 4.28615 9.82203 4.98448 8.47126 4.87852C8.38116 3.55779 8.89343 2.63086 9.51416 1.9075C10.0898 1.23337 11.1453 0.633491 12.1565 0.5Z" fill="#17181D"/>
<path d="M16.2454 14.4469C16.2454 14.4602 16.2454 14.4719 16.2454 14.4844C15.8658 15.6341 15.3243 16.6194 14.6635 17.5339C14.0603 18.364 13.3211 19.4812 12.0012 19.4812C10.8607 19.4812 10.1031 18.7478 8.93422 18.7278C7.69776 18.7078 7.01779 19.341 5.88728 19.5004C5.75796 19.5004 5.62864 19.5004 5.50183 19.5004C4.67168 19.3802 4.00172 18.7228 3.51364 18.1304C2.07443 16.38 0.962283 14.119 0.755371 11.2256C0.755371 10.9419 0.755371 10.6591 0.755371 10.3754C0.842975 8.3046 1.84917 6.62094 3.18658 5.80497C3.89242 5.37113 4.86273 5.00152 5.94318 5.16672C6.40623 5.23847 6.87929 5.39699 7.29395 5.55384C7.68691 5.70485 8.17833 5.97267 8.64388 5.95849C8.95925 5.94931 9.27296 5.78495 9.59083 5.66898C10.5219 5.33275 11.4347 4.94729 12.6378 5.12834C14.0837 5.34693 15.1099 5.98936 15.744 6.98053C14.5208 7.75895 13.5539 8.93201 13.7191 10.9352C13.8659 12.7549 14.9238 13.8195 16.2454 14.4469Z" fill="#17181D"/>
</svg>
