<svg width="28" height="26" viewBox="0 0 28 26" fill="none" xmlns="http://www.w3.org/2000/svg">
<path d="M27.0022 16.6681L19.5022 8.46499C19.4385 8.39491 19.3551 8.34576 19.2629 8.32403C19.1707 8.3023 19.0741 8.309 18.9858 8.34326C18.8975 8.37751 18.8216 8.43771 18.7682 8.51592C18.7148 8.59413 18.6863 8.68669 18.6866 8.7814V12.5314H8.84282C8.7185 12.5314 8.59927 12.5808 8.51136 12.6687C8.42345 12.7566 8.37407 12.8758 8.37407 13.0001V16.0119L1.97798 9.01577L8.37407 2.01968V5.0314C8.37407 5.15572 8.42345 5.27495 8.51136 5.36285C8.59927 5.45076 8.7185 5.50015 8.84282 5.50015H21.9678C22.0921 5.50015 22.2114 5.45076 22.2993 5.36285C22.3872 5.27495 22.4366 5.15572 22.4366 5.0314C22.4366 4.90708 22.3872 4.78785 22.2993 4.69994C22.2114 4.61203 22.0921 4.56265 21.9678 4.56265H9.31157V0.812647C9.3118 0.717937 9.28333 0.62538 9.22992 0.547169C9.1765 0.468957 9.10065 0.408759 9.01235 0.374505C8.92406 0.340251 8.82745 0.333548 8.73527 0.355279C8.64309 0.37701 8.55965 0.426155 8.49594 0.496241L0.995945 8.69937C0.91689 8.78578 0.873047 8.89865 0.873047 9.01577C0.873047 9.13289 0.91689 9.24577 0.995945 9.33218L8.49594 17.5353C8.55965 17.6054 8.64309 17.6545 8.73527 17.6763C8.82745 17.698 8.92406 17.6913 9.01235 17.657C9.10065 17.6228 9.1765 17.5626 9.22992 17.4844C9.28333 17.4062 9.3118 17.3136 9.31157 17.2189V13.4689H19.1553C19.2796 13.4689 19.3989 13.4195 19.4868 13.3316C19.5747 13.2437 19.6241 13.1245 19.6241 13.0001V9.98843L26.0202 16.9845L19.6241 23.9806V20.9689C19.6241 20.8446 19.5747 20.7253 19.4868 20.6374C19.3989 20.5495 19.2796 20.5001 19.1553 20.5001H6.03032C5.906 20.5001 5.78677 20.5495 5.69886 20.6374C5.61096 20.7253 5.56157 20.8446 5.56157 20.9689C5.56157 21.0932 5.61096 21.2124 5.69886 21.3004C5.78677 21.3883 5.906 21.4376 6.03032 21.4376H18.6866V25.1876C18.6868 25.2821 18.7156 25.3742 18.7692 25.452C18.8227 25.5298 18.8985 25.5896 18.9866 25.6236C19.04 25.6459 19.0974 25.6571 19.1553 25.6564C19.2206 25.6565 19.2851 25.6431 19.3448 25.6168C19.4046 25.5906 19.4582 25.5522 19.5022 25.5041L27.0022 17.3009C27.0812 17.2145 27.1251 17.1016 27.1251 16.9845C27.1251 16.8674 27.0812 16.7545 27.0022 16.6681Z" fill="#159557"/>
</svg>
