<svg width="60" height="61" viewBox="0 0 60 61" fill="none" xmlns="http://www.w3.org/2000/svg">
<path d="M3.23481 33.1779C3.08134 34.702 5.42401 34.9881 5.85629 33.6725C6.83012 30.6982 9.58989 28.7002 12.7246 28.7002C15.8676 28.7002 18.6332 30.6982 19.6071 33.6725C20.0056 34.8853 22.3442 34.8205 22.709 33.6607C23.7227 30.458 26.6453 28.3064 29.9817 28.3064C33.3274 28.3064 36.2571 30.458 37.2707 33.6607C37.4278 34.1599 37.8907 34.4986 38.4145 34.4986C38.687 34.4986 39.3798 34.4986 39.2313 34.4986C39.7504 34.4986 40.2098 34.1658 40.3715 33.6724C41.3489 30.6888 44.1157 28.6849 47.2551 28.6849C50.3958 28.6849 53.1625 30.6888 54.1387 33.6724C54.6102 35.1073 57.2261 34.5703 56.704 32.9365C55.3291 20.5143 45.72 10.9258 33.6327 9.29891C33.8386 9.03992 34.0276 8.76409 34.1794 8.45838C35.5136 5.76557 34.1069 1.7002 29.9829 1.7002C28.1899 1.7002 26.5821 2.69981 25.7852 4.30645C25.0059 5.87911 25.1905 7.72218 26.2457 9.31475C14.1151 10.9958 4.50424 20.6767 3.23481 33.1779ZM22.6973 29.0471C23.7391 18.3467 27.0801 11.4279 29.9969 11.4279C32.9067 11.4279 36.2418 18.3478 37.2825 29.0494C35.2406 27.0691 32.9871 25.9064 29.9817 25.9064C25.5476 25.9064 22.8219 28.9606 22.6973 29.0471ZM53.3032 28.4096C51.6309 27.0654 49.5168 26.285 47.2551 26.285C44.2721 26.285 41.5548 27.6555 39.7627 29.8772C39.1715 22.7002 37.4943 15.6801 34.7131 11.8976C43.4711 13.5974 50.6005 19.9283 53.3032 28.4096ZM27.9356 5.37168C28.5743 4.08613 30.2629 3.70058 31.6739 4.69082C32.3067 5.592 32.4367 6.56934 32.0289 7.39316C31.3914 8.67871 29.7039 9.0666 28.2907 8.07402C27.6579 7.17285 27.5278 6.1955 27.9356 5.37168ZM25.2725 11.8976C22.4867 15.6809 20.8068 22.7033 20.2164 29.8817C18.4261 27.6666 15.7094 26.3002 12.7246 26.3002C10.45 26.3002 8.32309 27.09 6.64847 28.4506C9.34174 19.9486 16.4872 13.6004 25.2725 11.8976Z" fill="#159557"/>
<path d="M29.9829 45.493C29.9547 45.493 29.931 45.507 29.9032 45.5091C29.9 45.5085 29.8973 45.5065 29.8938 45.5059C29.345 45.4138 28.9343 44.9143 28.961 44.3434C29.0026 43.3799 30.2131 42.8663 30.9169 43.6344C31.3645 44.1219 32.1227 44.1559 32.6126 43.7082C33.1012 43.2605 33.1341 42.5012 32.6864 42.0125C32.2707 41.5587 31.7509 41.2437 31.1829 41.0574V40.1375C31.1829 39.4742 30.6462 38.9375 29.9829 38.9375C29.3196 38.9375 28.7829 39.4742 28.7829 40.1375V41.1213C27.4808 41.6427 26.6238 42.8514 26.5633 44.2367C26.4825 46.0412 27.7738 47.6029 29.5352 47.8801C29.8411 47.9262 30.3712 47.7741 30.7997 48.3582C31.1067 48.7754 31.0622 49.4199 30.6989 49.7949C30.2404 50.2683 29.4896 50.2521 29.0571 49.7785C28.6094 49.2887 27.8512 49.2582 27.3614 49.7023C26.8727 50.15 26.8387 50.9082 27.2852 51.3981C27.693 51.8442 28.216 52.1576 28.7829 52.3457V53.2754C28.7829 53.9387 29.3196 54.4754 29.9829 54.4754C30.6462 54.4754 31.1829 53.9387 31.1829 53.2754V52.2846C31.6452 52.101 32.0712 51.8275 32.4227 51.4648C33.604 50.2449 33.7364 48.2973 32.7321 46.9344C32.0241 45.9729 30.9357 45.493 29.9829 45.493Z" fill="#5C6271"/>
<path d="M29.9817 34.1133C23.0348 34.1133 17.3829 39.7629 17.3829 46.7074C17.3829 53.6508 23.0348 59.3004 29.9817 59.3004C36.9286 59.3004 42.5805 53.6508 42.5805 46.7074C42.5805 39.7629 36.9286 34.1133 29.9817 34.1133ZM29.9817 56.9004C24.3579 56.9004 19.7829 52.3277 19.7829 46.7074C19.7829 41.0859 24.3579 36.5133 29.9817 36.5133C35.6055 36.5133 40.1805 41.0859 40.1805 46.7074C40.1805 52.3277 35.6055 56.9004 29.9817 56.9004Z" fill="#5C6271"/>
</svg>
