<svg width="30" height="29" viewBox="0 0 30 29" fill="none" xmlns="http://www.w3.org/2000/svg">
<path d="M28.5938 4.10041H25.906L20.206 0.843533C19.9105 0.674334 19.5817 0.571657 19.2425 0.542673C18.9033 0.513689 18.5618 0.559095 18.2419 0.67572L15.1364 1.80353C14.741 1.94826 14.3917 2.1966 14.1251 2.52258C13.8585 2.84856 13.6844 3.24019 13.621 3.6565C12.1369 2.9951 10.4433 2.91588 9.25269 3.96869C8.85057 4.30674 8.52728 4.72866 8.30548 5.20488C8.08368 5.6811 7.96875 6.20007 7.96875 6.72541C7.96875 7.25074 8.08368 7.76972 8.30548 8.24594C8.52728 8.72215 8.85057 9.14408 9.25269 9.48213L14.6902 14.2934C14.7759 14.3693 14.8865 14.4112 15.001 14.4112C15.1155 14.4112 15.226 14.3693 15.3118 14.2934L17.3039 12.5299C17.318 12.5299 21.0713 12.536 21.0713 12.536H23.9063C23.979 12.5361 24.0507 12.5193 24.1158 12.4868L25.8919 11.6004H28.5938C28.7181 11.6004 28.8373 11.551 28.9252 11.4631C29.0132 11.3752 29.0625 11.256 29.0625 11.1317V4.56916C29.0625 4.44484 29.0132 4.32561 28.9252 4.2377C28.8373 4.14979 28.7181 4.10041 28.5938 4.10041ZM15 13.3184L9.87426 8.78181C9.5715 8.53183 9.32774 8.21803 9.1604 7.86285C8.99306 7.50768 8.90629 7.1199 8.90629 6.72728C8.90629 6.33466 8.99306 5.94689 9.1604 5.59171C9.32774 5.23654 9.5715 4.92273 9.87426 4.67275C11.1544 3.54025 13.3107 4.22603 14.6893 5.44619C14.775 5.52211 14.8855 5.56402 15 5.56402C15.1145 5.56402 15.2251 5.52211 15.3108 5.44619C16.6894 4.22744 18.8452 3.53931 20.1258 4.67275C20.5716 5.04207 20.8846 5.54684 21.0173 6.11033C21.1499 6.67382 21.095 7.26522 20.8608 7.79463L20.0218 8.31916H17.3907L14.4619 7.73322C13.9824 7.63651 13.484 7.72842 13.0705 7.98981C12.657 8.25121 12.3602 8.66197 12.2418 9.13664C12.1235 9.61131 12.1927 10.1133 12.4351 10.5383C12.6775 10.9632 13.0743 11.2783 13.5432 11.4181L16.2347 12.2257L15 13.3184ZM28.125 10.6629H25.7813C25.7086 10.6628 25.6368 10.6797 25.5718 10.7121L23.7957 11.6004H17.4122L13.8118 10.5223C13.574 10.4516 13.3727 10.2919 13.2498 10.0765C13.1268 9.86116 13.0916 9.60664 13.1516 9.36599C13.2116 9.12533 13.3621 8.91708 13.5718 8.78461C13.7814 8.65213 14.0341 8.60562 14.2772 8.65478L17.25 9.24728C17.2809 9.25355 17.3123 9.25669 17.3438 9.25666H20.1563C20.2441 9.25666 20.3302 9.23197 20.4047 9.18541L24.1547 6.84166C24.2071 6.80903 24.2524 6.76642 24.2883 6.71626C24.3241 6.66609 24.3498 6.60935 24.3637 6.54929C24.3776 6.48922 24.3796 6.427 24.3695 6.36617C24.3594 6.30534 24.3374 6.24711 24.3047 6.19478C24.2721 6.14246 24.2295 6.09707 24.1793 6.06122C24.1292 6.02536 24.0724 5.99974 24.0124 5.98581C23.9523 5.97188 23.8901 5.96992 23.8292 5.98004C23.7684 5.99016 23.7102 6.01216 23.6579 6.04478L22.0172 7.07088C22.0698 6.48999 21.982 5.90498 21.7613 5.36511C21.5406 4.82523 21.1933 4.34631 20.7488 3.96869C19.1639 2.56947 16.6875 3.17275 15 4.48619C14.85 4.36947 14.6925 4.26072 14.5313 4.15806V4.00666C14.5318 3.71808 14.6209 3.43661 14.7864 3.20023C14.952 2.96386 15.1861 2.78395 15.4571 2.68478L18.5625 1.5565C18.7544 1.48647 18.9592 1.4592 19.1627 1.47661C19.3661 1.49402 19.5634 1.55568 19.7405 1.65728L25.5469 4.97603C25.6183 5.01685 25.6991 5.03819 25.7813 5.03791H28.125V10.6629Z" fill="#16BE6E"/>
<path d="M24.6863 15.4692C24.6005 15.3929 24.4898 15.3507 24.375 15.3506H5.625C5.51023 15.3507 5.39948 15.3929 5.31375 15.4692L1.095 19.2192C1.04552 19.2631 1.0059 19.317 0.978754 19.3774C0.951608 19.4377 0.937548 19.5032 0.9375 19.5693V28.0068C0.9375 28.1312 0.986886 28.2504 1.07479 28.3383C1.1627 28.4262 1.28193 28.4756 1.40625 28.4756H28.5938C28.7181 28.4756 28.8373 28.4262 28.9252 28.3383C29.0131 28.2504 29.0625 28.1312 29.0625 28.0068V19.5693C29.0625 19.5032 29.0484 19.4377 29.0212 19.3774C28.9941 19.317 28.9545 19.2631 28.905 19.2192L24.6863 15.4692ZM5.80312 16.2881H24.1969L27.3609 19.1006H2.63906L5.80312 16.2881ZM1.875 27.5381V20.0381H28.125V27.5381H1.875Z" fill="#16BE6E"/>
<path d="M9.84375 18.1631H20.1562C20.2806 18.1631 20.3998 18.1137 20.4877 18.0258C20.5756 17.9379 20.625 17.8187 20.625 17.6943C20.625 17.57 20.5756 17.4508 20.4877 17.3629C20.3998 17.275 20.2806 17.2256 20.1562 17.2256H9.84375C9.71943 17.2256 9.6002 17.275 9.51229 17.3629C9.42439 17.4508 9.375 17.57 9.375 17.6943C9.375 17.8187 9.42439 17.9379 9.51229 18.0258C9.6002 18.1137 9.71943 18.1631 9.84375 18.1631Z" fill="#16BE6E"/>
<path d="M15.0138 21.5202L14.9998 21.5338L14.9857 21.5202C14.6223 21.172 14.1385 20.9776 13.6352 20.9776C13.132 20.9776 12.6481 21.172 12.2848 21.5202C12.1058 21.6925 11.9634 21.8992 11.8661 22.1278C11.7689 22.3564 11.7188 22.6023 11.7188 22.8508C11.7188 23.0992 11.7689 23.3451 11.8661 23.5737C11.9634 23.8024 12.1058 24.009 12.2848 24.1813L14.6754 26.5016C14.7629 26.5867 14.8801 26.6343 15.0021 26.6343C15.1241 26.6343 15.2413 26.5867 15.3288 26.5016L17.7171 24.1818C17.8961 24.0095 18.0385 23.8028 18.1357 23.5742C18.233 23.3456 18.2831 23.0997 18.2831 22.8512C18.2831 22.6028 18.233 22.3569 18.1357 22.1283C18.0385 21.8997 17.8961 21.693 17.7171 21.5207C17.3537 21.1716 16.8694 20.9766 16.3656 20.9766C15.8617 20.9765 15.3773 21.1713 15.0138 21.5202ZM17.0623 23.5068L14.9998 25.5116L12.9373 23.5068C12.8482 23.422 12.7772 23.3199 12.7287 23.2068C12.6803 23.0937 12.6553 22.9719 12.6553 22.8489C12.6553 22.7259 12.6803 22.6041 12.7287 22.491C12.7772 22.3779 12.8482 22.2759 12.9373 22.191C13.1247 22.0112 13.3743 21.9108 13.6341 21.9108C13.8938 21.9108 14.1435 22.0112 14.3309 22.191L14.6721 22.5224C14.7596 22.6075 14.8768 22.655 14.9988 22.655C15.1208 22.655 15.2381 22.6075 15.3256 22.5224L15.6668 22.191C15.8543 22.0112 16.104 21.9107 16.3638 21.9107C16.6236 21.9107 16.8734 22.0112 17.0609 22.191C17.15 22.2759 17.2209 22.3779 17.2694 22.491C17.3179 22.6041 17.3429 22.7259 17.3429 22.8489C17.3429 22.9719 17.3179 23.0937 17.2694 23.2068C17.2209 23.3199 17.15 23.422 17.0609 23.5068H17.0623Z" fill="#16BE6E"/>
</svg>
