<svg width="35" height="32" viewBox="0 0 35 32" fill="none" xmlns="http://www.w3.org/2000/svg">
<path d="M17.5 31.4893C17.0017 31.4893 16.5213 31.3088 16.1469 30.9809C14.733 29.7446 13.3698 28.5827 12.1671 27.5579L12.161 27.5525C8.63489 24.5477 5.58997 21.9527 3.47137 19.3964C1.10309 16.5387 0 13.8291 0 10.8691C0 7.99322 0.986136 5.34002 2.77656 3.39792C4.58835 1.43285 7.07438 0.350586 9.77751 0.350586C11.7978 0.350586 13.6481 0.989319 15.2767 2.24889C16.0986 2.88469 16.8436 3.66281 17.5 4.57044C18.1566 3.66281 18.9013 2.88469 19.7235 2.24889C21.3521 0.989319 23.2024 0.350586 25.2227 0.350586C27.9256 0.350586 30.4119 1.43285 32.2236 3.39792C34.0141 5.34002 34.9999 7.99322 34.9999 10.8691C34.9999 13.8291 33.8971 16.5387 31.5288 19.3961C29.4102 21.9527 26.3656 24.5474 22.84 27.552C21.6352 28.5785 20.2699 29.7422 18.8527 30.9815C18.4786 31.3088 17.998 31.4893 17.5 31.4893ZM9.77751 2.40083C7.65383 2.40083 5.70292 3.24838 4.28367 4.78754C2.84332 6.34992 2.04998 8.50965 2.04998 10.8691C2.04998 13.3586 2.97523 15.5851 5.04977 18.0882C7.05489 20.5078 10.0373 23.0494 13.4905 25.9923L13.4969 25.9976C14.7042 27.0265 16.0727 28.1929 17.497 29.4383C18.9299 28.1905 20.3006 27.0222 21.5102 25.9918C24.9631 23.0488 27.9453 20.5078 29.9504 18.0882C32.0247 15.5851 32.95 13.3586 32.95 10.8691C32.95 8.50965 32.1566 6.34992 30.7163 4.78754C29.2973 3.24838 27.3461 2.40083 25.2227 2.40083C23.667 2.40083 22.2387 2.89537 20.9775 3.87056C19.8536 4.74001 19.0706 5.8391 18.6116 6.60814C18.3756 7.00361 17.9601 7.23966 17.5 7.23966C17.0399 7.23966 16.6244 7.00361 16.3883 6.60814C15.9296 5.8391 15.1466 4.74001 14.0225 3.87056C12.7613 2.89537 11.3329 2.40083 9.77751 2.40083Z" fill="black"/>
</svg>
