<svg width="30" height="30" viewBox="0 0 30 30" fill="none" xmlns="http://www.w3.org/2000/svg">
<path d="M11.25 2.8125H5.625C4.87908 2.8125 4.16371 3.10882 3.63626 3.63626C3.10882 4.16371 2.8125 4.87908 2.8125 5.625V11.25C2.8125 11.9959 3.10882 12.7113 3.63626 13.2387C4.16371 13.7662 4.87908 14.0625 5.625 14.0625H11.25C11.9959 14.0625 12.7113 13.7662 13.2387 13.2387C13.7662 12.7113 14.0625 11.9959 14.0625 11.25V5.625C14.0625 4.87908 13.7662 4.16371 13.2387 3.63626C12.7113 3.10882 11.9959 2.8125 11.25 2.8125ZM12.1875 11.25C12.1875 11.4986 12.0887 11.7371 11.9129 11.9129C11.7371 12.0887 11.4986 12.1875 11.25 12.1875H5.625C5.37636 12.1875 5.1379 12.0887 4.96209 11.9129C4.78627 11.7371 4.6875 11.4986 4.6875 11.25V5.625C4.6875 5.37636 4.78627 5.1379 4.96209 4.96209C5.1379 4.78627 5.37636 4.6875 5.625 4.6875H11.25C11.4986 4.6875 11.7371 4.78627 11.9129 4.96209C12.0887 5.1379 12.1875 5.37636 12.1875 5.625V11.25Z" fill="#159557"/>
<path d="M24.375 2.8125H18.75C18.0041 2.8125 17.2887 3.10882 16.7613 3.63626C16.2338 4.16371 15.9375 4.87908 15.9375 5.625V11.25C15.9375 11.9959 16.2338 12.7113 16.7613 13.2387C17.2887 13.7662 18.0041 14.0625 18.75 14.0625H24.375C25.1209 14.0625 25.8363 13.7662 26.3637 13.2387C26.8912 12.7113 27.1875 11.9959 27.1875 11.25V5.625C27.1875 4.87908 26.8912 4.16371 26.3637 3.63626C25.8363 3.10882 25.1209 2.8125 24.375 2.8125ZM25.3125 11.25C25.3125 11.4986 25.2137 11.7371 25.0379 11.9129C24.8621 12.0887 24.6236 12.1875 24.375 12.1875H18.75C18.5014 12.1875 18.2629 12.0887 18.0871 11.9129C17.9113 11.7371 17.8125 11.4986 17.8125 11.25V5.625C17.8125 5.37636 17.9113 5.1379 18.0871 4.96209C18.2629 4.78627 18.5014 4.6875 18.75 4.6875H24.375C24.6236 4.6875 24.8621 4.78627 25.0379 4.96209C25.2137 5.1379 25.3125 5.37636 25.3125 5.625V11.25Z" fill="#159557"/>
<path d="M11.25 15.9375H5.625C4.87908 15.9375 4.16371 16.2338 3.63626 16.7613C3.10882 17.2887 2.8125 18.0041 2.8125 18.75V24.375C2.8125 25.1209 3.10882 25.8363 3.63626 26.3637C4.16371 26.8912 4.87908 27.1875 5.625 27.1875H11.25C11.9959 27.1875 12.7113 26.8912 13.2387 26.3637C13.7662 25.8363 14.0625 25.1209 14.0625 24.375V18.75C14.0625 18.0041 13.7662 17.2887 13.2387 16.7613C12.7113 16.2338 11.9959 15.9375 11.25 15.9375ZM12.1875 24.375C12.1875 24.6236 12.0887 24.8621 11.9129 25.0379C11.7371 25.2137 11.4986 25.3125 11.25 25.3125H5.625C5.37636 25.3125 5.1379 25.2137 4.96209 25.0379C4.78627 24.8621 4.6875 24.6236 4.6875 24.375V18.75C4.6875 18.5014 4.78627 18.2629 4.96209 18.0871C5.1379 17.9113 5.37636 17.8125 5.625 17.8125H11.25C11.4986 17.8125 11.7371 17.9113 11.9129 18.0871C12.0887 18.2629 12.1875 18.5014 12.1875 18.75V24.375Z" fill="#159557"/>
<path d="M26.25 20.625H22.5V16.875C22.5 16.6264 22.4012 16.3879 22.2254 16.2121C22.0496 16.0363 21.8111 15.9375 21.5625 15.9375C21.3139 15.9375 21.0754 16.0363 20.8996 16.2121C20.7238 16.3879 20.625 16.6264 20.625 16.875V20.625H16.875C16.6264 20.625 16.3879 20.7238 16.2121 20.8996C16.0363 21.0754 15.9375 21.3139 15.9375 21.5625C15.9375 21.8111 16.0363 22.0496 16.2121 22.2254C16.3879 22.4012 16.6264 22.5 16.875 22.5H20.625V26.25C20.625 26.4986 20.7238 26.7371 20.8996 26.9129C21.0754 27.0887 21.3139 27.1875 21.5625 27.1875C21.8111 27.1875 22.0496 27.0887 22.2254 26.9129C22.4012 26.7371 22.5 26.4986 22.5 26.25V22.5H26.25C26.4986 22.5 26.7371 22.4012 26.9129 22.2254C27.0887 22.0496 27.1875 21.8111 27.1875 21.5625C27.1875 21.3139 27.0887 21.0754 26.9129 20.8996C26.7371 20.7238 26.4986 20.625 26.25 20.625Z" fill="#159557"/>
</svg>
