<svg width="30" height="30" viewBox="0 0 30 30" fill="none" xmlns="http://www.w3.org/2000/svg">
<g clip-path="url(#clip0_4996_21249)">
<path d="M8.51629 18.6367C8.28479 18.4097 7.91313 18.4132 7.68613 18.6447C7.45914 18.8762 7.46272 19.2479 7.69416 19.4749L9.24268 20.9937L6.25328 20.4466C6.00057 20.4003 5.74715 20.5238 5.62779 20.7513C5.50838 20.9788 5.55086 21.2575 5.7325 21.4392L8.56627 24.2729C8.68088 24.3876 8.83117 24.4449 8.98141 24.4449C9.13164 24.4449 9.28188 24.3876 9.39654 24.2729C9.62582 24.0437 9.62582 23.672 9.39654 23.4427L7.89432 21.9406L10.7328 22.4601C11.0252 22.5134 11.2988 22.386 11.4299 22.1359C11.5633 21.8813 11.5085 21.5759 11.2863 21.3536L8.51629 18.6367Z" fill="#159557"/>
<path d="M16.9072 13.8695L17.5436 13.2331C17.7729 13.0039 17.7729 12.6322 17.5436 12.4029C17.3143 12.1737 16.9427 12.1737 16.7134 12.4029L16.0769 13.0393L15.5247 12.4871L16.2518 11.76C16.4811 11.5307 16.4811 11.159 16.2518 10.9298C16.0225 10.7005 15.6509 10.7005 15.4216 10.9298L14.2793 12.0721C14.1692 12.1822 14.1074 12.3315 14.1074 12.4872C14.1074 12.6429 14.1693 12.7922 14.2794 12.9023L17.0977 15.7206C17.2124 15.8352 17.3625 15.8925 17.5128 15.8925C17.6631 15.8925 17.8133 15.8352 17.928 15.7206C18.1572 15.4913 18.1572 15.1196 17.928 14.8904L16.9072 13.8695Z" fill="#159557"/>
<path d="M20.8931 11.0906L20.1229 11.8608L19.5465 11.2845L20.2293 10.6016C20.4586 10.3723 20.4586 10.0007 20.2293 9.77139C20 9.54211 19.6284 9.54217 19.3991 9.77139L18.7162 10.4542L18.1399 9.87786L18.9101 9.10764C19.1394 8.87836 19.1394 8.5067 18.9101 8.27743C18.6809 8.04815 18.3093 8.04815 18.0799 8.27743L16.8946 9.46278C16.7845 9.57288 16.7227 9.72217 16.7227 9.87792C16.7227 10.0337 16.7845 10.183 16.8946 10.2931L19.7078 13.1062C19.8179 13.2163 19.9672 13.2781 20.1229 13.2781C20.2786 13.2781 20.4279 13.2162 20.538 13.1061L21.7233 11.9208C21.9526 11.6915 21.9526 11.3198 21.7233 11.0906C21.4939 10.8612 21.1223 10.8613 20.8931 11.0906Z" fill="#159557"/>
<path d="M22.0533 7.1161L21.3705 7.79895L20.7942 7.22256L21.5644 6.45235C21.7937 6.22307 21.7937 5.85141 21.5644 5.62213C21.3352 5.39291 20.9636 5.39285 20.7342 5.62213L19.5489 6.80748C19.4388 6.91758 19.377 7.06688 19.377 7.22262C19.377 7.37836 19.4388 7.52766 19.5489 7.63776L22.3621 10.451C22.4767 10.5656 22.6269 10.6229 22.7772 10.6229C22.9274 10.6229 23.0777 10.5656 23.1923 10.451L24.3777 9.26561C24.607 9.03633 24.607 8.66467 24.3777 8.43539C24.1485 8.20612 23.7769 8.20612 23.5475 8.43539L22.7772 9.20567L22.2008 8.62928L22.8837 7.94643C23.1129 7.71715 23.1129 7.34549 22.8837 7.11621C22.6543 6.88682 22.2827 6.88682 22.0533 7.1161Z" fill="#159557"/>
<path d="M10.5224 15.8075C9.51077 16.8192 9.51077 18.4652 10.5224 19.4769C11.0282 19.9826 11.6926 20.2356 12.357 20.2356C13.0215 20.2356 13.6859 19.9827 14.1917 19.4769C15.2033 18.4652 15.2033 16.8192 14.1917 15.8075C13.18 14.7959 11.534 14.7959 10.5224 15.8075ZM13.3614 18.6466C12.8076 19.2005 11.9064 19.2005 11.3525 18.6466C10.7987 18.0928 10.7987 17.1916 11.3525 16.6377C11.6295 16.3607 11.9932 16.2223 12.357 16.2223C12.7207 16.2223 13.0845 16.3608 13.3614 16.6377C13.9153 17.1916 13.9153 18.0928 13.3614 18.6466Z" fill="#159557"/>
<path d="M29.6562 6.3225L23.6775 0.343945C23.4558 0.122168 23.161 0 22.8473 0C22.5337 0 22.2388 0.122109 22.0171 0.343887L20.0555 2.30549C18.3181 1.61543 16.4223 1.28443 14.5469 1.34631C14.2229 1.35703 13.9689 1.62838 13.9796 1.95246C13.9903 2.27643 14.2594 2.52996 14.5858 2.51977C16.1295 2.46844 17.6881 2.70984 19.1424 3.21861L17.2139 5.14711C15.6367 4.79496 13.987 4.82426 12.4216 5.23477C10.6986 5.6867 9.12004 6.59344 7.85647 7.85695C6.5929 9.12053 5.68616 10.6992 5.23422 12.4221C4.82366 13.9874 4.79442 15.6371 5.14657 17.2143L3.21684 19.1441C2.49702 17.0975 2.32288 14.9038 2.7161 12.7479C3.17202 10.2485 4.36639 7.97408 6.1702 6.17051C7.19319 5.14699 8.36969 4.31742 9.66702 3.70494C9.96022 3.56648 10.0857 3.21662 9.94721 2.92342C9.80875 2.63027 9.45895 2.50488 9.16569 2.64322C7.74579 3.31365 6.45854 4.22115 5.33987 5.34041C3.36661 7.31338 2.05991 9.80197 1.56098 12.5372C1.09727 15.0795 1.35526 17.6702 2.305 20.0558L0.343345 22.0176C-0.114448 22.4754 -0.114448 23.2202 0.343345 23.678L6.32202 29.6567C6.55094 29.8856 6.85159 30 7.15223 30C7.45288 30 7.75352 29.8856 7.98245 29.6567L9.94469 27.6945C11.5587 28.3372 13.2664 28.6634 14.9896 28.6634C15.8136 28.6634 16.641 28.5889 17.4633 28.4389C20.1982 27.9402 22.6868 26.6337 24.6602 24.6606C26.6332 22.6873 27.9397 20.1987 28.4384 17.4639C28.902 14.9218 28.6438 12.331 27.6938 9.94529L29.6561 7.98299C30.1139 7.5252 30.1139 6.78029 29.6562 6.3225ZM6.36989 12.7201C6.76903 11.1982 7.57012 9.80367 8.68668 8.68723C9.80313 7.57072 11.1977 6.76963 12.7195 6.37049C13.8557 6.07254 15.0421 6.00258 16.2022 6.15891L6.15831 16.2027C6.00192 15.0426 6.07188 13.8562 6.36989 12.7201ZM27.2834 17.2532C26.8277 19.7522 25.6335 22.0267 23.83 23.8304C22.0262 25.634 19.7518 26.8282 17.2527 27.2839C15.0969 27.677 12.9031 27.5027 10.8564 26.7827L12.7857 24.8534C13.5138 25.016 14.2572 25.0974 15.0008 25.0973C15.8679 25.0973 16.7353 24.9868 17.5778 24.7658C19.3008 24.3138 20.8795 23.4071 22.143 22.1436C23.4066 20.88 24.3133 19.3014 24.7653 17.5784C25.1758 16.0131 25.2051 14.3634 24.8529 12.7862L26.7821 10.857C27.5022 12.9037 27.6766 15.0974 27.2834 17.2532ZM23.8413 13.7979C23.9976 14.958 23.9277 16.1444 23.6297 17.2806C23.2305 18.8024 22.4294 20.197 21.3129 21.3134C20.1964 22.4299 18.8018 23.231 17.2801 23.6302C16.1439 23.9282 14.9574 23.9982 13.7974 23.8419L23.8413 13.7979ZM28.8259 7.15277L7.15223 28.8265L1.17356 22.8478L22.8473 1.1741L28.8264 7.15219C28.8264 7.15225 28.8262 7.15236 28.8259 7.15277Z" fill="#159557"/>
<path d="M12.0307 2.87039C12.3496 2.81572 12.5638 2.51285 12.5091 2.19393C12.4543 1.875 12.1515 1.66084 11.8326 1.71557C11.5137 1.77029 11.2995 2.07311 11.3542 2.39203C11.409 2.7109 11.7118 2.92512 12.0307 2.87039Z" fill="black"/>
</g>
<defs>
<clipPath id="clip0_4996_21249">
<rect width="30" height="30" fill="white"/>
</clipPath>
</defs>
</svg>
