<svg width="30" height="29" viewBox="0 0 30 29" fill="none" xmlns="http://www.w3.org/2000/svg">
<path d="M21.5625 13.3184C20.0791 13.3184 18.6291 13.7582 17.3957 14.5823C16.1624 15.4064 15.2011 16.5778 14.6334 17.9482C14.0657 19.3187 13.9172 20.8267 14.2066 22.2815C14.496 23.7364 15.2103 25.0728 16.2592 26.1217C17.3081 27.1706 18.6445 27.8849 20.0993 28.1742C21.5542 28.4636 23.0622 28.3151 24.4326 27.7475C25.8031 27.1798 26.9744 26.2185 27.7985 24.9851C28.6226 23.7518 29.0625 22.3017 29.0625 20.8184C29.0601 18.83 28.2692 16.9237 26.8632 15.5177C25.4572 14.1116 23.5509 13.3207 21.5625 13.3184ZM21.5625 27.3809C20.2646 27.3809 18.9958 26.996 17.9166 26.2749C16.8374 25.5538 15.9962 24.5289 15.4995 23.3297C15.0028 22.1306 14.8729 20.8111 15.1261 19.5381C15.3793 18.2651 16.0043 17.0958 16.9221 16.178C17.8399 15.2602 19.0092 14.6352 20.2822 14.382C21.5552 14.1287 22.8747 14.2587 24.0739 14.7554C25.273 15.2521 26.2979 16.0932 27.019 17.1724C27.7401 18.2516 28.125 19.5204 28.125 20.8184C28.1231 22.5583 27.4311 24.2264 26.2008 25.4567C24.9705 26.687 23.3024 27.379 21.5625 27.3809Z" fill="#16BE6E"/>
<path d="M8.4375 15.1934C9.92086 15.1934 11.3709 14.7535 12.6043 13.9294C13.8376 13.1053 14.7989 11.9339 15.3666 10.5635C15.9343 9.19304 16.0828 7.68504 15.7934 6.23019C15.504 4.77533 14.7897 3.43896 13.7408 2.39006C12.6919 1.34117 11.3555 0.626862 9.90068 0.337473C8.44582 0.048084 6.93782 0.196609 5.56737 0.764266C4.19693 1.33192 3.02559 2.29322 2.20148 3.52659C1.37737 4.75995 0.9375 6.21 0.9375 7.69336C0.939857 9.68176 1.73079 11.588 3.1368 12.9941C4.54281 14.4001 6.4491 15.191 8.4375 15.1934ZM8.4375 1.13086C9.73544 1.13086 11.0042 1.51575 12.0834 2.23684C13.1626 2.95794 14.0038 3.98286 14.5005 5.182C14.9972 6.38114 15.1271 7.70064 14.8739 8.97364C14.6207 10.2466 13.9957 11.416 13.0779 12.3338C12.1601 13.2515 10.9908 13.8766 9.71778 14.1298C8.44478 14.383 7.12528 14.253 5.92614 13.7563C4.727 13.2596 3.70208 12.4185 2.98098 11.3393C2.25988 10.2601 1.875 8.9913 1.875 7.69336C1.87686 5.95345 2.56886 4.28533 3.79917 3.05503C5.02947 1.82473 6.69759 1.13272 8.4375 1.13086Z" fill="#16BE6E"/>
<path d="M5.625 10.0371C5.50068 10.0371 5.38145 10.0865 5.29354 10.1744C5.20564 10.2623 5.15625 10.3815 5.15625 10.5059C5.15625 10.6302 5.20564 10.7494 5.29354 10.8373C5.38145 10.9252 5.50068 10.9746 5.625 10.9746H7.03125V11.4434C7.03125 11.5677 7.08064 11.6869 7.16854 11.7748C7.25645 11.8627 7.37568 11.9121 7.5 11.9121C7.62432 11.9121 7.74355 11.8627 7.83146 11.7748C7.91936 11.6869 7.96875 11.5677 7.96875 11.4434V10.9746H8.90625V11.4434C8.90625 11.5677 8.95564 11.6869 9.04354 11.7748C9.13145 11.8627 9.25068 11.9121 9.375 11.9121C9.49932 11.9121 9.61855 11.8627 9.70646 11.7748C9.79436 11.6869 9.84375 11.5677 9.84375 11.4434V10.9746C10.2255 10.9763 10.5986 10.8609 10.9127 10.644C11.2269 10.4272 11.467 10.1192 11.6008 9.76162C11.7345 9.40406 11.7554 9.0141 11.6607 8.64428C11.5659 8.27447 11.3601 7.94259 11.0709 7.69336C11.3601 7.44413 11.5659 7.11225 11.6607 6.74243C11.7554 6.37262 11.7345 5.98266 11.6008 5.6251C11.467 5.26753 11.2269 4.95956 10.9127 4.74267C10.5986 4.52579 10.2255 4.41042 9.84375 4.41211V3.94336C9.84375 3.81904 9.79436 3.69981 9.70646 3.6119C9.61855 3.524 9.49932 3.47461 9.375 3.47461C9.25068 3.47461 9.13145 3.524 9.04354 3.6119C8.95564 3.69981 8.90625 3.81904 8.90625 3.94336V4.41211H7.96875V3.94336C7.96875 3.81904 7.91936 3.69981 7.83146 3.6119C7.74355 3.524 7.62432 3.47461 7.5 3.47461C7.37568 3.47461 7.25645 3.524 7.16854 3.6119C7.08064 3.69981 7.03125 3.81904 7.03125 3.94336V4.41211H5.625C5.50068 4.41211 5.38145 4.4615 5.29354 4.5494C5.20564 4.63731 5.15625 4.75654 5.15625 4.88086C5.15625 5.00518 5.20564 5.12441 5.29354 5.21232C5.38145 5.30022 5.50068 5.34961 5.625 5.34961H6.09375V10.0371H5.625ZM7.03125 5.34961H9.84375C10.0924 5.34961 10.3308 5.44838 10.5067 5.6242C10.6825 5.80001 10.7812 6.03847 10.7812 6.28711C10.7812 6.53575 10.6825 6.77421 10.5067 6.95002C10.3308 7.12584 10.0924 7.22461 9.84375 7.22461H7.03125V5.34961ZM7.03125 8.16211H9.84375C10.0924 8.16211 10.3308 8.26088 10.5067 8.4367C10.6825 8.61251 10.7812 8.85097 10.7812 9.09961C10.7812 9.34825 10.6825 9.58671 10.5067 9.76252C10.3308 9.93834 10.0924 10.0371 9.84375 10.0371H7.03125V8.16211Z" fill="#16BE6E"/>
<path d="M22.5 20.3496H20.625C20.3764 20.3496 20.1379 20.2508 19.9621 20.075C19.7863 19.8992 19.6875 19.6607 19.6875 19.4121C19.6875 19.1635 19.7863 18.925 19.9621 18.7492C20.1379 18.5734 20.3764 18.4746 20.625 18.4746H23.4375C23.5618 18.4746 23.681 18.4252 23.769 18.3373C23.8569 18.2494 23.9062 18.1302 23.9062 18.0059C23.9062 17.8815 23.8569 17.7623 23.769 17.6744C23.681 17.5865 23.5618 17.5371 23.4375 17.5371H22.0312V17.0684C22.0312 16.944 21.9819 16.8248 21.894 16.7369C21.806 16.649 21.6868 16.5996 21.5625 16.5996C21.4382 16.5996 21.319 16.649 21.231 16.7369C21.1431 16.8248 21.0938 16.944 21.0938 17.0684V17.5371H20.625C20.1277 17.5371 19.6508 17.7347 19.2992 18.0863C18.9475 18.4379 18.75 18.9148 18.75 19.4121C18.75 19.9094 18.9475 20.3863 19.2992 20.7379C19.6508 21.0896 20.1277 21.2871 20.625 21.2871H22.5C22.7486 21.2871 22.9871 21.3859 23.1629 21.5617C23.3387 21.7375 23.4375 21.976 23.4375 22.2246C23.4375 22.4732 23.3387 22.7117 23.1629 22.8875C22.9871 23.0633 22.7486 23.1621 22.5 23.1621H19.2188C19.0944 23.1621 18.9752 23.2115 18.8873 23.2994C18.7994 23.3873 18.75 23.5065 18.75 23.6309C18.75 23.7552 18.7994 23.8744 18.8873 23.9623C18.9752 24.0502 19.0944 24.0996 19.2188 24.0996H21.0938V24.5684C21.0938 24.6927 21.1431 24.8119 21.231 24.8998C21.319 24.9877 21.4382 25.0371 21.5625 25.0371C21.6868 25.0371 21.806 24.9877 21.894 24.8998C21.9819 24.8119 22.0312 24.6927 22.0312 24.5684V24.0996H22.5C22.9973 24.0996 23.4742 23.9021 23.8258 23.5504C24.1775 23.1988 24.375 22.7219 24.375 22.2246C24.375 21.7273 24.1775 21.2504 23.8258 20.8988C23.4742 20.5472 22.9973 20.3496 22.5 20.3496Z" fill="#16BE6E"/>
<path d="M21.9095 1.32159V0.990181C21.9091 0.810191 21.8569 0.634117 21.7592 0.48299C21.6614 0.331863 21.5222 0.212073 21.3582 0.137928C21.1942 0.0637826 21.0123 0.0384173 20.8343 0.0648616C20.6562 0.0913059 20.4896 0.168442 20.3542 0.287056L17.785 2.53706C17.6852 2.62554 17.6054 2.73417 17.5507 2.85578C17.496 2.97738 17.4678 3.1092 17.4678 3.24252C17.4678 3.37585 17.496 3.50767 17.5507 3.62927C17.6054 3.75088 17.6852 3.8595 17.785 3.94799L20.3546 6.19799C20.489 6.31543 20.654 6.3921 20.8304 6.419C21.0068 6.4459 21.1872 6.42191 21.3504 6.34985C21.5136 6.27779 21.6529 6.16065 21.7518 6.01219C21.8508 5.86374 21.9053 5.69012 21.909 5.51174C23.5275 6.48987 24.7868 7.96442 25.4996 9.71596C25.6306 10.043 25.88 10.3087 26.1982 10.4602C26.5163 10.6116 26.8798 10.6376 27.2162 10.533L28.1134 10.2541C28.2981 10.1956 28.4689 10.0999 28.6152 9.97291C28.7615 9.84588 28.8802 9.69021 28.9639 9.51551C29.0477 9.3408 29.0948 9.15078 29.1022 8.95718C29.1097 8.76357 29.0774 8.5705 29.0073 8.38987C28.3616 6.79421 27.4 5.34554 26.1802 4.13089C24.9605 2.91623 23.5078 1.96067 21.9095 1.32159ZM28.1218 9.10893C28.0939 9.16851 28.0538 9.22154 28.0041 9.26459C27.9543 9.30763 27.8961 9.33972 27.8331 9.35878L26.9359 9.63721C26.8236 9.67179 26.7025 9.66265 26.5966 9.61162C26.4908 9.56059 26.4083 9.47144 26.3654 9.36206C25.4664 7.15293 23.7898 5.3493 21.6521 4.29159C21.5806 4.2563 21.5013 4.23974 21.4216 4.24344C21.342 4.24714 21.2645 4.271 21.1966 4.31277C21.1286 4.35454 21.0724 4.41287 21.0331 4.48229C20.9938 4.55171 20.9728 4.62996 20.972 4.70971V5.49018L18.4023 3.24018L20.972 0.990181V1.63706C20.972 1.73167 21.0005 1.82408 21.054 1.90213C21.1075 1.98019 21.1833 2.04025 21.2715 2.0744C22.8152 2.64839 24.2225 3.5373 25.404 4.68461C26.5855 5.83191 27.5154 7.21251 28.1345 8.73862C28.1583 8.79781 28.1695 8.86134 28.1673 8.92511C28.1652 8.98889 28.1497 9.0515 28.1218 9.10893Z" fill="#16BE6E"/>
<path d="M8.0899 27.1904V27.5186C8.09179 27.6979 8.14481 27.873 8.24272 28.0232C8.34064 28.1735 8.47938 28.2927 8.64268 28.3669C8.80597 28.4411 8.98704 28.4671 9.16461 28.442C9.34219 28.4168 9.50891 28.3416 9.64521 28.225L12.2144 25.975C12.3142 25.8865 12.394 25.7779 12.4487 25.6563C12.5033 25.5347 12.5316 25.4028 12.5316 25.2695C12.5316 25.1362 12.5033 25.0044 12.4487 24.8828C12.394 24.7612 12.3142 24.6525 12.2144 24.564L9.64474 22.314C9.51042 22.1966 9.34538 22.1199 9.169 22.093C8.99263 22.0661 8.81224 22.0901 8.64902 22.1622C8.4858 22.2342 8.34654 22.3514 8.24758 22.4998C8.14862 22.6483 8.09408 22.8219 8.09036 23.0003C6.47211 22.0207 5.21355 20.5446 4.50208 18.7919C4.37154 18.4644 4.1222 18.1984 3.80394 18.0469C3.48567 17.8954 3.12195 17.8697 2.78552 17.9748L1.88833 18.2537C1.70361 18.3122 1.53283 18.4079 1.38654 18.5349C1.24025 18.6619 1.12155 18.8176 1.03778 18.9923C0.954012 19.167 0.906945 19.357 0.899488 19.5506C0.892031 19.7442 0.924342 19.9373 0.994427 20.118C1.63942 21.7142 2.60047 23.1635 3.8198 24.3789C5.03913 25.5943 6.49159 26.5506 8.0899 27.1904ZM1.87755 19.4031C1.90545 19.3435 1.94559 19.2905 1.99533 19.2475C2.04508 19.2044 2.10333 19.1723 2.1663 19.1533L3.06349 18.8748C3.17576 18.841 3.29662 18.8505 3.40222 18.9015C3.50783 18.9524 3.59051 19.0411 3.63396 19.15C4.53297 21.3591 6.20955 23.1627 8.34724 24.2205C8.41877 24.2557 8.49808 24.2723 8.57776 24.2686C8.65743 24.2649 8.73487 24.241 8.80282 24.1993C8.87076 24.1575 8.92701 24.0992 8.96628 24.0298C9.00556 23.9603 9.02659 23.8821 9.0274 23.8023V23.0219L11.5971 25.2719L9.0274 27.5219V26.875C9.02744 26.7804 8.99885 26.688 8.94539 26.6099C8.89193 26.5318 8.8161 26.4718 8.72786 26.4376C7.18422 25.8636 5.7769 24.9747 4.59538 23.8274C3.41386 22.6801 2.48399 21.2995 1.8649 19.7734C1.84106 19.7142 1.82988 19.6507 1.83206 19.5869C1.83424 19.5231 1.84973 19.4605 1.87755 19.4031Z" fill="#16BE6E"/>
</svg>
