<svg width="19" height="20" viewBox="0 0 19 20" fill="none" xmlns="http://www.w3.org/2000/svg">
<g clip-path="url(#clip0_5404_35897)">
<path d="M14.1894 7.01682C11.9822 5.7823 8.43963 3.79995 2.94476 0.723248C2.5743 0.478586 2.14806 0.446523 1.77979 0.571174L11.2074 9.99883L14.1894 7.01682Z" fill="#32BBFF"/>
<path d="M1.77998 0.571289C1.71095 0.594668 1.64378 0.622871 1.57955 0.656938C1.17287 0.876923 0.874023 1.30023 0.874023 1.83561V18.1623C0.874023 18.6977 1.17283 19.121 1.57955 19.3409C1.64367 19.3749 1.7108 19.4033 1.77975 19.4268L11.2076 9.99895L1.77998 0.571289Z" fill="#32BBFF"/>
<path d="M11.2077 9.99902L1.77979 19.4269C2.14817 19.5524 2.57441 19.5228 2.94498 19.2746C8.27383 16.2906 11.7765 14.3318 14.0092 13.0868C14.0714 13.0518 14.1323 13.0177 14.1925 12.9839L11.2077 9.99902Z" fill="#32BBFF"/>
<path d="M0.874023 9.99902V18.1624C0.874023 18.6977 1.17283 19.121 1.57955 19.341C1.64367 19.375 1.7108 19.4033 1.77975 19.4269L11.2076 9.99902H0.874023Z" fill="#2C9FD9"/>
<path d="M2.94499 0.723692C2.50506 0.4332 1.98627 0.441475 1.57959 0.657304L11.0646 10.1423L14.1896 7.01727C11.9825 5.78275 8.43987 3.8004 2.94499 0.723692Z" fill="#29CC5E"/>
<path d="M11.0647 9.85645L1.57959 19.3414C1.98631 19.5572 2.50506 19.5697 2.945 19.275C8.27384 16.2911 11.7765 14.3322 14.0093 13.0872C14.0714 13.0523 14.1323 13.0181 14.1925 12.9843L11.0647 9.85645Z" fill="#D93F21"/>
<path d="M18.1261 9.99969C18.1261 9.54732 17.8978 9.0908 17.4454 8.83764C17.4454 8.83764 16.5994 8.36557 14.006 6.91504L10.9214 9.99969L14.009 13.0874C16.5739 11.6473 17.4454 11.1617 17.4454 11.1617C17.8978 10.9086 18.1261 10.4521 18.1261 9.99969Z" fill="#FFD500"/>
<path d="M17.4454 11.1611C17.8978 10.9079 18.1261 10.4514 18.1261 9.99902H10.9214L14.009 13.0867C16.5739 11.6466 17.4454 11.1611 17.4454 11.1611Z" fill="#FFAA00"/>
</g>
<defs>
<clipPath id="clip0_5404_35897">
<rect width="19" height="19" fill="white" transform="translate(0 0.5)"/>
</clipPath>
</defs>
</svg>
