<svg width="60" height="61" viewBox="0 0 60 61" fill="none" xmlns="http://www.w3.org/2000/svg">
<g clip-path="url(#clip0_2476_24519)">
<path d="M52.7204 12.6483L30.1698 0.63221C29.8352 0.45366 29.4343 0.456165 29.1022 0.638475L7.1756 12.6546C6.81599 12.852 6.59296 13.2291 6.59296 13.6395V29.3356C6.60611 42.2382 14.2506 53.9111 26.0725 59.0803L29.116 60.4066C29.4004 60.5306 29.7243 60.5312 30.0094 60.4078L33.4388 58.9268C45.48 53.8697 53.3137 42.0841 53.3149 29.0243V13.6395C53.3149 13.2247 53.0863 12.8432 52.7204 12.6483ZM51.0696 29.0243C51.0671 41.1839 43.7716 52.1556 32.5598 56.8612L32.5523 56.865L29.5658 58.1543L26.9709 57.0222C15.9665 52.2108 8.85021 41.3461 8.83768 29.3356V14.3042L29.6492 2.89824L51.0696 14.3123V29.0243Z" fill="#159557"/>
<path d="M21.3663 28.6074C20.9634 28.1357 20.2549 28.0799 19.7831 28.4827C19.3114 28.885 19.2556 29.5941 19.6585 30.0653L25.5888 37.0099C25.9848 37.4735 26.6783 37.5368 27.1507 37.1522L40.9624 25.9154C41.4435 25.5244 41.5162 24.8171 41.1246 24.336C40.7337 23.8555 40.0264 23.7822 39.5452 24.1737L26.5843 34.7176L21.3663 28.6074Z" fill="#5C6271"/>
</g>
<defs>
<clipPath id="clip0_2476_24519">
<rect width="60" height="60" fill="white" transform="translate(0 0.5)"/>
</clipPath>
</defs>
</svg>
