<svg width="30" height="31" viewBox="0 0 30 31" fill="none" xmlns="http://www.w3.org/2000/svg">
<g clip-path="url(#clip0_4853_7848)">
<path d="M23.2115 4.33555C22.9739 4.12723 22.6808 3.99265 22.368 3.94825C22.0551 3.90385 21.7362 3.95156 21.45 4.08555C21.1657 4.21278 20.9245 4.41997 20.7558 4.68186C20.5871 4.94375 20.4982 5.24904 20.5 5.56055V6.93555C19.6593 6.9372 18.8212 7.02872 18 7.20855V2.43555C18 1.90511 17.7893 1.39641 17.4142 1.02133C17.0391 0.646261 16.5304 0.435547 16 0.435547L2 0.435547C1.46957 0.435547 0.960859 0.646261 0.585787 1.02133C0.210714 1.39641 0 1.90511 0 2.43555L0 28.4355C0 28.966 0.210714 29.4747 0.585787 29.8498C0.960859 30.2248 1.46957 30.4355 2 30.4355H16C16.5304 30.4355 17.0391 30.2248 17.4142 29.8498C17.7893 29.4747 18 28.966 18 28.4355V14.9505C18.1643 14.9405 18.331 14.9355 18.5 14.9355H20.5V16.3105C20.4982 16.6221 20.5871 16.9273 20.7558 17.1892C20.9245 17.4511 21.1657 17.6583 21.45 17.7855C21.7363 17.9191 22.0551 17.9666 22.3679 17.9222C22.6806 17.8778 22.9737 17.7435 23.2115 17.5355L29.4365 12.1605C29.6131 12.0094 29.7549 11.8218 29.8522 11.6106C29.9494 11.3995 29.9997 11.1698 29.9997 10.9373C29.9997 10.7048 29.9494 10.4751 29.8522 10.264C29.7549 10.0528 29.6131 9.86519 29.4365 9.71405L23.2115 4.33555ZM5 1.43555H13V2.93555C13 3.06816 12.9473 3.19533 12.8536 3.2891C12.7598 3.38287 12.6326 3.43555 12.5 3.43555H5.5C5.36739 3.43555 5.24022 3.38287 5.14645 3.2891C5.05268 3.19533 5 3.06816 5 2.93555V1.43555ZM17 28.4355C17 28.7008 16.8946 28.9551 16.7071 29.1427C16.5196 29.3302 16.2652 29.4355 16 29.4355H2C1.73478 29.4355 1.48043 29.3302 1.29289 29.1427C1.10536 28.9551 1 28.7008 1 28.4355V2.43555C1 2.17033 1.10536 1.91598 1.29289 1.72844C1.48043 1.5409 1.73478 1.43555 2 1.43555H4V2.93555C4 3.33337 4.15804 3.7149 4.43934 3.99621C4.72064 4.27751 5.10218 4.43555 5.5 4.43555H12.5C12.8978 4.43555 13.2794 4.27751 13.5607 3.99621C13.842 3.7149 14 3.33337 14 2.93555V1.43555H16C16.2652 1.43555 16.5196 1.5409 16.7071 1.72844C16.8946 1.91598 17 2.17033 17 2.43555V7.47305C14.9643 8.07678 13.1803 9.32654 11.9175 11.0336C10.6547 12.7406 9.98161 14.8123 10 16.9355V18.4185C9.99841 18.639 10.0695 18.8539 10.2023 19.03C10.335 19.206 10.5221 19.3334 10.7345 19.3925C10.8262 19.419 10.9211 19.4325 11.0165 19.4325C11.1889 19.4323 11.3583 19.3878 11.5085 19.3033C11.6587 19.2189 11.7848 19.0972 11.8745 18.95C13.2345 16.7545 14.921 15.476 17 15.074V28.4355ZM28.783 11.4025L22.558 16.7775C22.4651 16.8599 22.3499 16.9131 22.2269 16.9303C22.1039 16.9476 21.9785 16.9282 21.8665 16.8745C21.7567 16.827 21.6634 16.7481 21.5982 16.6478C21.5331 16.5475 21.4989 16.4302 21.5 16.3105V14.4355C21.5 14.3029 21.4473 14.1758 21.3536 14.082C21.2598 13.9882 21.1326 13.9355 21 13.9355H18.5C15.3405 13.9355 12.895 15.404 11 18.4185V16.9355C11 11.8045 15.084 7.93555 20.5 7.93555H21C21.1326 7.93555 21.2598 7.88287 21.3536 7.7891C21.4473 7.69533 21.5 7.56816 21.5 7.43555V5.56055C21.4989 5.44092 21.5331 5.32362 21.5982 5.2233C21.6634 5.12299 21.7567 5.04412 21.8665 4.99655C21.9785 4.94299 22.1039 4.92363 22.2269 4.94088C22.3498 4.95813 22.465 5.01123 22.558 5.09355L28.7825 10.468C28.8506 10.5254 28.9053 10.5969 28.9428 10.6776C28.9804 10.7584 28.9998 10.8463 28.9998 10.9353C28.9998 11.0243 28.9804 11.1122 28.9428 11.193C28.9053 11.2737 28.8506 11.3452 28.7825 11.4025H28.783Z" fill="#16BE6E"/>
<path d="M4.99992 14.8855V17.873C4.57424 17.7717 4.17958 17.5683 3.84992 17.2805C3.7559 17.187 3.62857 17.1346 3.49594 17.1349C3.3633 17.1353 3.23623 17.1883 3.14267 17.2823C3.04912 17.3763 2.99674 17.5036 2.99707 17.6363C2.9974 17.7689 3.0504 17.896 3.14442 17.9895C3.66154 18.4658 4.30639 18.7809 4.99992 18.896V19.4355C4.99992 19.5682 5.0526 19.6953 5.14637 19.7891C5.24014 19.8829 5.36731 19.9355 5.49992 19.9355C5.63253 19.9355 5.75971 19.8829 5.85348 19.7891C5.94724 19.6953 5.99992 19.5682 5.99992 19.4355V18.8855C6.56507 18.7708 7.07316 18.4642 7.43811 18.0177C7.80306 17.5712 8.00243 17.0122 8.00243 16.4355C8.00243 15.8589 7.80306 15.2999 7.43811 14.8534C7.07316 14.4069 6.56507 14.1003 5.99992 13.9855V10.9985C6.42408 11.1001 6.81741 11.3027 7.14642 11.589C7.19255 11.6368 7.24772 11.6749 7.30872 11.7011C7.36972 11.7273 7.43533 11.7411 7.50172 11.7417C7.56811 11.7422 7.63395 11.7296 7.6954 11.7045C7.75685 11.6793 7.81267 11.6422 7.85962 11.5952C7.90657 11.5483 7.94369 11.4925 7.96883 11.431C7.99397 11.3696 8.00663 11.3037 8.00605 11.2373C8.00547 11.171 7.99168 11.1053 7.96547 11.0443C7.93927 10.9833 7.90118 10.9282 7.85342 10.882C7.33692 10.4059 6.6928 10.0907 5.99992 9.97505V9.43555C5.99992 9.30294 5.94724 9.17576 5.85348 9.08199C5.75971 8.98822 5.63253 8.93555 5.49992 8.93555C5.36731 8.93555 5.24014 8.98822 5.14637 9.08199C5.0526 9.17576 4.99992 9.30294 4.99992 9.43555V9.98555C4.43478 10.1003 3.92669 10.4069 3.56173 10.8534C3.19678 11.2999 2.99742 11.8589 2.99742 12.4355C2.99742 13.0122 3.19678 13.5712 3.56173 14.0177C3.92669 14.4642 4.43478 14.7708 4.99992 14.8855ZM6.99992 16.4355C6.99864 16.7447 6.90188 17.0459 6.72288 17.2979C6.54388 17.5499 6.29138 17.7405 5.99992 17.8435V15.0275C6.29138 15.1306 6.54388 15.3212 6.72288 15.5732C6.90188 15.8252 6.99864 16.1264 6.99992 16.4355ZM4.99992 11.0275V13.8435C4.70765 13.7417 4.45431 13.5515 4.27504 13.2992C4.09577 13.0469 3.99945 12.745 3.99945 12.4355C3.99945 12.126 4.09577 11.8242 4.27504 11.5719C4.45431 11.3196 4.70765 11.1294 4.99992 11.0275Z" fill="#16BE6E"/>
<path d="M3 3.43555V2.93555C3 2.80294 2.94732 2.67576 2.85355 2.58199C2.75979 2.48823 2.63261 2.43555 2.5 2.43555C2.36739 2.43555 2.24021 2.48823 2.14645 2.58199C2.05268 2.67576 2 2.80294 2 2.93555V3.43555C2 3.56816 2.05268 3.69533 2.14645 3.7891C2.24021 3.88287 2.36739 3.93555 2.5 3.93555C2.63261 3.93555 2.75979 3.88287 2.85355 3.7891C2.94732 3.69533 3 3.56816 3 3.43555Z" fill="#16BE6E"/>
<path d="M15.5 3.93555C15.6326 3.93555 15.7598 3.88287 15.8536 3.7891C15.9473 3.69533 16 3.56816 16 3.43555V2.93555C16 2.80294 15.9473 2.67576 15.8536 2.58199C15.7598 2.48823 15.6326 2.43555 15.5 2.43555C15.3674 2.43555 15.2402 2.48823 15.1464 2.58199C15.0527 2.67576 15 2.80294 15 2.93555V3.43555C15 3.56816 15.0527 3.69533 15.1464 3.7891C15.2402 3.88287 15.3674 3.93555 15.5 3.93555Z" fill="#16BE6E"/>
<path d="M12.5 27.4355H5.5C5.36739 27.4355 5.24021 27.4882 5.14645 27.582C5.05268 27.6758 5 27.8029 5 27.9355C5 28.0682 5.05268 28.1953 5.14645 28.2891C5.24021 28.3829 5.36739 28.4355 5.5 28.4355H12.5C12.6326 28.4355 12.7598 28.3829 12.8536 28.2891C12.9473 28.1953 13 28.0682 13 27.9355C13 27.8029 12.9473 27.6758 12.8536 27.582C12.7598 27.4882 12.6326 27.4355 12.5 27.4355Z" fill="black"/>
<path d="M2.5 21.9355C2.5 22.0682 2.55268 22.1953 2.64645 22.2891C2.74021 22.3829 2.86739 22.4355 3 22.4355H15C15.1326 22.4355 15.2598 22.3829 15.3536 22.2891C15.4473 22.1953 15.5 22.0682 15.5 21.9355C15.5 21.8029 15.4473 21.6758 15.3536 21.582C15.2598 21.4882 15.1326 21.4355 15 21.4355H3C2.86739 21.4355 2.74021 21.4882 2.64645 21.582C2.55268 21.6758 2.5 21.8029 2.5 21.9355Z" fill="black"/>
</g>
<defs>
<clipPath id="clip0_4853_7848">
<rect width="30" height="30" fill="white" transform="translate(0 0.435547)"/>
</clipPath>
</defs>
</svg>
