<svg width="30" height="31" viewBox="0 0 30 31" fill="none" xmlns="http://www.w3.org/2000/svg">
<g clip-path="url(#clip0_4996_34078)">
<path d="M28.9765 10.5788L22.1856 3.78781C21.6253 3.22748 21.0569 2.94336 20.4964 2.94336C19.7268 2.94336 18.8281 3.52871 18.8281 5.17842V7.49041C13.8943 7.70545 9.28676 9.72887 5.77254 13.2429C2.05043 16.9647 0.000410167 21.9133 1.06407e-08 27.177C-5.85831e-05 27.5551 0.241875 27.891 0.600586 28.0107C0.692109 28.0412 0.785918 28.056 0.878789 28.056C1.1499 28.056 1.41234 27.9302 1.58162 27.705C5.73105 22.1816 11.9784 18.9175 18.8281 18.6597V20.936C18.8281 22.5857 19.7268 23.1711 20.4963 23.1712H20.4964C21.0569 23.1712 21.6253 22.887 22.1856 22.3267L28.9765 15.5357C29.6365 14.8758 30 13.9956 30 13.0573C30 12.1189 29.6365 11.2387 28.9765 10.5788ZM27.7336 14.2927L20.9426 21.0838C20.8124 21.2141 20.7045 21.2963 20.6249 21.3463C20.604 21.2547 20.5859 21.1203 20.5859 20.9361V17.7644C20.5859 17.279 20.1924 16.8854 19.707 16.8854C15.8019 16.8854 12.0704 17.7802 8.61621 19.5447C6.13652 20.8114 3.86977 22.5166 1.95018 24.5473C3.22717 15.8932 10.7038 9.22912 19.707 9.22912C20.1924 9.22912 20.5859 8.83561 20.5859 8.35021V5.17842C20.5859 4.99426 20.604 4.85978 20.6249 4.76826C20.7045 4.81824 20.8124 4.90051 20.9426 5.03076L27.7336 11.8218C28.0616 12.1497 28.2422 12.5885 28.2422 13.0573C28.2422 13.526 28.0616 13.9648 27.7336 14.2927Z" fill="#159557"/>
</g>
<defs>
<clipPath id="clip0_4996_34078">
<rect width="30" height="30" fill="white" transform="translate(0 0.5)"/>
</clipPath>
</defs>
</svg>
