<svg width="26" height="25" viewBox="0 0 26 25" fill="none" xmlns="http://www.w3.org/2000/svg">
<path d="M21.8612 3.94861C19.9007 3.83493 17.6788 2.54212 16.8146 1.99205C16.3744 1.71109 15.863 1.56204 15.3408 1.56251H11.4595C10.9404 1.56101 10.4317 1.70821 9.99353 1.98671C9.12818 2.53868 6.90324 3.83455 4.93868 3.94861C4.64073 3.96658 4.36089 4.09765 4.15634 4.31503C3.95179 4.53242 3.83797 4.8197 3.83813 5.11819L3.83834 12.6125C3.83374 13.4822 3.9861 14.3456 4.28808 15.1611C4.98266 17.0484 6.08812 18.7577 7.52446 20.1653C8.9608 21.5729 10.6921 22.6436 12.5931 23.2998C13.1155 23.4829 13.6848 23.4829 14.2072 23.2998C16.1079 22.6437 17.8389 21.5734 19.2751 20.1661C20.7113 18.7589 21.8167 17.05 22.5113 15.1631C22.8138 14.3463 22.9664 13.4816 22.9618 12.6106L22.962 5.11972C22.9623 4.821 22.8486 4.53343 22.644 4.31576C22.4394 4.09809 22.1594 3.96676 21.8612 3.94861ZM22.1805 12.6106C22.0723 15.9797 19.4039 20.5689 13.9482 22.5629C13.5934 22.6872 13.207 22.6872 12.8523 22.5628C11.0594 21.9438 9.4266 20.934 8.07194 19.6065C6.71728 18.2789 5.67467 16.6668 5.01955 14.8869C4.75058 14.159 4.61509 13.3885 4.61959 12.6125L4.61938 5.11819C4.61904 5.01897 4.65659 4.92336 4.72437 4.8509C4.79216 4.77845 4.88505 4.73461 4.98407 4.72835C7.0545 4.60857 9.27465 3.37184 10.4135 2.64514C10.7263 2.44698 11.0892 2.34241 11.4595 2.34376H15.3408C15.7142 2.3434 16.08 2.44996 16.3948 2.65084C17.5323 3.37526 19.7494 4.60855 21.816 4.72833C21.9152 4.73481 22.0082 4.77894 22.076 4.85168C22.1438 4.92443 22.1812 5.02031 22.1807 5.11973L22.1805 12.6106Z" fill="#159557"/>
<path d="M13.4 6.29688C11.7555 6.29871 10.1789 6.95279 9.01602 8.11563C7.85318 9.27846 7.1991 10.8551 7.19727 12.4996C7.53787 20.7283 19.2633 20.7259 19.6027 12.4995C19.6008 10.855 18.9467 9.27843 17.7839 8.11561C16.6211 6.95279 15.0445 6.29871 13.4 6.29688ZM13.4 17.921C11.9626 17.9194 10.5846 17.3477 9.56818 16.3314C8.55181 15.315 7.98011 13.9369 7.97852 12.4996C8.27617 5.30727 18.5248 5.30934 18.8214 12.4996C18.8198 13.937 18.2481 15.315 17.2317 16.3314C16.2154 17.3477 14.8373 17.9194 13.4 17.921Z" fill="#159557"/>
<path d="M14.5515 10.9577C14.5515 11.0613 14.5926 11.1607 14.6659 11.2339C14.7391 11.3072 14.8385 11.3483 14.9421 11.3483C15.0457 11.3483 15.145 11.3072 15.2183 11.2339C15.2916 11.1607 15.3327 11.0613 15.3327 10.9577C15.3321 10.5131 15.1785 10.0822 14.8977 9.73744C14.6169 9.39271 14.226 9.15513 13.7906 9.06464V8.30078C13.7906 8.19718 13.7495 8.09782 13.6762 8.02457C13.603 7.95131 13.5036 7.91016 13.4 7.91016C13.2964 7.91016 13.197 7.95131 13.1238 8.02457C13.0505 8.09782 13.0094 8.19718 13.0094 8.30078V9.06465C12.577 9.15842 12.1898 9.39736 11.9122 9.74174C11.6345 10.0861 11.4831 10.5152 11.4831 10.9575C11.4831 11.3999 11.6345 11.829 11.9122 12.1733C12.1899 12.5177 12.5771 12.7566 13.0094 12.8504L13.0094 15.1203C12.7871 15.0404 12.5948 14.894 12.4587 14.701C12.3226 14.508 12.2492 14.2777 12.2485 14.0415C12.2465 13.9392 12.2045 13.8418 12.1315 13.7702C12.0584 13.6986 11.9602 13.6584 11.8579 13.6584C11.7556 13.6584 11.6574 13.6986 11.5843 13.7702C11.5113 13.8418 11.4693 13.9393 11.4673 14.0415C11.4679 14.4862 11.6215 14.9171 11.9023 15.2618C12.1831 15.6065 12.574 15.8441 13.0094 15.9346V16.6984C13.0094 16.802 13.0505 16.9014 13.1238 16.9747C13.197 17.0479 13.2964 17.0891 13.4 17.0891C13.5036 17.0891 13.603 17.0479 13.6762 16.9747C13.7495 16.9014 13.7906 16.802 13.7906 16.6984V15.9346C14.223 15.8408 14.6102 15.6019 14.8878 15.2575C15.1655 14.9131 15.3169 14.4841 15.3169 14.0417C15.3169 13.5993 15.1655 13.1702 14.8878 12.8259C14.6101 12.4815 14.2229 12.2426 13.7906 12.1488L13.7906 9.87891C14.0129 9.95882 14.2051 10.1052 14.3413 10.2983C14.4774 10.4913 14.5508 10.7215 14.5515 10.9577ZM12.2485 10.9577C12.2492 10.7215 12.3226 10.4913 12.4587 10.2983C12.5949 10.1052 12.7871 9.95882 13.0094 9.87891V12.0362C12.7872 11.9563 12.5949 11.8099 12.4588 11.617C12.3227 11.424 12.2492 11.1938 12.2485 10.9577ZM14.5515 14.0415C14.5508 14.2777 14.4774 14.508 14.3413 14.701C14.2052 14.894 14.0129 15.0404 13.7906 15.1203V12.9631C14.0128 13.0429 14.2051 13.1893 14.3412 13.3822C14.4773 13.5752 14.5507 13.8054 14.5515 14.0415Z" fill="#159557"/>
</svg>
