<svg width="60" height="61" viewBox="0 0 60 61" fill="none" xmlns="http://www.w3.org/2000/svg">
<g clip-path="url(#clip0_2476_22204)">
<path d="M57.0001 14H41.8121C41.3868 14.002 40.9822 14.1836 40.6981 14.5L37.5281 18.019C37.004 18.604 37.0179 19.4937 37.5601 20.062L40.3731 22.993L37.6441 26C37.1137 26.5834 37.1255 27.4778 37.6711 28.047L40.4841 30.978L37.7501 34C37.2227 34.5833 37.2354 35.4749 37.7791 36.043L41.0901 39.504C41.3729 39.7969 41.7619 39.9635 42.1691 39.966L57.0001 40C58.6569 40 60.0001 38.6569 60.0001 37V17C60.0001 15.3431 58.6569 14 57.0001 14ZM58.0001 37C58.0001 37.5523 57.5523 38 57.0001 38L42.3861 37.971L39.545 35L42.2801 31.976C42.8048 31.3912 42.7917 30.5012 42.2501 29.932L39.4371 27L42.1671 23.987C42.6972 23.4034 42.6849 22.5089 42.1391 21.94L39.3251 19.008L42.0351 16H57.0001C57.5523 16 58.0001 16.4477 58.0001 17V37Z" fill="#159557"/>
<path d="M37.1131 38.2886L34.3931 37.1936L35.4791 33.7516C35.7135 33.0014 35.3316 32.1971 34.6021 31.9046L31.2571 30.5816L32.3451 27.1496C32.5805 26.3988 32.1978 25.5934 31.4671 25.3016L28.1211 23.9776L28.9911 21.2016C29.1677 20.6365 28.9955 20.0204 28.5515 19.6288C28.1074 19.2373 27.4746 19.1436 26.9361 19.3896L1.65006 30.9646C0.232662 31.618 -0.390334 33.294 0.256056 34.7146L7.87106 51.3486C8.18218 52.032 8.75231 52.5636 9.45576 52.8262C10.1592 53.0888 10.9382 53.0609 11.6211 52.7486L37.1771 41.0486C37.7217 40.7986 38.0654 40.2485 38.051 39.6494C38.0367 39.0502 37.6671 38.5172 37.1111 38.2936L37.1131 38.2886ZM10.7881 50.9256C10.3713 51.1134 9.88094 50.9311 9.68806 50.5166L2.07406 33.8816C1.88629 33.4648 2.06859 32.9745 2.48306 32.7816L26.7471 21.6756L26.0741 23.8216C25.8412 24.5714 26.2239 25.3743 26.9531 25.6656L30.3001 26.9886L29.2121 30.4226C28.9778 31.1731 29.3602 31.9775 30.0901 32.2696L33.4351 33.5936L32.3501 37.0336C32.1177 37.7806 32.4956 38.5812 33.2201 38.8766L35.2911 39.7096L10.7881 50.9256Z" fill="#159557"/>
<path d="M11.5 34.6919L14.749 33.2049C15.0832 33.0622 15.3138 32.7494 15.3511 32.388C15.3885 32.0265 15.2268 31.6732 14.9288 31.4652C14.6308 31.2572 14.2435 31.2272 13.917 31.3869L5.60002 35.1929C5.17159 35.3881 4.93734 35.8557 5.03753 36.3157C5.13773 36.7757 5.54522 37.1035 6.01602 37.1029C6.15957 37.1024 6.30139 37.0714 6.43202 37.0119L9.68002 35.5239L13.833 44.5999C13.9757 44.9341 14.2884 45.1646 14.6499 45.202C15.0114 45.2394 15.3647 45.0777 15.5727 44.7797C15.7807 44.4817 15.8107 44.0943 15.651 43.7679L11.5 34.6919Z" fill="#5C6271"/>
<path d="M55.5521 20.1682C55.3315 20.0209 55.0614 19.9674 54.8012 20.0194C54.5411 20.0713 54.3123 20.2245 54.1651 20.4452L51.0001 25.2002L47.8321 20.4482C47.5256 19.9887 46.9046 19.8647 46.4451 20.1712C45.9856 20.4777 45.8616 21.0987 46.1681 21.5582L49.8001 27.0002L46.1701 32.4452C45.8636 32.9047 45.9876 33.5257 46.4471 33.8322C46.9066 34.1387 47.5276 34.0147 47.8341 33.5552L51.0001 28.8002L54.1681 33.5522C54.3664 33.8494 54.7082 34.0183 55.0648 33.9952C55.4213 33.9721 55.7385 33.7606 55.8968 33.4402C56.055 33.1199 56.0304 32.7394 55.8321 32.4422L52.2001 27.0002L55.8301 21.5552C55.9772 21.3344 56.0306 21.0642 55.9785 20.8041C55.9263 20.5439 55.773 20.3152 55.5521 20.1682Z" fill="#5C6271"/>
<path d="M25.9311 33.6143L25.9131 33.5983L20.8331 28.8983C20.5367 28.6237 20.1043 28.5545 19.737 28.7227C19.3698 28.8909 19.1398 29.2636 19.1541 29.6673L19.3931 36.5813V36.6113L19.5631 41.5513C19.5814 42.0903 20.0238 42.5176 20.5631 42.5173H20.6001C21.1517 42.4978 21.5832 42.035 21.5641 41.4833L21.4151 37.2003L25.0541 35.5343L28.2001 38.4413C28.4613 38.69 28.8362 38.7787 29.1812 38.6735C29.5262 38.5683 29.7878 38.2855 29.8658 37.9334C29.9439 37.5813 29.8263 37.2144 29.5581 36.9733L25.9311 33.6143ZM21.3411 35.0293L21.2361 32.0003L23.4641 34.0623L21.3411 35.0293Z" fill="#5C6271"/>
<path d="M25.2 11.4001C25.0409 11.6122 24.9725 11.8789 25.0101 12.1415C25.0476 12.404 25.1878 12.6409 25.4 12.8001L29.4 15.8001C29.6858 16.0144 30.0643 16.06 30.3928 15.9197C30.7214 15.7793 30.9501 15.4744 30.9928 15.1197C31.0356 14.765 30.8858 14.4144 30.6 14.2001L26.6 11.2001C26.1582 10.8687 25.5314 10.9582 25.2 11.4001Z" fill="#159557"/>
<path d="M34.02 8.80003L33.02 13.8C32.9669 14.0599 33.0193 14.3303 33.1655 14.5516C33.3118 14.7729 33.5401 14.927 33.8 14.98C33.8658 14.9938 33.9328 15.0005 34 15C34.4749 14.9997 34.884 14.6653 34.979 14.2L35.979 9.20003C36.0748 8.66564 35.7267 8.15245 35.1947 8.04384C34.6628 7.93522 34.1414 8.27087 34.02 8.80003Z" fill="#159557"/>
</g>
<defs>
<clipPath id="clip0_2476_22204">
<rect width="60" height="60" fill="white" transform="translate(0 0.5)"/>
</clipPath>
</defs>
</svg>
