<svg width="30" height="30" viewBox="0 0 30 30" fill="none" xmlns="http://www.w3.org/2000/svg">
<path d="M28.0032 18.6681L20.5032 10.465C20.4395 10.3949 20.356 10.3458 20.2638 10.324C20.1717 10.3023 20.0751 10.309 19.9868 10.3433C19.8985 10.3775 19.8226 10.4377 19.7692 10.5159C19.7158 10.5941 19.6873 10.6867 19.6875 10.7814V14.5314H9.8438C9.71948 14.5314 9.60025 14.5808 9.51234 14.6687C9.42443 14.7566 9.37505 14.8758 9.37505 15.0001V18.0119L2.97895 11.0158L9.37505 4.01968V7.0314C9.37505 7.15572 9.42443 7.27495 9.51234 7.36285C9.60025 7.45076 9.71948 7.50015 9.8438 7.50015H22.9688C23.0931 7.50015 23.2123 7.45076 23.3003 7.36285C23.3882 7.27495 23.4375 7.15572 23.4375 7.0314C23.4375 6.90708 23.3882 6.78785 23.3003 6.69994C23.2123 6.61203 23.0931 6.56265 22.9688 6.56265H10.3125V2.81265C10.3128 2.71794 10.2843 2.62538 10.2309 2.54717C10.1775 2.46896 10.1016 2.40876 10.0133 2.37451C9.92503 2.34025 9.82843 2.33355 9.73624 2.35528C9.64406 2.37701 9.56062 2.42615 9.49692 2.49624L1.99692 10.6994C1.91787 10.7858 1.87402 10.8987 1.87402 11.0158C1.87402 11.1329 1.91787 11.2458 1.99692 11.3322L9.49692 19.5353C9.56062 19.6054 9.64406 19.6545 9.73624 19.6763C9.82843 19.698 9.92503 19.6913 10.0133 19.657C10.1016 19.6228 10.1775 19.5626 10.2309 19.4844C10.2843 19.4062 10.3128 19.3136 10.3125 19.2189V15.4689H20.1563C20.2806 15.4689 20.3998 15.4195 20.4878 15.3316C20.5757 15.2437 20.625 15.1245 20.625 15.0001V11.9884L27.0211 18.9845L20.625 25.9806V22.9689C20.625 22.8446 20.5757 22.7253 20.4878 22.6374C20.3998 22.5495 20.2806 22.5001 20.1563 22.5001H7.0313C6.90698 22.5001 6.78775 22.5495 6.69984 22.6374C6.61193 22.7253 6.56255 22.8446 6.56255 22.9689C6.56255 23.0932 6.61193 23.2124 6.69984 23.3004C6.78775 23.3883 6.90698 23.4376 7.0313 23.4376H19.6875V27.1876C19.6878 27.2821 19.7166 27.3742 19.7701 27.452C19.8237 27.5298 19.8995 27.5896 19.9875 27.6236C20.041 27.6459 20.0984 27.6571 20.1563 27.6564C20.2215 27.6565 20.2861 27.6431 20.3458 27.6168C20.4055 27.5906 20.4591 27.5522 20.5032 27.5041L28.0032 19.3009C28.0822 19.2145 28.1261 19.1016 28.1261 18.9845C28.1261 18.8674 28.0822 18.7545 28.0032 18.6681Z" fill="#159557"/>
</svg>
