<svg width="20" height="20" viewBox="0 0 20 20" fill="none" xmlns="http://www.w3.org/2000/svg">
<g clip-path="url(#clip0_2638_42628)">
<path d="M18.617 8.039C18.3602 7.86664 18.1284 7.65986 17.9279 7.42446C17.9428 7.09669 18.0086 6.77325 18.1232 6.46579C18.3384 5.73704 18.6065 4.83008 18.0898 4.12041C17.5694 3.40508 16.6187 3.38108 15.8549 3.36154C15.5336 3.37438 15.2122 3.33982 14.901 3.259C14.7298 2.99057 14.5992 2.69841 14.5132 2.39191C14.2583 1.66612 13.9408 0.762789 13.0906 0.486498C12.2656 0.218373 11.5252 0.727789 10.8724 1.17579C10.6101 1.38526 10.3155 1.55085 10.0002 1.66612C9.68473 1.55097 9.39004 1.38537 9.12762 1.17579C8.47475 0.727414 7.73417 0.219581 6.90938 0.486498C6.05938 0.762789 5.742 1.66566 5.48688 2.39162C5.40104 2.6966 5.27182 2.98766 5.10317 3.25587C4.79096 3.33917 4.46793 3.37471 4.14508 3.36129C3.38133 3.38079 2.43062 3.40483 1.91021 4.12012C1.39354 4.83021 1.66158 5.73716 1.87687 6.46596C1.99006 6.77178 2.05651 7.09291 2.074 7.41854C1.87441 7.65729 1.64168 7.86624 1.38287 8.03904C0.766667 8.509 0 9.09408 0 9.99946C0 10.9048 0.766667 11.4899 1.38304 11.9599C1.63977 12.1323 1.87163 12.339 2.07212 12.5745C2.05725 12.9022 1.99136 13.2257 1.87683 13.5331C1.66158 14.2619 1.3935 15.1689 1.91017 15.8785C2.43058 16.5938 3.38129 16.6178 4.14508 16.6374C4.46638 16.6245 4.78781 16.6591 5.09904 16.7399C5.27016 17.0083 5.40083 17.3005 5.48683 17.607C5.74196 18.3329 6.05933 19.2362 6.90954 19.5125C7.06017 19.5619 7.21769 19.587 7.37621 19.587C8.01608 19.587 8.60038 19.1854 9.12775 18.8232C9.3901 18.6137 9.68467 18.4481 10 18.3328C10.3155 18.448 10.6102 18.6136 10.8726 18.8231C11.5255 19.2715 12.2658 19.7789 13.0908 19.5124C13.9408 19.2361 14.2582 18.3332 14.5133 17.6073C14.5992 17.3023 14.7284 17.0112 14.897 16.743C15.2093 16.6597 15.5323 16.6242 15.8551 16.6376C16.6189 16.6181 17.5696 16.5941 18.09 15.8788C18.6067 15.1687 18.3386 14.2617 18.1233 13.533C18.0101 13.2271 17.9437 12.906 17.9262 12.5804C18.1258 12.3416 18.3585 12.1327 18.6173 11.9599C19.2333 11.4899 20 10.9048 20 9.99946C20 9.09408 19.2333 8.509 18.617 8.039ZM13.7142 8.50533L9.54754 12.672C9.47017 12.7494 9.37832 12.8108 9.27722 12.8527C9.17612 12.8946 9.06776 12.9161 8.95833 12.9161C8.8489 12.9161 8.74054 12.8946 8.63944 12.8527C8.53835 12.8108 8.44649 12.7494 8.36912 12.672L6.28579 10.5887C6.2068 10.5116 6.14388 10.4197 6.1007 10.3182C6.05751 10.2167 6.03491 10.1076 6.03422 9.99727C6.03352 9.88695 6.05473 9.77759 6.09663 9.67553C6.13852 9.57347 6.20027 9.48074 6.27828 9.40273C6.35629 9.32472 6.44901 9.26298 6.55107 9.22108C6.65313 9.17919 6.76249 9.15797 6.87281 9.15867C6.98313 9.15937 7.09222 9.18197 7.19374 9.22516C7.29526 9.26834 7.38719 9.33125 7.46421 9.41025L8.95833 10.9044L12.5358 7.32691C12.6128 7.24792 12.7047 7.18501 12.8063 7.14182C12.9078 7.09864 13.0169 7.07604 13.1272 7.07534C13.2375 7.07464 13.3469 7.09585 13.4489 7.13775C13.551 7.17965 13.6437 7.24139 13.7217 7.3194C13.7997 7.39741 13.8615 7.49013 13.9034 7.59219C13.9453 7.69425 13.9665 7.80361 13.9658 7.91394C13.9651 8.02426 13.9425 8.13334 13.8993 8.23486C13.8561 8.33638 13.7932 8.42832 13.7142 8.50533Z" fill="#16BE6E"/>
</g>
<defs>
<clipPath id="clip0_2638_42628">
<rect width="20" height="20" fill="white"/>
</clipPath>
</defs>
</svg>
