<svg width="30" height="30" viewBox="0 0 30 30" fill="none" xmlns="http://www.w3.org/2000/svg">
<path d="M27.5001 15.1125V11.25C27.5001 10.587 27.2368 9.95107 26.7679 9.48223C26.2991 9.01339 25.6632 8.75 25.0001 8.75H24.3751V4.85C24.3739 4.47069 24.2976 4.09537 24.1506 3.74568C24.0037 3.396 23.789 3.07884 23.5189 2.8125C22.9147 2.21486 22.1 1.87823 21.2501 1.875L5.9189 4.91875C4.93861 5.15454 4.06706 5.71535 3.44625 6.5098C2.82544 7.30426 2.49196 8.28553 2.50015 9.29375V22.4813C2.50207 23.1755 2.66439 23.86 2.97446 24.4812C3.28453 25.1024 3.73395 25.6436 4.28765 26.0625C5.0233 26.6007 5.91368 26.8858 6.82515 26.875H25.0001C25.6632 26.875 26.2991 26.6116 26.7679 26.1428C27.2368 25.6739 27.5001 25.038 27.5001 24.375V21.7625C27.8649 21.6336 28.1808 21.395 28.4046 21.0794C28.6283 20.7639 28.7491 20.3868 28.7501 20V16.875C28.7491 16.4882 28.6283 16.1111 28.4046 15.7956C28.1808 15.48 27.8649 15.2414 27.5001 15.1125ZM27.5001 20C27.5001 20.1658 27.4343 20.3247 27.3171 20.4419C27.1999 20.5592 27.0409 20.625 26.8751 20.625H19.3751C19.2094 20.625 19.0504 20.5592 18.9332 20.4419C18.816 20.3247 18.7501 20.1658 18.7501 20V16.875C18.7501 16.7092 18.816 16.5503 18.9332 16.4331C19.0504 16.3158 19.2094 16.25 19.3751 16.25H26.8751C27.0409 16.25 27.1999 16.3158 27.3171 16.4331C27.4343 16.5503 27.5001 16.7092 27.5001 16.875V20ZM25.0001 25.625H6.87515V21.25C6.87515 21.0842 6.8093 20.9253 6.69209 20.8081C6.57488 20.6908 6.41591 20.625 6.25015 20.625C6.08439 20.625 5.92542 20.6908 5.80821 20.8081C5.691 20.9253 5.62515 21.0842 5.62515 21.25V25.3625C5.41635 25.2768 5.21901 25.1656 5.03765 25.0312C4.63883 24.7291 4.31516 24.339 4.09184 23.8913C3.86852 23.4436 3.75158 22.9503 3.75015 22.45V9.2625C3.74774 8.54295 3.98744 7.8435 4.4307 7.27668C4.87395 6.70986 5.49498 6.30862 6.1939 6.1375L21.0876 3.1625C21.2182 3.14387 21.3508 3.14387 21.4814 3.1625C21.9163 3.21803 22.3206 3.4158 22.6314 3.725C22.7843 3.87031 22.9067 4.04464 22.9915 4.2378C23.0763 4.43096 23.1217 4.63908 23.1251 4.85V8.75H7.7439C7.34938 8.75093 6.95868 8.67288 6.5948 8.52046C6.23091 8.36804 5.90122 8.14432 5.62515 7.8625C5.50487 7.7609 5.35067 7.70844 5.19338 7.7156C5.0361 7.72277 4.88731 7.78904 4.77677 7.90116C4.66623 8.01328 4.60208 8.16299 4.59714 8.32036C4.59221 8.47774 4.64685 8.63117 4.75015 8.75C5.14239 9.14505 5.60874 9.45882 6.12246 9.67332C6.63619 9.88782 7.18719 9.99883 7.7439 10H25.0001C25.3317 10 25.6496 10.1317 25.884 10.3661C26.1185 10.6005 26.2501 10.9185 26.2501 11.25V15H19.3751C18.8779 15 18.401 15.1975 18.0493 15.5492C17.6977 15.9008 17.5001 16.3777 17.5001 16.875V20C17.5001 20.4973 17.6977 20.9742 18.0493 21.3258C18.401 21.6775 18.8779 21.875 19.3751 21.875H26.2501V24.375C26.2501 24.7065 26.1185 25.0245 25.884 25.2589C25.6496 25.4933 25.3317 25.625 25.0001 25.625Z" fill="#159557"/>
<path d="M20.9375 19.375C21.4553 19.375 21.875 18.9553 21.875 18.4375C21.875 17.9197 21.4553 17.5 20.9375 17.5C20.4197 17.5 20 17.9197 20 18.4375C20 18.9553 20.4197 19.375 20.9375 19.375Z" fill="#159557"/>
<path d="M6.25 15C6.08424 15 5.92527 15.0658 5.80806 15.1831C5.69085 15.3003 5.625 15.4592 5.625 15.625V18.125C5.625 18.2908 5.69085 18.4497 5.80806 18.5669C5.92527 18.6842 6.08424 18.75 6.25 18.75C6.41576 18.75 6.57473 18.6842 6.69194 18.5669C6.80915 18.4497 6.875 18.2908 6.875 18.125V15.625C6.875 15.4592 6.80915 15.3003 6.69194 15.1831C6.57473 15.0658 6.41576 15 6.25 15Z" fill="#159557"/>
</svg>
