<svg width="35" height="36" viewBox="0 0 35 36" fill="none" xmlns="http://www.w3.org/2000/svg">
<g clip-path="url(#clip0_4853_31835)">
<path d="M17.5 0.983398C13.7303 0.987741 10.1163 2.48718 7.45067 5.15277C4.78508 7.81836 3.28564 11.4324 3.2813 15.2021C3.27331 18.2346 4.24504 21.1885 6.05177 23.624L6.93114 22.9743C5.37842 20.8758 4.495 18.3577 4.39638 15.749H9.67974C9.71066 17.8607 10.019 19.9592 10.5968 21.9905L11.6458 21.681C11.0974 19.7502 10.8041 17.7559 10.7735 15.749H16.9532V20.6709H18.0469V15.749H24.2266C24.1951 17.7561 23.9009 19.7503 23.3516 21.681L24.4005 21.9905C24.9793 19.9593 25.2885 17.8608 25.3204 15.749H30.6059C30.5077 18.3584 29.6243 20.8774 28.0711 22.9765L28.9483 23.624C30.7551 21.1885 31.7268 18.2346 31.7188 15.2021C31.7145 11.4324 30.215 7.81836 27.5494 5.15277C24.8838 2.48718 21.2698 0.987741 17.5 0.983398ZM9.67044 14.6553H4.38872C4.48816 12.204 5.27665 9.83033 6.66372 7.80676C7.90117 8.2532 9.17432 8.59367 10.4694 8.82449C9.96796 10.7286 9.69967 12.6865 9.67044 14.6553ZM7.34841 6.89293C9.02253 4.84954 11.2728 3.35714 13.8065 2.6098C12.3977 4.06153 11.3607 5.83229 10.7839 7.77121C9.61787 7.56707 8.46932 7.27344 7.34841 6.89293ZM16.9532 14.6553H10.7642C10.7953 12.7467 11.0618 10.8493 11.5577 9.00605C13.3444 9.26981 15.1472 9.41033 16.9532 9.4266V14.6553ZM16.9532 8.33285C15.2569 8.31703 13.5636 8.18915 11.8842 7.95004C12.9982 4.69066 14.8395 2.45613 16.9532 2.12418V8.33285ZM18.0469 2.12418C20.1611 2.45613 22.003 4.69449 23.117 7.95113C21.4371 8.18863 19.7435 8.3165 18.0469 8.33395V2.12418ZM18.0469 14.6553V9.42715C19.853 9.40949 21.6558 9.26953 23.4429 9.00824C23.9383 10.8509 24.2046 12.7475 24.2359 14.6553H18.0469ZM24.2162 7.77066C23.6392 5.83196 22.6023 4.06142 21.1936 2.6098C23.7267 3.35616 25.9765 4.84742 27.6506 6.88965C26.5307 7.2729 25.3823 7.56748 24.2162 7.77066ZM25.3297 14.6553C25.3005 12.6861 25.032 10.7278 24.5301 8.8234C25.8256 8.59448 27.0989 8.25415 28.3358 7.80621C29.7234 9.82978 30.5121 12.2037 30.6114 14.6553H25.3297Z" fill="#CBD1DA"/>
<path d="M27.3438 33.7963H31.1719C31.3169 33.7963 31.456 33.7387 31.5586 33.6361C31.6611 33.5336 31.7188 33.3945 31.7188 33.2494V30.1869C31.7181 29.7644 31.5736 29.3547 31.309 29.0252C31.0444 28.6958 30.6754 28.4663 30.263 28.3746C30.5512 28.1158 30.7542 27.7757 30.845 27.3992C30.9359 27.0226 30.9104 26.6274 30.7718 26.2656C30.6333 25.9039 30.3883 25.5927 30.0691 25.3732C29.75 25.1537 29.3717 25.0362 28.9844 25.0362C28.597 25.0362 28.2188 25.1537 27.8996 25.3732C27.5805 25.5927 27.3355 25.9039 27.1969 26.2656C27.0584 26.6274 27.0329 27.0226 27.1237 27.3992C27.2146 27.7757 27.4175 28.1158 27.7058 28.3746C27.4335 28.4369 27.179 28.5604 26.9615 28.7355C26.7889 28.4852 26.5659 28.2737 26.3069 28.1145C26.0478 27.9554 25.7583 27.8521 25.457 27.8113C25.8039 27.5243 26.0537 27.1373 26.1725 26.703C26.2913 26.2688 26.2732 25.8084 26.1206 25.3849C25.9681 24.9613 25.6886 24.5951 25.3203 24.3362C24.9519 24.0774 24.5127 23.9385 24.0625 23.9385C23.6123 23.9385 23.1731 24.0774 22.8047 24.3362C22.4364 24.5951 22.1569 24.9613 22.0044 25.3849C21.8518 25.8084 21.8337 26.2688 21.9525 26.703C22.0713 27.1373 22.3211 27.5243 22.668 27.8113C22.3454 27.8534 22.0364 27.9676 21.764 28.1455C21.6056 27.5707 21.2634 27.0635 20.7897 26.7014C20.316 26.3393 19.7369 26.1421 19.1406 26.1401H19.028C19.4285 25.8228 19.7204 25.3887 19.8631 24.8981C20.0057 24.4075 19.9921 23.8846 19.8242 23.402C19.6562 22.9194 19.3422 22.5011 18.9257 22.2051C18.5093 21.909 18.011 21.75 17.5 21.75C16.989 21.75 16.4907 21.909 16.0743 22.2051C15.6578 22.5011 15.3438 22.9194 15.1758 23.402C15.0079 23.8846 14.9943 24.4075 15.1369 24.8981C15.2796 25.3887 15.5715 25.8228 15.972 26.1401H15.8594C15.2629 26.1418 14.6833 26.3388 14.2093 26.7009C13.7353 27.063 13.3929 27.5704 13.2344 28.1455C12.962 27.9676 12.653 27.8534 12.3304 27.8113C12.6772 27.5243 12.9271 27.1373 13.0459 26.703C13.1646 26.2688 13.1465 25.8084 12.994 25.3849C12.8415 24.9613 12.562 24.5951 12.1936 24.3362C11.8253 24.0774 11.3861 23.9385 10.9359 23.9385C10.4857 23.9385 10.0464 24.0774 9.67808 24.3362C9.30974 24.5951 9.03024 24.9613 8.87772 25.3849C8.7252 25.8084 8.70708 26.2688 8.82585 26.703C8.94461 27.1373 9.19447 27.5243 9.54133 27.8113C9.24003 27.8521 8.95057 27.9554 8.6915 28.1145C8.43243 28.2737 8.20946 28.4852 8.03688 28.7355C7.81934 28.5604 7.56483 28.4369 7.29258 28.3746C7.58083 28.1158 7.78379 27.7757 7.87465 27.3992C7.96551 27.0226 7.93998 26.6274 7.80144 26.2656C7.6629 25.9039 7.41787 25.5927 7.09872 25.3732C6.77958 25.1537 6.40134 25.0362 6.01398 25.0362C5.62663 25.0362 5.24839 25.1537 4.92925 25.3732C4.6101 25.5927 4.36507 25.9039 4.22653 26.2656C4.08799 26.6274 4.06246 27.0226 4.15332 27.3992C4.24417 27.7757 4.44714 28.1158 4.73539 28.3746C4.32322 28.4666 3.95466 28.6962 3.69036 29.0257C3.42607 29.3551 3.28178 29.7646 3.28125 30.1869V33.2494C3.28125 33.3945 3.33887 33.5336 3.44143 33.6361C3.54399 33.7387 3.68308 33.7963 3.82812 33.7963H7.65625C7.65625 33.9414 7.71387 34.0805 7.81643 34.183C7.91898 34.2856 8.05808 34.3432 8.20312 34.3432H13.125C13.125 34.4882 13.1826 34.6273 13.2852 34.7299C13.3877 34.8324 13.5268 34.8901 13.6719 34.8901H21.3281C21.4732 34.8901 21.6123 34.8324 21.7148 34.7299C21.8174 34.6273 21.875 34.4882 21.875 34.3432H26.7969C26.9419 34.3432 27.081 34.2856 27.1836 34.183C27.2861 34.0805 27.3438 33.9414 27.3438 33.7963ZM28.9844 26.1401C29.1466 26.1401 29.3052 26.1882 29.4401 26.2783C29.575 26.3684 29.6802 26.4966 29.7422 26.6465C29.8043 26.7963 29.8206 26.9613 29.7889 27.1204C29.7573 27.2795 29.6791 27.4257 29.5644 27.5404C29.4497 27.6551 29.3035 27.7333 29.1444 27.7649C28.9853 27.7966 28.8203 27.7803 28.6705 27.7182C28.5206 27.6562 28.3924 27.551 28.3023 27.4161C28.2122 27.2812 28.1641 27.1226 28.1641 26.9604C28.1641 26.7428 28.2505 26.5342 28.4043 26.3803C28.5582 26.2265 28.7668 26.1401 28.9844 26.1401ZM27.3438 30.1869C27.3438 29.9839 27.4244 29.7891 27.568 29.6456C27.7116 29.502 27.9063 29.4213 28.1094 29.4213H29.8594C30.0624 29.4213 30.2572 29.502 30.4008 29.6456C30.5443 29.7891 30.625 29.9839 30.625 30.1869V32.7026H27.3438V30.1869ZM6.01562 26.1401C6.17787 26.1401 6.33647 26.1882 6.47137 26.2783C6.60627 26.3684 6.71141 26.4966 6.77349 26.6465C6.83558 26.7963 6.85183 26.9613 6.82018 27.1204C6.78852 27.2795 6.7104 27.4257 6.59567 27.5404C6.48095 27.6551 6.33479 27.7333 6.17566 27.7649C6.01654 27.7966 5.8516 27.7803 5.7017 27.7182C5.55181 27.6562 5.4237 27.551 5.33356 27.4161C5.24342 27.2812 5.19531 27.1226 5.19531 26.9604C5.19531 26.7428 5.28174 26.5342 5.43558 26.3803C5.58941 26.2265 5.79806 26.1401 6.01562 26.1401ZM7.65625 32.7026H4.375V30.1869C4.375 29.9839 4.45566 29.7891 4.59925 29.6456C4.74283 29.502 4.93757 29.4213 5.14062 29.4213H6.89063C7.09368 29.4213 7.28842 29.502 7.432 29.6456C7.57559 29.7891 7.65625 29.9839 7.65625 30.1869V32.7026ZM10.9375 25.0463C11.1538 25.0463 11.3653 25.1105 11.5452 25.2306C11.725 25.3508 11.8652 25.5216 11.948 25.7215C12.0308 25.9214 12.0524 26.1413 12.0102 26.3534C11.968 26.5656 11.8639 26.7605 11.7109 26.9135C11.5579 27.0664 11.363 27.1706 11.1509 27.2128C10.9387 27.255 10.7188 27.2333 10.5189 27.1506C10.3191 27.0678 10.1483 26.9276 10.0281 26.7477C9.9079 26.5679 9.84375 26.3564 9.84375 26.1401C9.84375 25.85 9.95898 25.5718 10.1641 25.3667C10.3692 25.1615 10.6474 25.0463 10.9375 25.0463ZM13.125 33.2494H8.75V29.9682C8.75 29.6781 8.86523 29.3999 9.07035 29.1948C9.27547 28.9897 9.55367 28.8744 9.84375 28.8744H12.0312C12.3213 28.8744 12.5995 28.9897 12.8046 29.1948C13.0098 29.3999 13.125 29.6781 13.125 29.9682V33.2494ZM17.5 22.8588C17.7704 22.8588 18.0347 22.939 18.2596 23.0892C18.4844 23.2395 18.6596 23.453 18.7631 23.7028C18.8666 23.9526 18.8937 24.2275 18.8409 24.4927C18.7882 24.7579 18.658 25.0015 18.4667 25.1927C18.2755 25.384 18.0319 25.5142 17.7667 25.5669C17.5015 25.6197 17.2266 25.5926 16.9768 25.4891C16.727 25.3856 16.5135 25.2104 16.3632 24.9856C16.213 24.7607 16.1328 24.4964 16.1328 24.226C16.1328 23.8634 16.2769 23.5156 16.5333 23.2593C16.7896 23.0029 17.1374 22.8588 17.5 22.8588ZM20.7812 33.7963H14.2188V28.8744C14.2188 28.4393 14.3916 28.022 14.6993 27.7143C15.007 27.4067 15.4243 27.2338 15.8594 27.2338H19.1406C19.5757 27.2338 19.993 27.4067 20.3007 27.7143C20.6084 28.022 20.7812 28.4393 20.7812 28.8744V33.7963ZM24.0625 25.0463C24.2788 25.0463 24.4903 25.1105 24.6702 25.2306C24.85 25.3508 24.9902 25.5216 25.073 25.7215C25.1558 25.9214 25.1774 26.1413 25.1352 26.3534C25.093 26.5656 24.9889 26.7605 24.8359 26.9135C24.6829 27.0664 24.488 27.1706 24.2759 27.2128C24.0637 27.255 23.8438 27.2333 23.6439 27.1506C23.4441 27.0678 23.2733 26.9276 23.1531 26.7477C23.0329 26.5679 22.9688 26.3564 22.9688 26.1401C22.9688 25.85 23.084 25.5718 23.2891 25.3667C23.4942 25.1615 23.7724 25.0463 24.0625 25.0463ZM26.25 33.2494H21.875V29.9682C21.875 29.6781 21.9902 29.3999 22.1954 29.1948C22.4005 28.9897 22.6787 28.8744 22.9688 28.8744H25.1562C25.4463 28.8744 25.7245 28.9897 25.9296 29.1948C26.1348 29.3999 26.25 29.6781 26.25 29.9682V33.2494Z" fill="#CBD1DA"/>
</g>
<defs>
<clipPath id="clip0_4853_31835">
<rect width="35" height="35" fill="white" transform="translate(0 0.436523)"/>
</clipPath>
</defs>
</svg>
