<svg width="33" height="30" viewBox="0 0 33 30" fill="none" xmlns="http://www.w3.org/2000/svg">
<path d="M32.9062 14.3896C32.9062 19.8173 28.4901 24.2334 23.0625 24.2334H4.03773L7.38791 27.2487C7.83705 27.6524 7.87337 28.344 7.46935 28.7932C7.25333 29.033 6.95506 29.1553 6.65598 29.1553C6.3951 29.1553 6.13367 29.0629 5.92459 28.8744L0.455841 23.9525C0.225395 23.7453 0.09375 23.4499 0.09375 23.1396C0.09375 22.8294 0.225395 22.534 0.455841 22.3268L5.92459 17.4049C6.3732 17.0001 7.06534 17.037 7.46935 17.4861C7.87337 17.9353 7.83705 18.6269 7.38791 19.0306L4.03773 22.0459H23.0625C27.2842 22.0459 30.7188 18.6114 30.7188 14.3896C30.7188 13.7856 31.2085 13.2959 31.8125 13.2959C32.4165 13.2959 32.9062 13.7856 32.9062 14.3896ZM1.1875 16.5771C1.79152 16.5771 2.28125 16.0874 2.28125 15.4834C2.28125 11.2617 5.71577 7.82714 9.9375 7.82714H28.9624L25.6121 10.8422C25.1629 11.2464 25.1266 11.9381 25.5309 12.3869C25.7467 12.627 26.0447 12.749 26.3443 12.749C26.6049 12.749 26.8666 12.6564 27.0754 12.4684L32.5442 7.5465C32.7749 7.33901 32.9062 7.04341 32.9062 6.73339C32.9062 6.42337 32.7749 6.12777 32.5442 5.92029L27.0754 0.998415C26.6263 0.594401 25.9347 0.630984 25.5309 1.07986C25.1266 1.52873 25.1629 2.22034 25.6121 2.62462L28.9624 5.63964H9.9375C4.50961 5.63964 0.09375 10.0555 0.09375 15.4834C0.09375 16.0874 0.583481 16.5771 1.1875 16.5771Z" fill="#CBD1DA"/>
</svg>
