<svg width="35" height="36" viewBox="0 0 35 36" fill="none" xmlns="http://www.w3.org/2000/svg">
<g clip-path="url(#clip0_4853_31142)">
<path d="M34.9998 28.874C34.9998 28.1071 34.7013 27.3861 34.159 26.8438L20.5167 13.2016L22.7157 11.0029C23.0468 11.1788 23.418 11.2723 23.8036 11.2723C24.4244 11.2723 25.0082 11.0304 25.4472 10.5914C25.8861 10.1524 26.1278 9.56891 26.1278 8.94807C26.1278 8.32722 25.8861 7.7435 25.4472 7.3045L19.2598 1.11745C18.8208 0.678185 18.2371 0.436523 17.6163 0.436523C16.9957 0.436523 16.412 0.678185 15.973 1.11718C15.534 1.55618 15.292 2.1399 15.292 2.76074C15.292 3.14633 15.3855 3.51777 15.5615 3.84888L7.10281 12.3076C6.22508 11.8435 5.11024 11.9802 4.3719 12.7182C3.46588 13.6245 3.46588 15.0991 4.3719 16.0051L10.5592 22.1924C11.0124 22.6456 11.6076 22.872 12.2028 22.872C12.798 22.872 13.3929 22.6456 13.8461 22.1924C14.5842 21.4544 14.7209 20.3395 14.2568 19.4615L16.4563 17.262L18.8566 19.6623C18.8569 19.6623 18.8569 19.6626 18.8571 19.6629L18.8574 19.6631L30.0985 30.9042C30.6409 31.4466 31.3618 31.7451 32.1287 31.7451C32.8957 31.7451 33.6166 31.4466 34.159 30.9042C34.7013 30.3619 34.9998 29.6409 34.9998 28.874ZM16.9399 2.08409C17.1204 1.90331 17.3607 1.80371 17.6163 1.80371C17.8721 1.80371 18.1124 1.90331 18.2932 2.08409L24.4802 8.27115C24.661 8.45193 24.7606 8.69225 24.7606 8.94807C24.7606 9.20361 24.661 9.44394 24.4802 9.62472C24.2995 9.8055 24.0591 9.9051 23.8036 9.9051C23.548 9.9051 23.3077 9.8055 23.1269 9.62472L16.9399 3.43739C16.7588 3.25661 16.6592 3.01629 16.6592 2.76074C16.6592 2.5052 16.7588 2.26487 16.9399 2.08409ZM16.4563 4.88763L21.6767 10.108L19.067 12.718C19.0668 12.718 19.0668 12.718 19.0665 12.7182L15.973 15.8118C15.973 15.812 15.9727 15.812 15.9727 15.8123L13.3628 18.422L8.14235 13.2016L16.4563 4.88763ZM12.8794 21.2255C12.5064 21.5988 11.8992 21.5988 11.5259 21.2255L5.33882 15.0385C4.96551 14.6654 4.96551 14.0582 5.33882 13.6852C5.5252 13.4985 5.77033 13.4053 6.01547 13.4053C6.2606 13.4053 6.50573 13.4985 6.69212 13.6852L12.8792 19.8722C12.8794 19.8722 12.8794 19.8722 12.8794 19.8725C13.2525 20.2455 13.2525 20.8525 12.8794 21.2255ZM19.5501 14.1685L21.4674 16.0857L19.3405 18.2124L17.4232 16.2951L19.5501 14.1685ZM33.1921 29.9373C32.9079 30.2215 32.5304 30.3779 32.1287 30.3779C31.7271 30.3779 31.3496 30.2215 31.0654 29.9373L20.3071 19.1793L22.434 17.0524L33.1921 27.8107C33.4762 28.0946 33.6327 28.4724 33.6327 28.874C33.6327 29.2756 33.4762 29.6535 33.1921 29.9373Z" fill="#CBD1DA"/>
<path d="M23.9714 28.0537H22.9688V26.7092C22.9688 25.3399 21.8544 24.2256 20.4851 24.2256H5.49145C4.12212 24.2256 3.00781 25.3399 3.00781 26.7092V28.0537H2.00512C0.89962 28.0537 0 28.9533 0 30.0588V34.7529C0 35.1305 0.306015 35.4365 0.683594 35.4365H25.293C25.6705 35.4365 25.9766 35.1305 25.9766 34.7529V30.0588C25.9766 28.9533 25.0769 28.0537 23.9714 28.0537ZM24.6094 34.0693H1.36719V30.0588C1.36719 29.7072 1.65344 29.4209 2.00512 29.4209H9.91211C10.2897 29.4209 10.5957 29.1149 10.5957 28.7373C10.5957 28.3597 10.2897 28.0537 9.91211 28.0537H4.375V26.7092C4.375 26.0937 4.87595 25.5928 5.49145 25.5928H20.4851C21.1006 25.5928 21.6016 26.0937 21.6016 26.7092V28.0537H16.0647C15.6871 28.0537 15.3811 28.3597 15.3811 28.7373C15.3811 29.1149 15.6871 29.4209 16.0647 29.4209H23.9714C24.3231 29.4209 24.6094 29.7072 24.6094 30.0588V34.0693Z" fill="#CBD1DA"/>
<path d="M12.9883 28.0537C12.8086 28.0537 12.6321 28.1269 12.505 28.254C12.3779 28.3811 12.3047 28.5576 12.3047 28.7373C12.3047 28.917 12.3779 29.0935 12.505 29.2206C12.6321 29.3477 12.8086 29.4209 12.9883 29.4209C13.168 29.4209 13.3445 29.3477 13.4716 29.2206C13.5987 29.0935 13.6719 28.917 13.6719 28.7373C13.6719 28.5568 13.5987 28.3811 13.4716 28.254C13.3445 28.1269 13.168 28.0537 12.9883 28.0537Z" fill="#3B3F4A"/>
</g>
<defs>
<clipPath id="clip0_4853_31142">
<rect width="35" height="35" fill="white" transform="translate(0 0.436523)"/>
</clipPath>
</defs>
</svg>
