<svg width="22" height="25" viewBox="0 0 22 25" fill="none" xmlns="http://www.w3.org/2000/svg">
<path d="M0.843762 9.53917V21.4532C0.84376 21.7996 0.912118 22.1426 1.04492 22.4626C1.17772 22.7825 1.37235 23.0731 1.61765 23.3177C1.86296 23.5623 2.15412 23.756 2.47445 23.8879C2.79478 24.0197 3.13798 24.0871 3.48439 24.086H18.5235C19.2217 24.086 19.8914 23.8087 20.3851 23.3149C20.8789 22.8212 21.1563 22.1515 21.1563 21.4532V9.53917C21.1563 8.84018 20.8791 8.16971 20.3856 7.67472C19.8921 7.17973 19.2224 6.90061 18.5235 6.89854H16.8516C17.0821 6.66074 17.2864 6.39881 17.461 6.11729C17.795 5.55782 17.9792 4.92164 17.9956 4.27021C18.012 3.61879 17.8602 2.97414 17.5547 2.39854C17.289 1.93453 16.9023 1.55137 16.4358 1.28995C15.9694 1.02852 15.4407 0.898642 14.9063 0.914168C14.3209 0.89551 13.7385 1.00387 13.199 1.23179C12.6596 1.45971 12.1759 1.80178 11.7813 2.23448C11.4691 2.56498 11.206 2.93858 11 3.34386C10.8061 2.94097 10.5562 2.5675 10.2578 2.23448C9.86319 1.80178 9.37951 1.45971 8.84005 1.23179C8.30059 1.00387 7.71816 0.89551 7.13283 0.914168C6.59811 0.898133 6.06901 1.02688 5.60144 1.28679C5.13387 1.5467 4.74522 1.92812 4.47658 2.39073C4.17111 2.96633 4.01926 3.61098 4.03568 4.2624C4.0521 4.91383 4.23625 5.55 4.57033 6.10948C4.74484 6.391 4.94914 6.65292 5.1797 6.89073H3.48439C3.13696 6.89073 2.79294 6.95929 2.47206 7.09248C2.15117 7.22567 1.85972 7.42088 1.61442 7.66691C1.36911 7.91294 1.17476 8.20497 1.04252 8.52625C0.910277 8.84752 0.842734 9.19174 0.843762 9.53917ZM19.5938 9.53917V21.4532C19.5938 21.5938 19.5661 21.733 19.5123 21.8628C19.4585 21.9927 19.3797 22.1107 19.2803 22.2101C19.1809 22.3094 19.0629 22.3883 18.933 22.4421C18.8032 22.4959 18.664 22.5235 18.5235 22.5235H11.7813L11.836 8.46104H18.5469C18.8274 8.46918 19.0936 8.58634 19.2891 8.78766C19.4846 8.98897 19.5939 9.25856 19.5938 9.53917ZM14.9063 2.50792C15.167 2.49035 15.4274 2.54617 15.658 2.66907C15.8886 2.79197 16.0802 2.97701 16.211 3.20323C16.3827 3.54052 16.4637 3.91673 16.4458 4.29481C16.428 4.67289 16.3121 5.03982 16.1094 5.35948C15.7735 5.94542 14.8906 6.92198 12.7656 6.92198H11.7813C11.7813 5.97667 11.961 4.29698 12.8672 3.30479C13.1239 3.02352 13.4402 2.80318 13.793 2.6599C14.1458 2.51662 14.5262 2.45401 14.9063 2.47667V2.50792ZM5.89845 5.32823C5.69576 5.00857 5.57981 4.64164 5.562 4.26356C5.54419 3.88548 5.62514 3.50927 5.79689 3.17198C5.92708 2.94701 6.1174 2.76277 6.34648 2.63995C6.57556 2.51713 6.83433 2.46059 7.09376 2.47667C7.46385 2.45395 7.83446 2.51206 8.17983 2.64697C8.5252 2.78188 8.83707 2.99036 9.09377 3.25792C10.0078 4.27354 10.1719 5.95323 10.2188 6.89854H9.2422C7.09376 6.89854 6.23439 5.91417 5.89845 5.32823ZM2.40626 9.53917C2.40626 9.25323 2.51985 8.97901 2.72204 8.77682C2.92423 8.57463 3.19845 8.46104 3.48439 8.46104H10.2188L10.1641 22.5235H3.48439C3.34318 22.5246 3.20316 22.4977 3.0724 22.4443C2.94164 22.391 2.82272 22.3123 2.72251 22.2128C2.62229 22.1133 2.54275 21.995 2.48848 21.8646C2.4342 21.7343 2.40626 21.5944 2.40626 21.4532V9.53917Z" fill="white"/>
</svg>
