<svg width="60" height="61" viewBox="0 0 60 61" fill="none" xmlns="http://www.w3.org/2000/svg">
<path d="M3.23475 33.1779C3.08128 34.702 5.42395 34.9881 5.85623 33.6725C6.83006 30.6982 9.58983 28.7002 12.7246 28.7002C15.8676 28.7002 18.6332 30.6982 19.607 33.6725C20.0055 34.8853 22.3441 34.8205 22.709 33.6607C23.7226 30.458 26.6453 28.3064 29.9816 28.3064C33.3273 28.3064 36.257 30.458 37.2707 33.6607C37.4277 34.1599 37.8906 34.4986 38.4144 34.4986C38.687 34.4986 39.3797 34.4986 39.2312 34.4986C39.7504 34.4986 40.2097 34.1658 40.3715 33.6724C41.3488 30.6888 44.1156 28.6849 47.2551 28.6849C50.3957 28.6849 53.1625 30.6888 54.1387 33.6724C54.6101 35.1073 57.226 34.5703 56.7039 32.9365C55.329 20.5143 45.7199 10.9258 33.6326 9.29891C33.8386 9.03992 34.0275 8.76409 34.1793 8.45838C35.5135 5.76557 34.1068 1.7002 29.9828 1.7002C28.1898 1.7002 26.582 2.69981 25.7851 4.30645C25.0058 5.87911 25.1904 7.72218 26.2457 9.31475C14.115 10.9958 4.50418 20.6767 3.23475 33.1779ZM22.6972 29.0471C23.739 18.3467 27.0801 11.4279 29.9969 11.4279C32.9066 11.4279 36.2418 18.3478 37.2824 29.0494C35.2405 27.0691 32.9871 25.9064 29.9816 25.9064C25.5475 25.9064 22.8218 28.9606 22.6972 29.0471ZM53.3031 28.4096C51.6308 27.0654 49.5168 26.285 47.2551 26.285C44.272 26.285 41.5548 27.6555 39.7627 29.8772C39.1715 22.7002 37.4942 15.6801 34.7131 11.8976C43.4711 13.5974 50.6005 19.9283 53.3031 28.4096ZM27.9355 5.37168C28.5742 4.08613 30.2629 3.70058 31.6738 4.69082C32.3066 5.592 32.4367 6.56934 32.0289 7.39316C31.3914 8.67871 29.7039 9.0666 28.2906 8.07402C27.6578 7.17285 27.5277 6.1955 27.9355 5.37168ZM25.2724 11.8976C22.4866 15.6809 20.8067 22.7033 20.2164 29.8817C18.4261 27.6666 15.7094 26.3002 12.7246 26.3002C10.45 26.3002 8.32302 27.09 6.64841 28.4506C9.34168 19.9486 16.4872 13.6004 25.2724 11.8976Z" fill="#159557"/>
<path d="M29.9827 45.493C29.9546 45.493 29.9308 45.507 29.903 45.5091C29.8998 45.5085 29.8971 45.5065 29.8936 45.5059C29.3448 45.4138 28.9342 44.9143 28.9608 44.3434C29.0024 43.3799 30.2129 42.8663 30.9167 43.6344C31.3643 44.1219 32.1225 44.1559 32.6124 43.7082C33.1011 43.2605 33.1339 42.5012 32.6862 42.0125C32.2705 41.5587 31.7508 41.2437 31.1827 41.0574V40.1375C31.1827 39.4742 30.646 38.9375 29.9827 38.9375C29.3194 38.9375 28.7827 39.4742 28.7827 40.1375V41.1213C27.4806 41.6427 26.6236 42.8514 26.5632 44.2367C26.4824 46.0412 27.7736 47.6029 29.535 47.8801C29.8409 47.9262 30.371 47.7741 30.7995 48.3582C31.1065 48.7754 31.062 49.4199 30.6987 49.7949C30.2402 50.2683 29.4895 50.2521 29.0569 49.7785C28.6093 49.2887 27.8511 49.2582 27.3612 49.7023C26.8725 50.15 26.8386 50.9082 27.285 51.3981C27.6928 51.8442 28.2158 52.1576 28.7827 52.3457V53.2754C28.7827 53.9387 29.3194 54.4754 29.9827 54.4754C30.646 54.4754 31.1827 53.9387 31.1827 53.2754V52.2846C31.645 52.101 32.071 51.8275 32.4225 51.4648C33.6038 50.2449 33.7362 48.2973 32.7319 46.9344C32.0239 45.9729 30.9355 45.493 29.9827 45.493Z" fill="#CBD1DA"/>
<path d="M29.9816 34.1133C23.0348 34.1133 17.3828 39.7629 17.3828 46.7074C17.3828 53.6508 23.0348 59.3004 29.9816 59.3004C36.9285 59.3004 42.5805 53.6508 42.5805 46.7074C42.5805 39.7629 36.9285 34.1133 29.9816 34.1133ZM29.9816 56.9004C24.3578 56.9004 19.7828 52.3277 19.7828 46.7074C19.7828 41.0859 24.3578 36.5133 29.9816 36.5133C35.6055 36.5133 40.1805 41.0859 40.1805 46.7074C40.1805 52.3277 35.6055 56.9004 29.9816 56.9004Z" fill="#CBD1DA"/>
</svg>
