<svg width="60" height="61" viewBox="0 0 60 61" fill="none" xmlns="http://www.w3.org/2000/svg">
<g clip-path="url(#clip0_2603_27016)">
<path d="M52.7202 12.6483L30.1696 0.63221C29.835 0.45366 29.4341 0.456165 29.102 0.638475L7.17541 12.6546C6.8158 12.852 6.59277 13.2291 6.59277 13.6395V29.3356C6.60593 42.2382 14.2504 53.9111 26.0723 59.0803L29.1158 60.4066C29.4003 60.5306 29.7242 60.5312 30.0092 60.4078L33.4386 58.9268C45.4798 53.8697 53.3135 42.0841 53.3148 29.0243V13.6395C53.3148 13.2247 53.0861 12.8432 52.7202 12.6483ZM51.0694 29.0243C51.0669 41.1839 43.7714 52.1556 32.5597 56.8612L32.5521 56.865L29.5657 58.1543L26.9707 57.0222C15.9664 52.2108 8.85003 41.3461 8.8375 29.3356V14.3042L29.649 2.89824L51.0694 14.3123V29.0243Z" fill="#16BE6E"/>
<path d="M21.3661 28.6074C20.9633 28.1357 20.2547 28.0799 19.7829 28.4827C19.3112 28.885 19.2554 29.5941 19.6583 30.0653L25.5887 37.0099C25.9846 37.4735 26.6781 37.5368 27.1505 37.1522L40.9622 25.9154C41.4433 25.5244 41.516 24.8171 41.1244 24.336C40.7335 23.8555 40.0262 23.7822 39.5451 24.1737L26.5842 34.7176L21.3661 28.6074Z" fill="#CBD1DA"/>
</g>
<defs>
<clipPath id="clip0_2603_27016">
<rect width="60" height="60" fill="white" transform="translate(0 0.5)"/>
</clipPath>
</defs>
</svg>
