<svg width="18" height="18" viewBox="0 0 18 18" fill="none" xmlns="http://www.w3.org/2000/svg">
<path fill-rule="evenodd" clip-rule="evenodd" d="M17.9468 1.74717C18.0068 1.35217 17.8385 0.95634 17.5126 0.72384C17.1868 0.492173 16.7576 0.463006 16.4035 0.64884C13.5693 2.13717 3.65514 7.34217 0.610136 8.94051C0.234302 9.13717 0.0126356 9.53884 0.0451356 9.96134C0.0776356 10.3838 0.357636 10.7472 0.759302 10.8847C1.94514 11.2905 3.3943 11.788 5.6668 12.5672L14.8335 3.99967L7.41514 13.1663C9.83847 13.9972 13.6276 15.2963 14.5785 15.6222C14.876 15.7247 15.2043 15.6888 15.4735 15.5263C15.7426 15.363 15.9251 15.0888 15.9726 14.7772L17.9468 1.74717Z" fill="white"/>
<path fill-rule="evenodd" clip-rule="evenodd" d="M6.36035 13.6855V16.4105C6.36035 16.8289 6.60618 17.208 6.98702 17.3789C7.36868 17.5505 7.81452 17.4822 8.12702 17.2039L10.492 15.1022L6.36035 13.6855Z" fill="white"/>
</svg>
