<svg width="60" height="45" viewBox="0 0 60 45" fill="none" xmlns="http://www.w3.org/2000/svg">
<path d="M57.0005 6H41.8125C41.3873 6.00202 40.9827 6.18362 40.6985 6.5L37.5285 10.019C37.0045 10.604 37.0184 11.4937 37.5605 12.062L40.3735 14.993L37.6445 18C37.1142 18.5834 37.126 19.4778 37.6715 20.047L40.4845 22.978L37.7505 26C37.2232 26.5833 37.2359 27.4749 37.7795 28.043L41.0905 31.504C41.3734 31.7969 41.7624 31.9635 42.1695 31.966L57.0005 32C58.6574 32 60.0005 30.6569 60.0005 29V9C60.0005 7.34315 58.6574 6 57.0005 6ZM58.0005 29C58.0005 29.5523 57.5528 30 57.0005 30L42.3865 29.971L39.5455 27L42.2805 23.976C42.8053 23.3912 42.7922 22.5012 42.2505 21.932L39.4375 19L42.1675 15.987C42.6976 15.4034 42.6854 14.5089 42.1395 13.94L39.3255 11.008L42.0355 8H57.0005C57.5528 8 58.0005 8.44772 58.0005 9V29Z" fill="#159557"/>
<path d="M37.1133 30.2886L34.3933 29.1936L35.4793 25.7516C35.7137 25.0014 35.3318 24.1971 34.6023 23.9046L31.2573 22.5816L32.3453 19.1496C32.5807 18.3988 32.1981 17.5934 31.4673 17.3016L28.1213 15.9776L28.9913 13.2016C29.168 12.6365 28.9958 12.0204 28.5517 11.6288C28.1076 11.2373 27.4748 11.1436 26.9363 11.3896L1.6503 22.9646C0.232906 23.618 -0.39009 25.294 0.2563 26.7146L7.8713 43.3486C8.18243 44.032 8.75255 44.5636 9.456 44.8262C10.1594 45.0888 10.9385 45.0609 11.6213 44.7486L37.1773 33.0486C37.722 32.7986 38.0656 32.2485 38.0513 31.6494C38.0369 31.0502 37.6673 30.5172 37.1113 30.2936L37.1133 30.2886ZM10.7883 42.9256C10.3715 43.1134 9.88119 42.9311 9.6883 42.5166L2.0743 25.8816C1.88653 25.4648 2.06884 24.9745 2.4833 24.7816L26.7473 13.6756L26.0743 15.8216C25.8414 16.5714 26.2241 17.3743 26.9533 17.6656L30.3003 18.9886L29.2123 22.4226C28.978 23.1731 29.3604 23.9775 30.0903 24.2696L33.4353 25.5936L32.3503 29.0336C32.118 29.7806 32.4959 30.5812 33.2203 30.8766L35.2913 31.7096L10.7883 42.9256Z" fill="#159557"/>
<path d="M11.5001 26.6919L14.7491 25.2049C15.0834 25.0622 15.3139 24.7494 15.3513 24.388C15.3886 24.0265 15.2269 23.6732 14.9289 23.4652C14.631 23.2572 14.2436 23.2272 13.9171 23.3869L5.60014 27.1929C5.17171 27.3881 4.93746 27.8557 5.03766 28.3157C5.13785 28.7757 5.54534 29.1035 6.01614 29.1029C6.1597 29.1024 6.30151 29.0714 6.43214 29.0119L9.68014 27.5239L13.8331 36.5999C13.9758 36.9341 14.2886 37.1646 14.6501 37.202C15.0115 37.2394 15.3648 37.0777 15.5728 36.7797C15.7808 36.4817 15.8108 36.0943 15.6511 35.7679L11.5001 26.6919Z" fill="#DBDEEB"/>
<path d="M55.5522 12.1682C55.3316 12.0209 55.0615 11.9674 54.8014 12.0194C54.5412 12.0713 54.3124 12.2245 54.1652 12.4452L51.0002 17.2002L47.8322 12.4482C47.5257 11.9887 46.9047 11.8647 46.4452 12.1712C45.9857 12.4777 45.8617 13.0987 46.1682 13.5582L49.8002 19.0002L46.1702 24.4452C45.8637 24.9047 45.9877 25.5257 46.4472 25.8322C46.9067 26.1387 47.5277 26.0147 47.8342 25.5552L51.0002 20.8002L54.1682 25.5522C54.3665 25.8494 54.7083 26.0183 55.0649 25.9952C55.4214 25.9721 55.7386 25.7606 55.8969 25.4402C56.0552 25.1199 56.0305 24.7394 55.8322 24.4422L52.2002 19.0002L55.8302 13.5552C55.9774 13.3344 56.0307 13.0642 55.9786 12.8041C55.9265 12.5439 55.7731 12.3152 55.5522 12.1682Z" fill="#DBDEEB"/>
<path d="M25.931 25.6143L25.913 25.5983L20.833 20.8983C20.5366 20.6237 20.1042 20.5545 19.7369 20.7227C19.3696 20.8909 19.1396 21.2636 19.154 21.6673L19.393 28.5813V28.6113L19.563 33.5513C19.5813 34.0903 20.0237 34.5176 20.563 34.5173H20.6C21.1516 34.4978 21.5831 34.035 21.564 33.4833L21.415 29.2003L25.054 27.5343L28.2 30.4413C28.4612 30.69 28.8361 30.7787 29.1811 30.6735C29.526 30.5683 29.7877 30.2855 29.8657 29.9334C29.9438 29.5813 29.8262 29.2144 29.558 28.9733L25.931 25.6143ZM21.341 27.0293L21.236 24.0003L23.464 26.0623L21.341 27.0293Z" fill="#DBDEEB"/>
<path d="M25.2 3.40006C25.0409 3.61223 24.9725 3.87893 25.0101 4.14148C25.0476 4.40403 25.1878 4.64093 25.4 4.80006L29.4 7.80006C29.6858 8.01442 30.0643 8.06002 30.3928 7.91967C30.7214 7.77933 30.9501 7.47437 30.9928 7.11967C31.0356 6.76497 30.8858 6.41442 30.6 6.20006L26.6 3.20006C26.1582 2.86869 25.5314 2.95823 25.2 3.40006Z" fill="#159557"/>
<path d="M34.0202 0.800029L33.0202 5.80003C32.9671 6.05995 33.0195 6.33031 33.1658 6.55162C33.3121 6.77293 33.5403 6.92704 33.8002 6.98003C33.866 6.99377 33.9331 7.00047 34.0002 7.00003C34.4751 6.99965 34.8843 6.66533 34.9792 6.20003L35.9792 1.20003C36.075 0.665639 35.7269 0.152448 35.195 0.0438362C34.6631 -0.0647762 34.1416 0.27087 34.0202 0.800029Z" fill="#159557"/>
</svg>
